<?xml version="1.0" encoding="utf-8"?>
<!-- Generator: Adobe Illustrator 18.0.0, SVG Export Plug-In . SVG Version: 6.00 Build 0)  -->
<!DOCTYPE svg PUBLIC "-//W3C//DTD SVG 1.1//EN" "http://www.w3.org/Graphics/SVG/1.1/DTD/svg11.dtd">
<svg version="1.1" id="圖層_1" xmlns="http://www.w3.org/2000/svg" xmlns:xlink="http://www.w3.org/1999/xlink" x="0px" y="0px"
	 viewBox="0 0 100 100" style="enable-background:new 0 0 100 100;" xml:space="preserve">
<g>
	<path style="fill:#425F9C;" d="M100,92c0,4.4-3.6,8-8,8H8c-4.4,0-8-3.6-8-8V8c0-4.4,3.6-8,8-8H92c4.4,0,8,3.6,8,8V92z"/>
	<path style="fill:#FFFFFF;" d="M82.8,60.5H71.2V100H54.1V60.5h-8.2V45.9h8.2v-9.4c0-6.7,3.2-17.3,17.3-17.3l12.7,0.1v14.2h-9.2
		c-1.5,0-3.6,0.8-3.6,4v8.6h13.1L82.8,60.5z M82.8,60.5"/>
</g>
</svg>
