<?xml version="1.0" encoding="utf-8"?>
<!-- Generator: Adobe Illustrator 18.0.0, SVG Export Plug-In . SVG Version: 6.00 Build 0)  -->
<!DOCTYPE svg PUBLIC "-//W3C//DTD SVG 1.1//EN" "http://www.w3.org/Graphics/SVG/1.1/DTD/svg11.dtd">
<svg version="1.1" id="圖層_1" xmlns="http://www.w3.org/2000/svg" xmlns:xlink="http://www.w3.org/1999/xlink" x="0px" y="0px"
	 viewBox="0 0 100 100" style="enable-background:new 0 0 100 100;" xml:space="preserve">
<g>
	<path style="fill:#E12C29;" d="M100,92c0,4.4-3.6,8-8,8H8c-4.4,0-8-3.6-8-8V8c0-4.4,3.6-8,8-8H92c4.4,0,8,3.6,8,8V92z"/>
	<path style="fill-rule:evenodd;clip-rule:evenodd;fill:#FEFEFE;" d="M59.9,49.5l-16,8.6l0-13.3v-4l7.2,3.9L59.9,49.5z M79,37.8
		c0,0-0.6-4.3-2.4-6.1c-2.2-2.5-4.8-2.5-5.9-2.6C62.4,28.4,50,28.4,50,28.4h0c0,0-12.4,0-20.7,0.6c-1.2,0.2-3.7,0.2-5.9,2.6
		c-1.8,1.9-2.3,6.1-2.3,6.1s-0.6,5-0.6,10v0.6v4.1c0,5,0.6,10,0.6,10s0.6,4.3,2.3,6.1c2.3,2.5,5.2,2.4,6.5,2.6
		c4.8,0.5,20.1,0.6,20.1,0.6s12.4,0,20.7-0.7c1.2-0.1,3.7-0.1,5.9-2.6c1.8-1.9,2.4-6.1,2.4-6.1s0.6-5,0.6-10v-3.8v-0.9
		C79.6,42.8,79,37.8,79,37.8L79,37.8z"/>
</g>
</svg>
