<?xml version="1.0" encoding="utf-8"?>
<!-- Generator: Adobe Illustrator 18.0.0, SVG Export Plug-In . SVG Version: 6.00 Build 0)  -->
<!DOCTYPE svg PUBLIC "-//W3C//DTD SVG 1.1//EN" "http://www.w3.org/Graphics/SVG/1.1/DTD/svg11.dtd">
<svg version="1.1" id="圖層_1" xmlns="http://www.w3.org/2000/svg" xmlns:xlink="http://www.w3.org/1999/xlink" x="0px" y="0px"
	 viewBox="0 0 100 100" style="enable-background:new 0 0 100 100;" xml:space="preserve">
<g>
	<path style="fill:#EA4C89;" d="M100,92c0,4.4-3.6,8-8,8H8c-4.4,0-8-3.6-8-8V8c0-4.4,3.6-8,8-8H92c4.4,0,8,3.6,8,8V92z"/>
	<g>
		<g>
			<path style="fill:#FFFFFF;" d="M66.7,88.8H33.3c-12.2,0-22.1-9.9-22.1-22.1V33.3c0-12.2,9.9-22.1,22.1-22.1h33.4
				c12.2,0,22.1,9.9,22.1,22.1v33.4C88.8,78.9,78.9,88.8,66.7,88.8z M33.3,17.9c-8.5,0-15.4,6.9-15.4,15.4v33.4
				c0,8.5,6.9,15.4,15.4,15.4h33.4c8.5,0,15.4-6.9,15.4-15.4V33.3c0-8.5-6.9-15.4-15.4-15.4H33.3z"/>
		</g>
		<g>
			<path style="fill:#FFFFFF;" d="M50,69.9C39,69.9,30.1,61,30.1,50c0-11,8.9-19.9,19.9-19.9c11,0,19.9,8.9,19.9,19.9
				C69.9,61,61,69.9,50,69.9z M50,36.8c-7.3,0-13.2,5.9-13.2,13.2c0,7.3,5.9,13.2,13.2,13.2c7.3,0,13.2-5.9,13.2-13.2
				C63.2,42.7,57.3,36.8,50,36.8z"/>
		</g>
		<g>
			<circle style="fill:#FFFFFF;" cx="70.7" cy="29" r="4.8"/>
		</g>
	</g>
</g>
</svg>
