<?xml version="1.0" encoding="utf-8"?>
<!-- Generator: Adobe Illustrator 18.0.0, SVG Export Plug-In . SVG Version: 6.00 Build 0)  -->
<!DOCTYPE svg PUBLIC "-//W3C//DTD SVG 1.1//EN" "http://www.w3.org/Graphics/SVG/1.1/DTD/svg11.dtd">
<svg version="1.1" id="圖層_1" xmlns="http://www.w3.org/2000/svg" xmlns:xlink="http://www.w3.org/1999/xlink" x="0px" y="0px"
	 viewBox="0 0 250 250" style="enable-background:new 0 0 250 250;" xml:space="preserve">
<g>
	<g>
		<circle style="fill:#0CA2B9;" cx="125" cy="125" r="99.9"/>
		<g>
			<path style="fill:#0CA2B9;" d="M150.6,28.6c0.3,0.1,0.7,0.2,1,0.2c0.2,0.1,0.3,0.3,0.5,0.4c0,0,0.6,0.3,0.9,0.3
				c0.2,0,0.8-0.2,0.8-0.2c-1.5-0.5-3-0.9-4.5-1.3c0.2,0.2,0.3,0.4,0.5,0.7C150.1,28.7,150.4,28.7,150.6,28.6z"/>
			<path style="fill:#FFFFFF;stroke:#0CA2B9;stroke-width:2;stroke-miterlimit:10;" d="M146.1,222.2c0-0.1,0.1-0.3,0.1-0.4
				c0.4,0,0.7-0.2,0.7-0.2c0-0.1,0-0.2,0-0.2c0.2-0.1,0.3-0.1,0.5-0.2c0.1,0,0.2,0,0.3,0c0.1-0.1,0.2-0.2,0.3-0.4
				c0,0-0.4-0.1-0.2-0.2c0.2-0.1,1-0.3,1-0.3c0.1,0,0.2,0,0.3-0.1c0.3-0.1,0.6-0.3,0.9-0.5c0.2-0.1,0.4-0.1,0.7-0.2
				c0,0-0.7-0.5-0.5-0.6c0.2-0.1,0.7-0.3,0.7-0.3s0.5-0.1,0.5,0c0,0.2-0.1,0.4-0.1,0.4c0,0,0.4,0.1,0.6,0c0.2-0.1,1.3-0.6,1.3-0.6
				c0.3-0.1,0.6-0.2,0.9-0.4c0.2-0.1,0.4-0.3,0.6-0.4c0.3-0.1,0.6-0.2,0.9-0.3c0.2-0.1,0.3-0.2,0.5-0.2c-0.3,0-0.5,0-0.8-0.1
				c0,0,0-0.2,0.1-0.3c0.1-0.1,0.6-0.4,0.6-0.4c0.5-0.1,1-0.2,1.5-0.4c0.4-0.3,0.8-0.7,1.1-1c0.2-0.2,0.4-0.4,0.7-0.7
				c0.4,0,0.7,0.1,1.1,0.1c0.3-0.2,0.7-0.5,1-0.7c0.3-0.2,0.5-0.3,0.8-0.5c0.6-0.2,1.2-0.4,1.8-0.6c0.8-0.5,1.5-1,2.3-1.6
				c0.4-0.2,0.7-0.3,1.1-0.5c0.1-0.2,0.2-0.4,0.3-0.6c0.8-0.5,1.6-0.9,2.3-1.4c1.2-0.7,2.3-1.4,3.5-2.1c0.6-0.4,1.2-0.8,1.8-1.2
				c1.1-0.9,2.2-1.8,3.3-2.8c0.1-0.3,0.1-0.5,0.2-0.8c0.2-0.3-0.1-2.4-0.1-2.4c0-0.5,0-1.1,0-1.6c0.2-0.4,0.3-0.9,0.5-1.3
				c0.4-0.4,0.7-0.7,1.1-1.1c0.1-0.4,0.2-0.8,0.4-1.2c0.3-0.3,0.6-0.6,0.9-0.9c0.5-0.9,1.1-1.8,1.6-2.7c0.2-0.8,0.5-1.6,0.7-2.4
				c0-0.6-0.1-1.2-0.1-1.9c0.3-0.2,0.6-0.4,0.9-0.7c0.1-0.3,0.2-0.7,0.3-1c0.5-0.2,1-0.3,1.5-0.5c0.3,0,0.6,0,0.8,0
				c0.2-0.2,0.4-0.3,0.6-0.5c-0.2-0.1-0.4-0.3-0.6-0.4c0-0.2,0-0.4,0-0.6c0.4-0.2,0.8-0.3,1.2-0.5c0.3-0.3,0.5-0.7,0.8-1
				c0.4,0,0.8,0,1.3,0.1c0.3-0.5,0.7-1,1-1.5c0.4,0,0.8,0,1.3,0.1c0.2-0.2,0.4-0.4,0.7-0.7c0.4-0.1,0.9-0.2,1.3-0.4
				c0.4,0,0.8,0,1.2,0c0.1-0.4,0.2-0.7,0.2-1.1c0.6-0.3,1.2-0.6,1.8-0.9c0.7-0.7,1.3-1.4,2-2.2c0-0.4,0-0.7-0.1-1.1
				c0.3-0.2,0.5-0.4,0.8-0.6c-0.1-0.2-0.2-0.5-0.2-0.7c0.2-0.3,0.3-0.6,0.5-0.9c-0.4,0.1-0.8,0.3-1.1,0.4c-0.3,0.3-0.7,0.7-1,1
				c-0.3,0-0.6,0.1-0.9,0.1c0-0.4,0-0.9,0-1.3c0.1-0.4,0.1-0.8,0.2-1.2c-0.2-0.3-0.4-0.5-0.6-0.8c0.2-0.4,0.5-0.8,0.7-1.2
				c0.1-0.4,0.1-0.8,0.2-1.2c0.1-0.2,0.2-0.5,0.3-0.7c-0.3,0.2-0.6,0.3-0.9,0.5c-0.1-0.2-0.1-0.5-0.2-0.7c0.3-0.4,0.7-0.8,1-1.2
				c0.3-0.9,0.7-1.9,1-2.8c0.2-0.2,0.4-0.4,0.6-0.6c-0.2-0.1-0.3-0.2-0.5-0.3c-0.2-0.3-0.4-0.6-0.6-1c-0.2-0.3-0.4-0.6-0.6-0.9
				c0-0.5,0-1.1,0-1.6c0.1-0.9,0.2-1.9,0.4-2.8c-0.1-0.5-0.1-0.9-0.2-1.4c-0.3-0.1-0.6-0.2-0.9-0.3c-0.3-0.2-0.6-0.3-0.9-0.5
				c-0.3-0.3-0.6-0.6-0.9-0.9c-0.1-0.7-0.1-1.3-0.2-2c-0.3-0.3-0.7-0.6-1-1c-0.1-0.7-0.1-1.3-0.2-2c-0.1-0.4-0.3-0.9-0.4-1.3
				c0.1-0.8,0.1-1.6,0.2-2.3c0.1-0.8,0.1-1.6,0.2-2.3c0.3-0.3,0.6-0.6,0.9-0.9c0.4-0.3,0.8-0.5,1.2-0.8c0.6-1.7,1.1-3.5,1.7-5.2
				c0.1-0.9,0.2-1.8,0.3-2.8c-0.1-0.3-0.2-0.7-0.3-1c0.3-0.2,0.7-0.3,1-0.5c0-0.3,0-0.5,0-0.8c0-0.5,0.1-0.9,0.1-1.4
				c0.1-0.3,0.2-0.6,0.4-0.9c0-0.5-0.1-1-0.2-1.4c0.2-0.6,0.4-1.1,0.7-1.7c0.2-0.8,0.4-1.6,0.5-2.4c0.3-0.3,0.7-0.7,1-1
				c-0.3-0.5-0.3-0.5-0.3-0.5c-0.2-0.4-0.4-0.9-0.6-1.3c-0.3,0.2-0.6,0.5-0.9,0.7c-0.2,0.8-0.4,1.5-0.6,2.3c0,0.4,0.1,0.8,0.1,1.2
				c-0.3,0.4-0.6,0.8-0.9,1.2c-0.2,0.7-0.5,1.4-0.7,2.1c-0.3,0.6-0.7,1.3-1,1.9c0,0.5,0,1.1,0,1.6c-0.4,0.5-0.8,1-1.2,1.5
				c0,0.6,0,1.2,0,1.8c-0.5,0.4-1,0.9-1.4,1.3c0.2-0.6,0.4-1.2,0.6-1.8c0-0.7,0.1-1.5,0.1-2.2c0.4-0.8,0.8-1.5,1.2-2.3
				c0.1-0.5,0.1-1,0.2-1.5c-0.1-0.3-0.2-0.7-0.3-1c0.1-0.6,0.1-1.1,0.2-1.7c0.2,0.2,0.5,0.3,0.7,0.5c0.3-0.4,0.7-0.8,1-1.2
				c0-0.3,0.1-0.5,0.1-0.8c0.2-0.3,0.3-0.5,0.5-0.8c-0.1-0.4-0.2-0.8-0.3-1.2c0.1-0.5,0.3-1.1,0.4-1.6c0.2-0.2,0.4-0.5,0.6-0.7
				c0.2-0.6,0.4-1.2,0.6-1.8c0.2-0.4,0.4-0.9,0.5-1.3c0-0.4,0-0.7,0-1.1c-0.1-0.6-0.2-1.2-0.3-1.8c-0.2-0.2-0.4-0.5-0.5-0.7
				c0.3-0.6,0.5-1.3,0.8-1.9c0.1-0.8,0.2-1.6,0.3-2.4c0.3,0,0.5-0.1,0.8-0.1c0-0.5,0-0.9,0.1-1.4c0.3-0.2,0.6-0.4,0.8-0.6
				c-0.3-0.2-0.5-0.4-0.8-0.6c0.3-0.5,0.6-1,0.9-1.5c0.2-0.7,0.3-1.4,0.5-2.1c0.4-0.3,0.9-0.6,1.3-0.9c0.4-0.7,0.9-1.3,1.3-2
				c0.3-0.5,0.6-1,0.9-1.5c0.6-0.6,1.3-1.1,1.9-1.7c0,0,2.6-2.7,2.8-3.1c0.2-0.4,1.1-1.4,1.1-1.4c0.2-0.7,0.5-1.3,0.7-2
				c0.3,0.4,0.5,0.7,0.8,1.1c0.2,0.3,0.4,0.6,0.6,0.9c0,0.3,0,0.6,0.1,0.9c0.2-0.6,0.4-1.2,0.6-1.9c0.3-0.5,0.5-1,0.8-1.5
				c-0.2-0.7-0.4-1.5-0.7-2.2c-0.2-0.7-0.3-1.4-0.5-2.1c-0.2-0.1-0.5-0.2-0.7-0.3c0.1,0.4,0.3,0.7,0.4,1.1c0.1,0.5,0.2,1,0.3,1.5
				c0.1,0.4,0.2,0.9,0.3,1.3c0,0.4,0.1,0.9,0.1,1.3c-0.2,0.4-0.3,0.7-0.5,1.1c-0.2-0.4-0.5-0.8-0.7-1.2c-0.1-0.4-0.2-0.8-0.4-1.2
				c0-0.5,0.1-1.1,0.1-1.6c-0.2-0.1-0.4-0.1-0.6-0.2c0-0.4,0-0.7-0.1-1.1c-0.3-0.2-0.6-0.5-0.9-0.7c0.3-0.5,0.6-1,0.9-1.5
				c0.3,0.1,0.6,0.3,0.9,0.4c0.2-0.3,0.4-0.6,0.6-0.8c-5.7-11.6-13.6-22.2-23.4-30.9c-0.3,0.1-0.5,0.3-0.8,0.4
				c-0.1-0.4-0.2-0.8-0.4-1.2c0.1,0,0.2,0,0.2,0c-7.6-6.6-16.3-12.1-26-16.3c-3.5-1.5-7-2.8-10.6-3.8c0.2,0.1,0.5,0.2,0.7,0.4
				c0.2,0.3,0.3,0.6,0.5,0.8c0.2,0.2,0.4,0.5,0.6,0.7c-0.1,0.2-0.2,0.4-0.3,0.6c-0.1,0.1-0.2,0.3-0.3,0.4c0.1,0.1,0.2,0.3,0.3,0.4
				c-0.1,0.4-0.2,0.7-0.3,1.1c0,0.2,0.1,0.5,0.1,0.7c0.1-0.2,0.3-0.4,0.4-0.6c0.2-0.2,0.4-0.4,0.6-0.6c0.3,0,0.6,0,0.8,0.1
				c0.3,0,0.5,0,0.8-0.1c0.7,0.3,1.4,0.6,2,0.8c0,0.2,0.1,0.4,0.1,0.7c0.1-0.1,0.2-0.2,0.3-0.3c0.3,0.1,0.7,0.2,1,0.2
				c0.2,0.1,0.4,0.3,0.7,0.4c-0.1,0.2-0.1,0.3-0.2,0.5c0.2,0,0.5,0.1,0.7,0.1c0.5-0.1,1-0.2,1.4-0.3c-0.1,0.3-0.3,0.5-0.4,0.8
				c0.1,0.1,0.2,0.2,0.4,0.4c-0.2,0.5-0.5,0.9-0.7,1.4c0.6,0,1.1,0.1,1.7,0.1c0.1-0.1,0.2-0.2,0.2-0.3c0.2-0.1,0.4-0.1,0.7-0.2
				c0.2-0.1,0.4-0.1,0.6-0.2c0-0.2,0.1-0.4,0.1-0.5c0-0.2-0.1-0.5-0.1-0.7c0.2-0.3,0.3-0.5,0.5-0.8c0.1,0.2,0.2,0.3,0.4,0.5
				c0.3,0.1,0.5,0.2,0.8,0.3c0.2,0,0.4,0.1,0.6,0.1c0.1,0.1,0.2,0.3,0.2,0.4c0.2,0,0.4,0.1,0.6,0.1c0.6,0.3,1.3,0.5,1.9,0.8
				c0,0.2,0.1,0.3,0.1,0.5c0.4,0.2,0.7,0.4,1.1,0.5c-0.1,0.1-0.1,0.2-0.2,0.3c0.2,0.3,0.4,0.5,0.6,0.8c0.2-0.1,0.3-0.2,0.5-0.2
				c0.2,0.2,0.3,0.5,0.5,0.7c0.3,0.1,0.6,0.1,0.9,0.2c0.1,0.4,0.2,0.8,0.4,1.2c-0.1,0.2-0.1,0.4-0.2,0.6c0.2,0.2,0.4,0.4,0.6,0.5
				c0.1,0.2,0.2,0.4,0.3,0.5c0.2,0,0.4,0,0.6,0c0,0.2,0,0.3,0.1,0.5c-0.1,0.1-0.3,0.1-0.4,0.2c0.3,0.3,0.6,0.6,0.9,1
				c0.3,0.4,0.6,0.8,0.9,1.3c0,0.1,0,0.3,0,0.4c0.2,0.1,0.3,0.1,0.5,0.2c-0.1,0.2-0.1,0.4-0.2,0.5c0.1,0.1,0.3,0.2,0.4,0.3
				c-0.2,0.3-0.5,0.6-0.7,1c0.2,0.1,0.4,0.2,0.7,0.3c0.1-0.2,0.2-0.5,0.3-0.7c0,0,1.5,0.5,1.7,0.6c0.2,0.1,0.8,0.7,0.8,0.7
				c-0.1,0.3-0.2,0.6-0.2,0.9c0.5,0.5,1,1.1,1.5,1.6c-0.3,0.2-0.7,0.4-1,0.6c-0.3,0-0.6-0.1-0.8-0.1c-0.3-0.3-0.5-0.5-0.8-0.8
				c-0.2,0.1-0.3,0.1-0.5,0.2c0.2,0.2,0.3,0.4,0.5,0.6c-0.1,0.2-0.2,0.4-0.3,0.5c-0.2,0-0.4,0-0.7-0.1c0,0.4,0,0.9,0,1.3
				c-0.1-0.1-0.3-0.2-0.4-0.3c-0.1,0.1-0.3,0.2-0.4,0.3c0-0.3-0.1-0.6-0.1-0.9c-0.4,0-0.8,0-1.1,0c0-0.2,0.1-0.5,0.1-0.7
				c-0.2-0.2-0.4-0.5-0.6-0.7c-0.3-0.1-0.5-0.2-0.8-0.3c-0.1-0.2-0.2-0.4-0.3-0.6c0.2-0.2,0.4-0.3,0.5-0.5c-0.1-0.3-0.2-0.6-0.3-0.9
				c-0.3-0.2-0.6-0.3-0.8-0.5c-0.4,0.1-0.8,0.2-1.2,0.2c-0.2-0.2-0.4-0.5-0.6-0.7c0-0.2,0-0.4-0.1-0.6c0.1-0.1,0.3-0.2,0.4-0.3
				c0-0.1,0-0.2,0-0.3c0.1-0.1,0.3-0.3,0.4-0.4c-0.2-0.1-0.5-0.1-0.7-0.2c-0.1,0.2-0.2,0.3-0.3,0.5c-0.2,0.1-0.4,0.3-0.6,0.4
				c0.2,0.2,0.4,0.5,0.5,0.7c-0.4,0.3-0.8,0.6-1.2,0.9c-0.3,0.1-0.6,0.2-0.9,0.2c-0.1-0.1-0.2-0.2-0.2-0.3c-0.4-0.1-0.8-0.3-1.2-0.4
				c-0.1-0.2-0.2-0.4-0.2-0.5c-0.6-0.2-1.1-0.3-1.7-0.5c0.2,0.2,0.4,0.4,0.6,0.6c0.2,0,0.4,0,0.6,0c0,0.1,0.1,0.2,0.1,0.3
				c-0.3,0.1-0.6,0.1-0.8,0.2c0.2,0.1,0.3,0.3,0.5,0.4c0.2,0,0.3,0,0.5,0c0.1,0.6,0.1,1.1,0.2,1.7c-0.1,0.2-0.2,0.5-0.3,0.7
				c0.1,0.1,0.3,0.2,0.4,0.2c-0.1,0.3-0.2,0.5-0.4,0.8c-0.4,0.1-0.8,0.1-1.2,0.2c-0.1-0.2-0.2-0.5-0.3-0.7c-0.3,0-0.7,0-1,0
				c0-0.1,0-0.3,0.1-0.4c-0.3,0-0.6,0-0.9,0c-1.1,0.1-2.2,0.2-3.2,0.3c-0.1-0.2-0.1-0.4-0.2-0.6c-0.1,0.2-0.2,0.5-0.3,0.7
				c-0.1,0-0.3,0.1-0.4,0.1c-0.2-0.2-0.3-0.4-0.5-0.6c-0.1,0.3-0.2,0.6-0.3,0.9c-0.3-0.1-0.5-0.2-0.8-0.2c-0.4,0.2-0.9,0.4-1.3,0.6
				c-0.5,0.3-0.9,0.5-1.4,0.8c-0.2-0.2-0.3-0.4-0.5-0.6c0-0.3,0-0.5,0.1-0.8c-0.2-0.2-0.5-0.4-0.7-0.7c-0.4-0.1-0.9-0.2-1.3-0.3
				c-0.4,0.3-0.9,0.6-1.3,0.9c-0.4,0-0.7,0-1.1,0c0,0,1.3-1.2,1.4-1.4c0.1-0.1-1.6,0.5-1.6,0.5c-0.3,0.1-0.5,0.1-0.8,0.2
				c-0.3-0.2-0.5-0.5-0.8-0.7c-0.3,0.3-0.6,0.5-0.9,0.8c-0.5,0.3-1,0.6-1.5,0.9c-0.4,0.3-0.8,0.5-1.2,0.8c0,0.3-0.1,0.5-0.1,0.8
				c0.1-0.1,0.3-0.1,0.4-0.2c0.2,0.2,0.3,0.4,0.5,0.6c-0.2,0.3-0.5,0.5-0.7,0.8c-0.1,0-0.3,0.1-0.4,0.1c-0.2,0.2-0.5,0.4-0.7,0.6
				c0,0.3,0,0.6-0.1,0.9c0.2,0.1,0.4,0.3,0.6,0.4c-0.1,0.2-0.2,0.5-0.3,0.7c-0.2,0.1-0.4,0.1-0.6,0.2c0-0.2,0-0.4,0-0.6
				c-0.5,0.1-1,0.1-1.5,0.2c-0.1,0.2-0.2,0.4-0.2,0.6c-0.1,0.2-0.2,0.4-0.3,0.6c0,0.4,0,0.8,0,1.1c-0.3,0.2-0.5,0.3-0.8,0.5
				c-0.1-0.2-0.2-0.5-0.4-0.7c-0.7,0.3-1.5,0.5-2.2,0.8c-0.2,0.6-0.4,1.2-0.6,1.8c-0.3-0.1-0.6-0.3-0.9-0.4c-0.2,0-0.5,0-0.7,0.1
				c-0.3,0.5-0.7,1-1,1.6c-0.4,0.2-0.8,0.4-1.2,0.6c-0.2-0.1-0.3-0.1-0.5-0.2c-0.2,0.2-0.5,0.4-0.7,0.5c0.1-0.2,0.1-0.5,0.2-0.7
				c0-0.2-0.1-0.4-0.1-0.6c0.2-0.2,0.4-0.4,0.6-0.6c0.1-0.4,0.2-0.7,0.3-1.1c0.1-0.7,0.3-1.4,0.4-2.1c0.3-0.5,0.5-1,0.8-1.5
				c0-0.6,0-1.2,0-1.8c0.4-0.5,0.7-1.1,1.1-1.6c0.4-0.3,0.7-0.6,1.1-0.9c0.3-0.1,0.6-0.1,0.9-0.2c0.2-0.3,0.5-0.6,0.7-1
				c-0.1-0.2-0.1-0.3-0.2-0.5c0.2,0,0.4-0.1,0.6-0.1c0.2,0.1,0.4,0.1,0.6,0.2c0.3,0,0.5-0.1,0.8-0.1c0.5-0.1,1-0.2,1.5-0.3
				c0.2-0.3,0.4-0.5,0.6-0.8c0.5-0.2,1.1-0.4,1.6-0.5c0.7-0.4,1.4-0.7,2-1.1c0.2-0.2,0.3-0.3,0.5-0.5c0.3,0,0.6,0,1-0.1
				c0.3,0.2,0.6,0.4,0.8,0.6c0.2-0.1,0.5-0.2,0.7-0.2c0.1-0.2,0.2-0.5,0.2-0.7c0.2-0.2,0.4-0.4,0.6-0.6c0.1-0.3,0.3-0.6,0.4-0.9
				c0.3-0.1,0.6-0.1,0.8-0.2c0.3,0.2,0.6,0.4,0.8,0.6c-0.3-0.4-0.5-0.8-0.8-1.2c-0.4,0-0.8,0-1.2,0.1c-0.2,0.2-0.5,0.4-0.7,0.7
				c0.1,0.2,0.1,0.5,0.2,0.7c-0.2,0-0.5-0.1-0.7-0.1c-0.3-0.1-0.6-0.2-0.9-0.3c-0.4,0.2-0.9,0.3-1.3,0.5c-0.3,0.2-0.7,0.4-1,0.6
				c-0.3-0.1-0.6-0.1-1-0.2c0.3-0.2,0.5-0.4,0.8-0.5c-0.2-0.1-0.4-0.2-0.6-0.3c0.3-0.2,0.7-0.3,1-0.5c0.1-0.2,0.2-0.4,0.3-0.6
				c-0.4,0.1-0.7,0.1-1.1,0.2c-0.1-0.3-0.3-0.6-0.4-0.9c-0.8-0.1-1.6-0.2-2.4-0.3c-0.3,0.1-0.7,0.2-1,0.4c-0.5,0.3-1,0.6-1.5,0.9
				c-0.5,0.2-1,0.4-1.4,0.5c-0.2,0.3-0.5,0.5-0.7,0.8c0.3,0.2,0.6,0.5,1,0.7c-0.4,0.1-0.8,0.3-1.3,0.4c-0.1-0.2-0.3-0.4-0.4-0.6
				c-0.3,0.2-0.5,0.3-0.8,0.5c-0.2-0.2-0.4-0.4-0.6-0.6c-0.2,0.2-0.3,0.4-0.5,0.6c-0.4-0.1-0.8-0.2-1.2-0.2c0.1-0.4,0.3-0.8,0.4-1.2
				c0.3,0.1,0.7,0.1,1,0.2c0-0.4,0-0.7-0.1-1.1c-0.3,0-0.6,0.1-1,0.1c-0.4-0.2-0.7-0.5-1.1-0.7c-0.2,0.1-0.4,0.1-0.7,0.2
				c-0.2,0.3-0.4,0.6-0.5,0.9c-0.2-0.3-0.3-0.6-0.5-0.9c-0.4-0.1-0.8-0.1-1.2-0.2c-0.1-0.2-0.2-0.5-0.3-0.7
				c-0.2,0.2-0.4,0.4-0.6,0.5c-0.3-0.2-0.5-0.3-0.8-0.5c0.2-0.2,0.3-0.3,0.5-0.5c-0.8-0.3-1.6-0.6-2.4-0.9c-0.2-0.2-0.4-0.4-0.6-0.6
				c-0.5,0.1-1,0.2-1.4,0.3c-0.2,0.2-0.4,0.4-0.7,0.6c-0.6,0.2-1.1,0.5-1.7,0.7c-0.4,0.4-0.7,0.8-1.1,1.2c-0.9,0.2-1.8,0.5-2.7,0.7
				c-0.7,0.6-1.4,1.2-2.1,1.8c-0.5,0.1-1,0.1-1.5,0.2c-0.7,0.3-1.3,0.6-2,0.9c0.1,0.2,0.3,0.3,0.4,0.5c0.4,0.1,0.8,0.2,1.2,0.4
				c-0.3,0.6-0.6,1.3-0.8,1.9c0.3-0.2,0.5-0.4,0.8-0.6c0.2,0.1,0.3,0.2,0.5,0.3c-0.3,0.3-0.7,0.6-1,0.9c0.3-0.1,0.7-0.2,1-0.3
				c0.2,0.1,0.3,0.1,0.5,0.2c0.2-0.2,0.5-0.4,0.7-0.6c0.4,0.3,0.8,0.6,1.2,0.9c0.1,0.3,0.1,0.7,0.2,1c0.3,0.3,0.5,0.6,0.8,0.9
				c0,0.1-0.1,0.2-0.1,0.3c0.4-0.2,1.4-0.4,1.4-0.4c0.2-0.5,0.3-1,0.5-1.5c0.3-0.2,0.7-0.4,1-0.6c-0.1,0.4-0.1,0.7-0.2,1.1
				c-0.2,0.5-0.4,1.1-0.6,1.6c-0.3,0.5-0.6,1-0.8,1.5c-0.1,0.5-0.3,0.9-0.4,1.4c-0.4,0.7-0.7,1.4-1.1,2.1c0.2,0.3,0.4,0.6,0.6,0.9
				c-0.2,0.3-0.4,0.7-0.6,1c-0.2-0.3-0.5-0.5-0.7-0.8c-0.3,0.4-0.6,0.7-0.9,1.1c-0.4,0.7-0.8,1.5-1.1,2.2c0,0.6,0,1.3,0,1.9
				c-0.2,0.4-0.5,0.8-0.7,1.2c0-0.6,0-1.2,0.1-1.7c-0.3-0.1-0.7-0.2-1-0.3c0,0,0,0,0,0v0c0,0,0.1-0.2,1-2.5c1.1-2.6-1,2.5,1.3-2.3
				c2.4-4.8,1.7-3.6,1.7-3.6c0,0,0.7-1.7,0.5-2c-0.2-0.1-0.4-0.3-0.7-0.4c-0.2,0.5-0.5,1-0.7,1.6c-0.5,0.4-1,0.9-1.5,1.3
				c-0.2,0.5-0.3,0.9-0.5,1.4c-0.6,0.8-1.2,1.6-1.9,2.4c-0.7,0.5-1.4,1.1-2.1,1.6c-0.3,0.3-0.5,0.6-0.8,0.8
				c-0.6,0.4-1.1,0.7-1.6,1.1c-0.5,0.3-1.1,0.7-1.6,1c-0.5,0.3-0.9,0.5-1.4,0.8c-0.2,0.3-0.4,0.6-0.6,0.8c-0.1-0.1-0.2-0.2-0.3-0.2
				c-0.6,0.5-1.2,1-1.9,1.5c-0.2,0-0.4,0-0.7,0c0-0.2,0-0.4,0-0.5c-0.2-0.2-0.4-0.3-0.6-0.5c0.1-0.3,0.2-0.6,0.4-0.9
				c-0.2,0-0.4,0.1-0.7,0.1c0.1-0.2,0.1-0.5,0.2-0.7c-0.3,0.2-0.5,0.4-0.8,0.6c-0.3,0.1-0.7,0.1-1,0.2c-0.6,0.3-1.3,0.6-1.9,0.9
				c-0.2,0.5-0.4,1-0.5,1.5c-0.2,0.2-0.5,0.3-0.7,0.5c-0.2-0.1-0.4-0.2-0.6-0.4c-0.4,0.3-0.7,0.7-1.1,1c-0.3,0-0.6,0-0.9,0
				c-0.1,0.2-0.2,0.5-0.2,0.7c-0.2,0.1-0.3,0.2-0.5,0.3c0.1,0.1,0.2,0.2,0.4,0.3c0,0,0.6,0.8,0.3,0.9c0,0.2-0.1,0.4-0.1,0.6
				c0.1,0.2,0.1,0.4,0.2,0.6c-0.1,0.1-0.3,0.3-0.4,0.4c0.1,0.2,0.2,0.4,0.3,0.6c0.1,0.3,0.2,0.7,0.3,1c-0.2,0.3-0.3,0.5-0.5,0.8
				c0,0.3-0.1,0.6-0.1,0.9c-0.3,0.4-0.6,0.9-1,1.3c-0.2-0.1-0.4-0.3-0.6-0.4c-0.2,0.1-0.5,0.2-0.7,0.3c-0.3-0.1-0.6-0.2-0.9-0.3
				c-0.1,0.2-0.1,0.4-0.2,0.5c-0.4,0.1-0.7,0.2-1.1,0.2c0-0.2,0-0.5-0.1-0.7c0.2-0.2,0.4-0.4,0.6-0.6c0.1-0.3,0.3-0.6,0.4-0.9
				c0.2-0.1,0.4-0.2,0.6-0.3c0-0.4,0-0.7,0-1.1c0.1-0.1,0.3-0.2,0.4-0.2c0-0.3,0-0.6,0-0.9c0.2,0.1,0.3,0.2,0.5,0.3
				c0.1-0.4,0.2-0.8,0.4-1.1c-0.4-0.1-0.8-0.3-1.2-0.4c-0.2-0.1-0.3-0.2-0.5-0.3c0-0.3,0-0.5,0-0.8c-0.1-0.1-0.2-0.2-0.2-0.4
				c0.2-0.2,0.3-0.4,0.5-0.7c0.2,0,0.5-0.1,0.7-0.1c0.1-0.4,0.2-0.7,0.3-1.1c-0.1-0.3-0.2-0.6-0.3-0.8c-0.1,0.1-0.3,0.2-0.4,0.2
				c-0.1-0.2-0.2-0.3-0.4-0.5c-0.3,0-0.7,0-1,0c-0.4,0.1-0.9,0.3-1.3,0.4c-0.3,0.2-0.6,0.5-0.9,0.7c0-0.2,0.1-0.5,0.1-0.7
				c0.2-0.2,0.3-0.4,0.5-0.6c0-0.2,0.1-0.5,0.1-0.7c0.3-0.1,0.5-0.1,0.8-0.2c0.1-0.1,0.2-0.3,0.2-0.4c0.2-0.2,0.4-0.4,0.6-0.6
				c-0.2-0.3-0.5-0.7-0.7-1c-0.4,0.3-0.8,0.7-1.3,1c-0.3,0.2-0.6,0.4-0.9,0.6c-0.2-0.1-0.4-0.1-0.6-0.2c-0.4,0.3-0.8,0.5-1.2,0.8
				c-0.3-0.2-0.7-0.3-1-0.5c-0.1,0.2-0.2,0.5-0.4,0.7c-0.1,0.3-0.2,0.6-0.3,0.9c0.1,0.2,0.3,0.5,0.4,0.7c-0.1,0.4-0.3,0.8-0.4,1.2
				c0.2,0.1,0.5,0.1,0.7,0.2c0.3-0.1,0.5-0.2,0.8-0.3c0.1-0.1,0.2-0.2,0.4-0.3c0.4,0.1,0.8,0.3,1.2,0.4c0.1,0.2,0.1,0.4,0.2,0.6
				c0.2,0,0.4-0.1,0.6-0.1c0.3,0.2,0.6,0.4,0.8,0.6c-0.3,0.3-0.7,0.6-1,0.9c-0.1-0.1-0.2-0.2-0.3-0.3c-0.4,0.1-0.9,0.2-1.3,0.3
				c-0.4,0.1-0.9,0.2-1.3,0.4c-0.1,0.2-0.3,0.4-0.4,0.7c-0.3,0.2-0.7,0.3-1,0.5c-0.1,0.6-0.1,1.3-0.2,1.9c-0.1,0.3-0.2,0.5-0.3,0.8
				c0.1,0,0.2,0.1,0.3,0.1c-0.1,0.5-0.1,1-0.2,1.5c0.2,0.4,0.4,0.7,0.5,1.1c-0.1,0.3-0.1,0.5-0.2,0.8c-0.1-0.2-0.3-0.3-0.4-0.5
				c-0.2-0.1-0.4-0.2-0.6-0.2c0.1,0.2,0.1,0.3,0.2,0.5c0.2,0.2,0.5,0.5,0.7,0.7c0,0.4,0,0.8-0.1,1.2c-0.4,0.2-0.7,0.4-1.1,0.6
				c0.4,0.3,0.7,0.6,1.1,0.9c-0.2,0.4-0.4,0.8-0.7,1.1c-0.1-0.1-0.3-0.1-0.4-0.2c-0.1,0.5-0.2,1-0.3,1.5c-0.2,0-0.3,0-0.5-0.1
				c-0.4,0.4-0.9,0.9-1.3,1.3c-0.4,0-0.8,0.1-1.2,0.1c-0.2,0.7-0.4,1.4-0.6,2.1c-0.2-0.1-0.5-0.2-0.7-0.3c-0.1,0.3-0.2,0.7-0.4,1
				c-0.4,0.1-0.8,0.2-1.2,0.3c-0.6,0.3-1.2,0.5-1.7,0.8c-0.4,0.3-0.8,0.7-1.2,1c-0.3-0.1-0.6-0.2-0.9-0.3c-0.3,0-0.6-0.1-0.8-0.1
				c0-0.3-0.1-0.6-0.1-0.8c-0.1,0.2-0.2,0.4-0.3,0.6c-0.3,0.2-0.6,0.4-1,0.6c-0.5-0.1-0.9-0.2-1.3-0.3c-0.2,0.1-0.5,0.2-0.7,0.3
				c-0.3,0.1-0.6,0.1-1,0.2c-0.1,0.1-0.3,0.2-0.4,0.4c0,0.3,0,0.6,0,0.9c-0.2,0-0.5,0-0.7,0c0-0.2,0-0.4,0-0.6
				c-0.1-0.2-0.1-0.4-0.2-0.6c0.3-0.3,0.5-0.6,0.8-0.9c-0.1-0.1-0.3-0.3-0.4-0.4c-0.2-0.1-0.5-0.2-0.7-0.3c-0.3,0.2-0.6,0.4-0.9,0.6
				c-0.3,0-0.5,0-0.8-0.1c-0.4,0.3-0.8,0.7-1.1,1c-0.2,0.1-0.5,0.1-0.7,0.2c-0.1,0.2-0.2,0.5-0.3,0.8c-0.2,0.2-0.3,0.5-0.4,0.7
				c0.1,0.4,0.2,0.8,0.3,1.2c0,0.2,0,0.5-0.1,0.7c0.2,0.4,0.4,0.8,0.6,1.2c0,0.3,0.1,0.6,0.1,0.9c0.1,0.2,0.1,0.4,0.2,0.6
				c0,0.3,0,0.5,0,0.8c0.1,0.6,0.2,1.3,0.2,1.9c0,0-0.2,1.6-0.2,1.8c-0.1,0.2,0,1.1,0,1.1c-0.1,0.1-0.2,0.3-0.3,0.4
				c-0.1,0.3-0.2,0.6-0.3,0.9c-0.2,0.3-0.5,0.7-0.7,1c-0.5,0.1-1,0.2-1.4,0.4c-0.4,0-0.9,0-1.3,0c-0.2-0.3-0.4-0.6-0.7-0.8
				c0.1,0.3,0.1,0.5,0.2,0.8c0.1,0.3,0.1,0.5,0.2,0.8c-0.1,0-0.2,0-0.4,0c-0.1-0.3-0.2-0.6-0.3-0.8c-0.1,0.5-0.1,1-0.2,1.5
				c-0.1-0.1-0.2-0.2-0.2-0.2c0,0-1.1,0.7-1.2,0.9c-0.1,0.1,0.3-0.6,0.3-0.6c0-0.3,0.1-0.6,0.1-0.9c0.2-0.2,0.3-0.5,0.5-0.7
				c0-0.3,0-0.7,0-1c-0.2-0.1-0.3-0.1-0.5-0.2c0-0.2,0-0.3,0-0.5c-0.2-0.1-0.3-0.2-0.5-0.3c0-0.6,0-1.1-0.1-1.7
				c-0.1-0.2-0.2-0.4-0.3-0.6c0-0.4,0-0.7,0-1.1c-0.2-0.1-0.5-0.2-0.7-0.3c0.1-0.4,0.1-0.7,0.2-1.1c-0.2-0.1-0.3-0.3-0.5-0.4
				c-0.1,0.2-0.3,0.5-0.4,0.7c-0.4,1.1-0.9,2.2-1.3,3.3c-0.3,0.4-0.5,0.9-0.8,1.3c0.1,0.5,0.1,0.9,0.2,1.4c0,0.4,0,0.8,0,1.2
				c0.2,0.5,0.4,0.9,0.6,1.4c0.2,0.7,0.4,1.3,0.6,2c0,0,0.3,1.9,0.3,2.1c0,0.2-0.7,2.4-0.7,2.4c0.1,0.8,0.1,1.5,0.2,2.3
				c0,0-0.3-0.4-0.5-0.4c-0.1-0.1-0.6,0.3-0.6,0.3c-0.4-0.8-0.7-1.7-1.1-2.5c0-0.3,0.1-0.6,0.1-0.8c0-0.3-0.1-0.6-0.1-0.9
				c0-0.5,0-1,0-1.4c0.1-0.4,0.1-0.9,0.2-1.3c0.1-0.7,0.2-1.5,0.3-2.2c-0.2-0.5-0.4-1.1-0.5-1.6c-0.1-0.5-0.2-1.1-0.3-1.6
				c0.2-0.3,0.4-0.6,0.7-1c0.1-0.2,0.2-0.4,0.3-0.5c0-0.1-0.1-0.3-0.1-0.4c0.1-0.1,0.2-0.3,0.3-0.4c0.1-0.2,0.2-0.5,0.4-0.7
				c0-0.5,0-1.1,0-1.6c0.1-0.2,0.2-0.3,0.3-0.5c0.1-0.5,0.2-1,0.3-1.6c-0.1-0.3-0.1-0.5-0.2-0.8c0.1-0.9,0.2-1.7,0.3-2.6
				c0.1-0.4,0.2-0.7,0.2-1.1c0,0-0.6-1.2-0.6-1.4c0-0.2-0.4,0.7-0.4,0.7c-0.3,0.2-0.7,0.4-1,0.6c-0.2,0-0.5-0.1-0.7-0.1
				c-0.1-0.2-0.2-0.5-0.4-0.7c0.1-0.2,0.1-0.4,0.2-0.6c0.2-0.3,0.4-0.7,0.6-1c0.1-0.4,0.2-0.7,0.3-1.1c0-0.1-0.1-0.3-0.1-0.4
				c0.1-0.3,0.2-0.5,0.3-0.8c0.1-0.7,0.2-1.4,0.3-2c-0.3,0-0.6-0.1-0.9-0.1c0-0.6,0-1.3,0-1.9c0.1-0.8,0.2-1.5,0.3-2.3
				c0,0-0.6-0.7-0.5-0.9c0-0.2-0.4,0.9-0.4,0.9c-0.2,0.3-0.4,0.6-0.6,0.8c-0.1-0.1-0.1-0.2-0.2-0.4c-0.5,0.1-0.9,0.2-1.4,0.3
				c0-0.2,0-0.4,0-0.7c-0.3,0.1-0.7,0.1-1,0.2c-0.2,0.4-0.4,0.8-0.6,1.1c-0.4,0.3-0.8,0.6-1.2,0.8c-0.2-0.1-0.4-0.2-0.6-0.3
				c-0.2,0.2-0.3,0.4-0.5,0.6c-0.7,0.5-1.3,1-2,1.5c-0.3,0-0.6,0-1,0c-0.1,0.2-0.3,0.5-0.4,0.7c-0.3,0.1-0.5,0.2-0.8,0.3
				c-0.3,0.1-0.7,0.2-1,0.3c-0.2,0.1-0.4,0.2-0.6,0.3c-0.1,0.4-0.1,0.7-0.2,1.1c-0.2,0.5-0.4,1-0.6,1.4c-0.2,0.7-0.3,1.3-0.5,2
				c-0.3,0.6-0.6,1.2-1,1.8c-0.1,0.4-0.1,0.8-0.2,1.2c-0.2,0-0.3-0.1-0.5-0.1c-0.3,0.4-0.7,0.9-1,1.3c-0.1,0.2-0.3,0.5-0.4,0.7
				c-0.2-0.1-0.4-0.1-0.6-0.2c-0.1-0.8-0.3-1.6-0.4-2.4c0.1-0.1,0.2-0.3,0.3-0.4c-0.1-1.3-0.2-2.6-0.3-4c0.1-0.4,0.1-0.8,0.2-1.3
				c0.1-1.8,0.1-3.6,0.2-5.4c0.2-0.9,0.5-1.9,0.7-2.8c0-0.2,0-0.4,0-0.6c-0.5,1.1-1,2.2-1.5,3.3C11.5,136.2,34.9,195,85.6,216.7
				c19.7,8.5,40.7,10.1,60.2,5.9c0-0.1-0.1-0.1-0.1-0.2c0.2,0,0.4,0.1,0.6,0.1c0.1,0,0.2,0,0.2-0.1c0,0,0.1,0,0.1-0.1
				C146.4,222.4,146.3,222.3,146.1,222.2z M209.5,77.4c0.2,0.2,0.4,0.4,0.6,0.6c0.2-0.2,0.4-0.4,0.5-0.5c0,0,1.2,0.5,1.1,0.7
				c-0.1,0.2-0.1,1-0.3,1.1c-0.2,0.1-1.5,0.1-1.6,0.1c-0.2,0-0.9-0.7-0.9-0.7C209.1,78.3,209.3,77.9,209.5,77.4z M201.3,65.6
				c0.2,0,0.4-0.1,0.6-0.1c0.1,0.3,0.2,0.6,0.3,0.9c-0.3,0.1-0.6,0.3-0.9,0.4c-0.3-0.1-0.6-0.3-0.9-0.4c0-0.3,0-0.6,0-0.9
				C200.6,65.5,200.9,65.5,201.3,65.6z M196.4,76.6c0.3-0.2,0.5-0.3,0.8-0.5c0.2,0.1,0.4,0.2,0.5,0.3c0,0,0.6,0.4,0.5,0.6
				c-0.1,0.3-0.7,0.6-0.8,0.5c-0.1-0.1-1.3-0.7-1.3-0.7C196.2,76.9,196.3,76.7,196.4,76.6z M193.4,76.8c0.2,0.1,0.5,0.1,0.7,0.2
				c-0.2,0.3-0.3,0.5-0.5,0.8c-0.3,0-0.6,0-0.9,0c0-0.1-0.1-0.3-0.1-0.4C192.6,77.4,193.2,77.1,193.4,76.8z M191.2,76.7
				c0.1-0.2,0.7-0.1,0.9-0.1c0,0.1,0,0.2,0.1,0.3c-0.2,0.1-0.4,0.3-0.7,0.4c-0.2,0-0.4,0-0.6,0C190.9,77.3,191.1,76.9,191.2,76.7z
				 M185.3,74.3c0,0,0.5,0.6,0.3,0.6c-0.2,0-0.6,0.2-0.6,0.2c-0.2-0.2-0.3-0.3-0.5-0.5C184.7,74.6,185,74.4,185.3,74.3z M182,73.5
				c0,0.2,0.1,0.3,0.1,0.5c-0.2,0-0.5,0.1-0.7,0.1c-0.1-0.2-0.1-0.4-0.2-0.6C181.5,73.5,181.8,73.5,182,73.5z M178.9,55.7
				c0.4,0,0.8,0.1,1.2,0.1c0.3,0.5,0.5,1,0.8,1.5c0.1,0.3,0.2,0.7,0.3,1c-0.4-0.1-0.8-0.1-1.1-0.2c0-0.3,0-0.6-0.1-0.9
				c-0.3-0.1-0.7-0.3-1-0.4c-0.1-0.2-0.2-0.4-0.3-0.6C178.9,55.7,178.9,55.7,178.9,55.7z M177.7,71.7c0.1,0.1,0.4,0.5,0.4,0.5
				s0.1,0.6,0,0.6c-0.2,0-0.3-0.5-0.3-0.5C177.7,72.2,177.6,71.6,177.7,71.7z M175,60.6c0.3,0.1,1,0.4,1.1,0.4
				c-0.1,0.4-0.3,0.8-0.4,1.2c-0.4-0.1-0.7-0.2-1.1-0.3c0-0.3,0-0.6-0.1-1C174.7,60.9,174.8,60.7,175,60.6z M173.3,134.3
				c0,0,0.2-0.2,0.3-0.2c0,0,0.2,0.4,0.2,0.4c-0.1,0.1-0.1,0.2-0.2,0.4c0,0-0.2,0-0.3,0c-0.1,0,0.1-0.2,0.1-0.2
				C173.4,134.6,173.3,134.3,173.3,134.3z M173,134c0,0.1,0,0.2,0,0.2c0,0-0.1,0.1-0.1,0.1c0-0.1-0.1-0.1-0.1-0.2
				C172.8,134.1,173,134,173,134z M172.4,132.4c0-0.1,0-0.3,0.1-0.3c0.1,0,0.4,0.1,0.3,0.1c0,0-0.1,0.4-0.1,0.4c0,0-0.1,0.3-0.1,0.3
				c-0.1,0-0.2-0.1-0.3-0.1C172.4,132.7,172.4,132.6,172.4,132.4C172.4,132.4,172.4,132.4,172.4,132.4z M172.8,136.3
				C172.8,136.3,172.8,136.3,172.8,136.3c0.2-0.1,0.4-0.2,0.6-0.2c0,0,0.2-0.1,0.2,0c0,0.1,0,0.6,0,0.7c0,0.1-0.1,0.9-0.2,0.9
				c-0.1,0-1,0.3-1.1,0.2c0-0.1,0-0.8,0-0.8C172.3,137,172.8,136.3,172.8,136.3z M171.4,130.4c0,0,0.3,0.1,0.3,0.1
				c0,0.1,0,0.4,0,0.5c-0.1,0-0.4,0.3-0.4,0.3c0,0-0.1-0.1-0.1-0.1c0,0-0.2-0.4-0.2-0.4C171,130.7,171.4,130.4,171.4,130.4z
				 M36.7,102.8c0,0-0.6,0.4-0.9,0.3c-0.2-0.1-0.5-1-0.5-1c0-0.6,0.1-1.1,0.1-1.7c0.1-0.2,0.3-0.4,0.4-0.7c0-0.2,0.1-0.5,0.1-0.7
				c0,0,0.4-0.8,0.7-0.4c0.1,0.5,0.2,1.1,0.3,1.6c0.1,0.4,0.1,0.9,0.2,1.3C37,102.1,36.8,102.5,36.7,102.8z M93.7,84.9
				c-0.1-0.3-0.1-0.6-0.2-0.9c0.1-0.4,0.1-0.9,0.2-1.3c0.4,0,0.9,0,1.3,0c0.2,0.1,0.4,0.3,0.7,0.4c0,0.5,0,1,0,1.5
				c-0.3,0.2-0.6,0.4-0.8,0.6c-0.1,0.4-0.2,0.8-0.4,1.2c-0.2,0.2-0.5,0.4-0.7,0.5c-0.3-0.2-0.5-0.5-0.8-0.7
				C93.2,85.8,93.5,85.3,93.7,84.9z M78.8,93.5c0.4-0.4,0.8-0.8,1.2-1.2c0.4-0.2,0.7-0.4,1.1-0.6c0,0,0.3,1.1,0.1,1.4
				c-0.2,0.3-1.1,1.4-1.1,1.4s0.1,0.7-0.2,1c-0.3,0.3-1.1,0.8-1.1,0.8c-0.2-0.3-0.4-0.5-0.6-0.8C78.4,94.8,78.6,94.1,78.8,93.5z
				 M74.2,109.3c-0.2-0.4-0.1-1.7-0.1-1.7c0.4-0.3-0.1-0.8-0.1-0.8c-0.2-0.1-0.4-0.2-0.5-0.4c0.2-0.3,0.3-0.6,0.5-0.8
				c0.1-0.4,0.2-0.7,0.4-1.1c0.3,0.1,0.5,0.2,0.8,0.3c0.1-0.4,0.1-0.8,0.2-1.3c0.1-0.4,0.1-0.8,0.2-1.3c0.2-0.3,0.5-0.6,0.7-0.9
				c0.2,0.2,0.3,0.3,0.5,0.5c0.2,0.1,0.4,0.2,0.6,0.3c0,0,0.9-0.7,0.8-0.3c-0.1,0.4-0.7,1.4-0.7,1.4c-0.1,0.3-0.1,0.7-0.2,1
				c0.1,0.4,0.1,0.8,0.2,1.2c-0.2,0.1-0.4,0.3-0.6,0.4c-0.1,0.2-0.3,0.3-0.4,0.5c-0.3,0.2-0.7,0.3-1,0.5c-0.2,0.5-0.4,0.9-0.6,1.4
				c0,0.2,0,0.4,0,0.6c0.4,0,0.7,0,1.1,0c0,0,0.4,0.5,0.6,0.7c0.4,0.3,0.8,0.6,0.6,1.1c-0.2,0.5-0.6,1.2-0.6,1.2
				c-0.2-0.1-0.4-0.3-0.6-0.4c0-0.5-0.1-0.9-0.1-1.4c-0.3,0.1-0.6,0.2-0.9,0.3c0,0-0.2,0-0.3-0.4c0-0.2-0.2-0.3-0.3-0.4
				c0.1,0.3-0.3,1.1-0.3,1.1c-0.1,0.4-0.2,0.8-0.4,1.2c-0.2,0-0.5,0.1-0.7,0.1c0,0,0.1-0.6,0.3-1c0.2-0.4-0.1-1.4-0.1-1.4
				c-0.1-0.1-0.2-0.2-0.3-0.3C73,109,73.6,109.4,74.2,109.3z M76.7,112.9c0,0,0.3-0.5,0.6-0.8c0.1,0.7,0.3,1.5,0.4,2.2
				c-0.2,0.5-0.3,1-0.5,1.5c-0.3,0.2-0.7,0.3-1,0.5c0-0.5,0.1-0.9,0.1-1.4c0.2-0.1,0.4-0.3,0.6-0.4
				C76.8,113.9,76.7,113.4,76.7,112.9z M73.9,115.1c0.4-0.1,0.9-0.7,1.1-1c0.1,0.3,0.2,0.6,0.3,1c0,0.3-0.1,0.7-0.1,1
				c-0.2,0.2-0.4,0.4-0.6,0.6c-0.3-0.1-0.5-0.2-0.8-0.2c0,0-0.5-0.8-0.7-1.4C73,114.6,73.5,115.2,73.9,115.1z M73.2,114
				c0.3-0.4,0.5-0.8,0.8-1.2c0.2,0.3,0.3,0.5,0.5,0.8c-0.2,0.4-0.4,0.7-0.6,1.1C73.7,114.4,73.4,114.2,73.2,114z M72.5,117.6
				c0.1,0.1,0.3,0.1,0.4,0.2c0.4-0.1,0.7-0.3,1.1-0.4c0,0.3,0,0.6-0.1,0.9c0.4-0.1,0.9-0.2,1.3-0.3c0.5-0.2,1.3-0.9,1.3-0.9
				s0.4,0.8,0.4,1.2c0,0.4-0.1,0.9-0.2,1.2c-0.1,0.3-1.1,1.2-1.1,1.2c-0.1,0.3-0.2,0.7-0.3,1c-0.2,0.3-0.3,0.6-0.5,0.9
				c-0.3,0-0.6,0-0.9,0c-0.2-0.6-0.3-1.1-0.5-1.7c0.3-0.5,0.5-1,0.8-1.5c-0.4-0.2-1.2-0.3-1.2-0.3c-0.1-0.3-0.1-0.5-0.2-0.8
				c-0.3,0.4-0.6,0.7-0.9,1c-0.1-0.3-0.2-0.6-0.4-1C71.8,118.3,72.1,118,72.5,117.6z M75.7,131.8c-0.5,0-1-0.1-1.6-0.1
				c0,0,0.5-1,0.5-1.4c0-0.4,0.4-1.2,0.4-1.2c0.3,0.1,0.6,0.1,0.9,0.2c-0.1,0.5-0.2,1-0.2,1.6C75.7,131.1,75.7,131.4,75.7,131.8z
				 M74.3,136.3c0.3,0.3,0.7,0.7,1,1c0,0,1.3,1.1,0.9,1.2c-0.3,0.1-1.6-0.1-1.6-0.1c-0.2-0.3-0.4-0.5-0.6-0.8
				c-0.3-0.3-0.6-0.5-0.9-0.8c0-0.2,0.1-0.4,0.2-0.6C73.6,136.3,74,136.3,74.3,136.3z M65.7,144.8c0.3-0.3,0.6-0.5,0.9-0.8
				c0.2,0,0.5-0.1,0.7-0.1c0.3-0.2,0.6-0.4,0.8-0.6c0.4,0,0.8-0.1,1.2-0.1c0.3,0.1,0.7,0.3,1,0.4c0,0.2-0.1,0.4-0.1,0.5
				c-0.4,0.1-0.9,0.3-1.3,0.4c-0.3,0-0.6,0.1-0.9,0.1c-0.3,0.2-0.6,0.4-0.9,0.7c-0.5-0.1-1-0.1-1.6-0.2
				C65.6,145.1,65.7,145,65.7,144.8z M65,141.7c-0.1-0.2-0.2-0.4-0.3-0.7c0.5,0.1,0.9,0.2,1.4,0.3c0.3,0.2,0.5,0.3,0.8,0.5
				c-0.4,0.1-0.8,0.2-1.2,0.3C65.5,142,65.2,141.9,65,141.7z M70.3,129.6c-0.3-0.2-0.7-0.3-1-0.5c0,0-0.3-0.9-0.7-0.6
				c-0.4,0.3-0.4,0.4-0.4,0.8c0,0.4,0.2,1.1,0.2,1.1c0.1,0.4,1.3,0.6,1.3,0.6c0.1,0.3,0.2,0.6,0.3,0.9c-0.4,0-0.8,0-1.1,0
				c-0.2,0.1-0.4,0.1-0.7,0.2c-0.2-0.1-0.4-0.2-0.5-0.3c0.1,0.5,0.2,0.9,0.3,1.4c0.2,0.2,0.4,0.4,0.6,0.6c-0.1,0.3-0.2,0.6-0.4,1
				c0.1,0.4,0.3,0.8,0.4,1.2c0,0,0.3,0.9,0,0.8c-0.3-0.1-1.5-0.4-1.5-0.4c0-0.5,0-0.9-0.1-1.4c0.1-0.2,0.2-0.3,0.2-0.5
				c-0.2-0.2-0.4-0.4-0.6-0.5c-0.1,0.5-0.2,1-0.3,1.5c-0.1,0.3-0.1,0.5-0.2,0.8c0,0-0.3,0.4-0.6,0.2c-0.3-0.1-0.8-1-0.8-1
				c0.1-0.4,0.2-0.7,0.4-1.1c0.1-0.3,0.1-0.7,0.2-1c-0.1-0.3-0.2-0.5-0.3-0.8c0.2-0.5,0.4-1,0.7-1.4c0.2-0.3,0.4-0.7,0.6-1
				c0-0.3,0.1-0.6,0.1-0.9c0.2-0.2,0.3-0.4,0.5-0.5c0.1-0.3,0.2-0.7,0.3-1c0.3-0.1,0.7-0.3,1-0.4c0.4,0,0.9,0.1,1.3,0.1
				c0.1,0.3,0.2,0.6,0.4,0.9c0.4,0.1,0.8,0.2,1.3,0.3c0.2-0.1,0.5-0.2,0.7-0.3c0.3,0.1,0.6,0.1,0.9,0.2c-0.3,0.3-0.5,0.7-0.8,1
				c-0.2,0.2-0.5,0.4-0.7,0.6C70.9,130,70.6,129.8,70.3,129.6z M69.6,113.8c0.2-0.3,0.4-0.5,0.7-0.8c0.3-0.3,0.6-0.6,0.8-0.9
				c0.3,0.5,0,1.2,0,1.2c-0.3,0.1-0.6,0.3-0.9,0.4c-0.2,0.3-0.3,0.6-0.5,0.8c-0.5,0.3-1,0.5-1.5,0.7c-0.1-0.2-0.2-0.3-0.3-0.5
				c0.2-0.2,0.4-0.4,0.6-0.6C68.9,114,69.3,113.9,69.6,113.8z M65.3,95.8c0.3,0,0.6,0,0.9,0c0.2,0.1,0.4,0.2,0.6,0.2
				c0,0,0.9,0.1,1.4,0.2c-0.2,0.4-0.5,0.8-0.7,1.2c-0.3,0.2-0.5,0.5-0.8,0.7c-0.3,0-0.7,0.1-1,0.1c-0.2-0.4-0.4-0.8-0.6-1.2
				c-0.1-0.3-0.2-0.6-0.4-0.8C65,96.1,65.1,95.9,65.3,95.8z M57.6,122.9c0.3-0.7,0.6-1.3,0.9-2c0.3,0.1,0.5,0.3,0.8,0.4
				c0.2,0.3,0.4,0.7,0.5,1c0.2-0.4,0.3-0.8,0.5-1.2c0.3-0.1,0.6-0.2,0.9-0.3c0.3,0.1,0.7,0.2,1.1,0.3c0,0,0.7-0.8,0.8-1.1
				c0.1-0.3,1.1-0.5,1.1-0.5c0.4,0.2,0.9,0.4,1.3,0.6c0,0,0-0.7-0.1-1.1c-0.1-0.4,0.7-0.6,0.7-0.6c0.5-0.6,0.9-1.1,1.4-1.7
				c0.2,0.5,0.5,1.1,0.7,1.6c0.2,0.3,0.3,0.5,0.5,0.8c0.1,0.5,0.1,0.9,0.2,1.4c-0.2,0.1-0.5,0.1-0.7,0.2c-0.1,0.3-0.2,0.7-0.3,1
				c-0.2,0-0.5,0-0.7,0c-0.2,0.2-0.5,0.4-0.7,0.6c0,0.4-0.1,0.8-0.1,1.2c0,0.3,0,0.6,0,0.9c0,0.7,0.1,1.3,0.1,2
				c-0.4-0.1-0.7-0.2-1.1-0.3c-0.1,0.5-0.2,0.9-0.4,1.4c-0.4,0.5-0.7,0.9-1.1,1.4c-0.1,0.5-0.1,1-0.2,1.5c-0.5,0.5-1,0.9-1.5,1.4
				c-0.3-0.3-0.6-0.7-0.8-1c-0.3-0.1-0.6-0.2-0.8-0.3c-0.2-0.4-0.4-0.8-0.6-1.2c-0.5-0.1-1-0.1-1.4-0.2c-0.3-0.3-0.6-0.7-0.8-1
				c0.1-0.7,0.2-1.3,0.3-2c-0.2-0.2-0.5-0.4-0.7-0.6C57.3,124.6,57.4,123.8,57.6,122.9z M64.4,143.1c-0.1,0.2-0.2,0.4-0.3,0.6
				c-0.3-0.3-0.5-0.5-0.8-0.8c-0.1-0.3-0.2-0.6-0.3-0.9C63.4,142.4,63.9,142.7,64.4,143.1z M62.5,140.8c-0.3,0-1.3-0.3-1.3-0.3
				c0-0.2,0.1-0.4,0.1-0.6c0.1-0.3,0.2-0.5,0.3-0.8c0.3,0.3,0.5,0.5,0.8,0.8c0.3,0,0.6-0.1,0.9-0.1c0,0.4,0,0.8,0,1.2
				C63.4,140.9,62.8,140.9,62.5,140.8z M50.5,126.7c-0.1-0.9-0.2-1.8-0.2-2.7c-0.3-1-0.6-1.9-0.8-2.9c0-0.9,0-1.8,0-2.6
				c-0.2-0.3-0.5-0.7-0.7-1c0-0.6,0.1-1.1,0.1-1.7c-0.2-0.6-0.4-1.2-0.6-1.8c-0.2-0.5-0.4-1-0.7-1.5c-0.1-0.5-0.2-1-0.4-1.6
				c0.1-0.6,0.3-1.1,0.4-1.7c0.2,0.2,0.5,0.3,0.7,0.5c0.2,0.2,0.5,0.4,0.7,0.6c0.3,0.4,0.6,0.7,0.9,1.1c0.3,1.2,0.6,2.4,1,3.6
				c0.1,0.8,0.2,1.6,0.3,2.4c0.3,0.7,0.6,1.4,0.9,2.1c0.2,0.3,0.5,0.6,0.7,0.9c0,0.5-0.1,1.1-0.1,1.6c0,0.3,0,0.6,0.1,0.9
				c0.2,0.4,0.4,0.8,0.7,1.2c-0.1,0.4-0.2,0.7-0.4,1.1c0.2,0.1,0.4,0.3,0.6,0.4c0,0,0.1,1.4,0,1.7c-0.1,0.3-0.6,1.8-0.6,1.8
				c-0.3,0-0.7,0-1,0c-0.2-0.1-0.4-0.2-0.6-0.3C51.2,128.1,50.9,127.4,50.5,126.7z M53.3,132.3c-0.4-0.4-0.8-0.8-1.2-1.2
				c0,0,0.4-0.7,0.5-1.2c0.3,0.1,0.6,0.2,1,0.4c0.3,0.1,0.6,0.2,1,0.4c0.1,0.3,0.2,0.7,0.3,1c0.1,0.3,0.2,0.7,0.3,1
				c0,0,0.4,0.2,0.8,0.2c0.4,0,0.7-0.1,0.7-0.1c0,0,0.8,0.7,1.2,0.6c0.4,0,0.7,0.6,0.7,0.6c-0.1,0.4-0.2,0.7-0.3,1.1
				c0,0,0.6,0.2,0.9,0.3c0.3,0.1,0.4,0.8,0.4,0.8c0.1,0.2,0.3,0.5,0.4,0.7c0,0.6-0.1,1.1-0.1,1.7c0,0-0.5-0.5-0.6-0.9
				c-0.1-0.4-1.2-1.2-1.5-1.3c-0.3-0.1-1.4-1.5-1.4-1.4c-0.6-0.3-1.2-0.6-1.8-0.9c0,0-1.4-0.9-1.7-0.9
				C52.7,133,53.3,132.3,53.3,132.3z M81.1,194.4c-0.2,0.3-0.3,0.5-0.5,0.8c-0.2,0.3-0.3,0.6-0.5,0.9c-0.3-0.2-0.7-0.4-1-0.6
				c-0.2-0.6-0.5-1.2-0.7-1.8c0-0.3,0-0.5,0-0.8c-0.2-0.2-0.4-0.5-0.5-0.7c0.1-0.1,0.3-0.3,0.4-0.4c0.4,0.4,0.7,0.8,1.1,1.2
				c0.4,0.1,0.7,0.1,1.1,0.2c0.2,0,0.4,0,0.6,0C81.1,193.5,81.1,194,81.1,194.4z M88.4,180.2c0,0.3,0.1,0.6,0.1,0.9
				c-0.2,0.3-0.3,0.6-0.5,0.9c-0.2,0.6-0.3,1.2-0.5,1.8c-0.2,0.4-0.5,0.8-0.7,1.2c-0.4,0.1-0.8,0.2-1.2,0.2c-0.1,0.3-0.2,0.7-0.3,1
				c-0.4,0.6-0.7,1.3-1.1,1.9c0,0,0-0.1-0.9,0.8c-0.9,0.8,0.7-0.6,0.4,0.4c0-0.1,0,0,0,0.1c0,0,0,0.1,0,0.1c-0.3,0.8-0.1,0.2,0-0.1
				c0,0,0,0,0-0.1c0,0.1-0.1,0.2-0.2,0.6c-0.7,1.7-1,0.1-1,0.1c-0.4-0.2-0.8-0.4-1.2-0.5c-0.2,0.2-0.4,0.4-0.6,0.6
				c-0.2,0.2-0.4,0.4-0.7,0.7c0,0-0.6-1-0.8-1.2c0-0.4,0-0.7,0-1.1c-0.3,0.1-0.6,0.2-0.9,0.3c-0.3,0.3-0.6,0.6-0.9,0.9
				c-0.2-0.3-0.5-0.5-0.7-0.8c0-0.3,0-0.5-0.1-0.8c-0.3-0.3-0.7-0.5-1-0.8c-0.3-0.3-0.6-0.6-0.9-0.9c0.1-0.2,0.1-0.5,0.2-0.7
				c-0.1-0.4-0.3-0.8-0.4-1.2c0-0.3,0-0.6,0-0.9c0,0-0.7-0.4-1-0.3c-0.3,0.1,0.5-0.8,0.5-0.8c-0.1-0.4-0.3-0.7-0.4-1.1
				c-0.1,0.3-0.3,0.6-0.4,0.9c-0.3-0.1-0.6-0.3-1-0.4c0.1-0.1,0.3-0.2,0.4-0.3c0.2-0.3,0.3-0.5,0.5-0.8c0.2-0.4,0.3-0.8,0.5-1.2
				c-0.3,0-0.7,0.1-1,0.1c-0.2,0.3-0.4,0.5-0.6,0.8c-0.2-0.1-0.4-0.1-0.6-0.2c-0.2-0.2-0.3-0.5-0.5-0.7c0.1-0.3,0.2-0.5,0.3-0.8
				c-0.3-0.2-0.7-0.3-1-0.5c0.1-0.3,0.3-0.6,0.4-1c-0.2-0.2-0.4-0.4-0.6-0.7c-0.3-0.1-0.5-0.1-0.8-0.2c-0.1-0.3-0.2-0.6-0.2-0.9
				c-0.2,0.1-0.5,0.1-0.7,0.2c-0.3-0.3-0.6-0.6-0.9-0.9c-0.3,0-0.7-0.1-1-0.1c-0.4,0-0.8,0-1.2,0c-0.4-0.2-0.8-0.5-1.2-0.7
				c-0.2,0.1-0.5,0.2-0.7,0.3c-0.3-0.1-0.6-0.2-0.9-0.3c-0.2,0-0.4,0.1-0.6,0.1c-0.3,0.2-0.5,0.3-0.8,0.5c-0.4-0.2-0.8-0.4-1.3-0.6
				c-0.3-0.3-0.6-0.5-1-0.8c-0.3,0.2-0.7,0.4-1,0.6c-0.2-0.3-0.4-0.7-0.6-1c-0.1,0.2-0.2,0.3-0.3,0.5c-0.5,0-0.9,0-1.4-0.1
				c-0.2-0.2-0.5-0.4-0.7-0.6c0,0-0.6-1.5-0.8-1.9c-0.1-0.4,0.3,0.2,0.3,0.2c0.2-0.2,0.4-0.4,0.6-0.7c0-0.4,0-0.9,0-1.3
				c0-0.3,0.1-0.6,0.1-0.9c-0.1-0.6-0.2-1.1-0.3-1.7c0-0.3,0-0.6,0-0.9c0.1-0.3,0.1-0.6,0.2-0.9c-0.2-0.3-0.3-0.7-0.5-1
				c0-0.1,0.1-0.3,0.1-0.4c-0.2-0.6-0.4-1.1-0.7-1.7c0-0.4-0.1-0.8-0.1-1.2c0.2,0.2,0.5,0.3,0.7,0.5c0,0,0.1-1.5,0-1.9
				c-0.1-0.4-0.3-1.2-0.3-1.2c0,0,0.5-1.1,0.6-1.5c0.6-0.1,1.2-0.2,1.8-0.4c0.3-0.2,0.6-0.4,0.8-0.6c0.3,0.1,0.5,0.3,0.8,0.4
				c0.2,0,0.4-0.1,0.6-0.1c0.3-0.2,0.6-0.3,0.9-0.5c0.4,0.1,0.7,0.3,1.1,0.4c0.3-0.1,0.7-0.2,1-0.4c0.5-0.1,0.9-0.1,1.4-0.2
				c0.1-0.4,0.1-0.9,0.2-1.3c0.3-0.3,0.5-0.6,0.8-0.9c0.2,0.4,0.4,0.8,0.5,1.2c0.2-0.2,0.4-0.3,0.6-0.5c0-0.3,0-0.6,0-0.9
				c0.2-0.1,0.4-0.1,0.5-0.2c0.4-0.2,0.7-0.3,1.1-0.5c0.2-0.3,0.3-0.6,0.5-0.9c0,0,0.9,0,1.2,0c0.3,0,0.3,0.8,0.3,0.8
				c0,0.6,0,1.2,0,1.8c0.2-0.3,0.4-0.6,0.6-0.9c0.1,0.2,0.3,0.4,0.4,0.5c0.3,0.1,0.7,0.3,1,0.4c-0.1-0.3-0.3-0.7-0.4-1
				c0.1-0.2,0.2-0.5,0.3-0.7c0.2-0.1,0.4-0.3,0.6-0.4c0.3-0.2,0.7-0.5,1-0.7c0.2,0.2,0.5,0.3,0.7,0.5c0.3,0.2,0.7,0.3,1,0.5
				c-0.1-0.4-0.2-0.8-0.2-1.2c0.1-0.2,0.2-0.5,0.3-0.7c0.2,0.4,0.4,0.8,0.5,1.2c0.3,0.1,0.6,0.3,0.8,0.4c0.3,0.3,0.7,0.6,1,1
				c0.3,0,0.6,0.1,0.9,0.1c0.2,0.3,0.4,0.7,0.7,1c-0.2,0.3-0.3,0.5-0.5,0.8c0,0-0.3,0.3-0.7,0.5c-0.2,0.3-0.4,0.5-0.6,0.8
				c-0.1,0.4-0.2,0.8-0.3,1.2c0.3,0.3,0.6,0.6,0.9,0.9c0.2,0.4,0.4,0.9,0.6,1.3c0.3,0.3,0.7,0.6,1,0.9c0.2,0.5,0.3,0.9,0.5,1.4
				c0.3,0.3,0.5,0.6,0.8,0.9c0.2-0.4,0.5-0.8,0.7-1.2c0.3-0.5,0.5-1.1,0.8-1.6c0.1-0.6,0.2-1.2,0.3-1.9c0.2-0.2,0.5-0.5,0.7-0.7
				c0.1-0.5,0.2-0.9,0.3-1.4c0.3-0.4,0.7-0.9,1-1.3c0.2,0.3,0.3,0.6,0.5,0.8c0,0.6,0,1.3,0,1.9c0.1,0.4,0.2,0.7,0.2,1.1
				c-0.1,0.3-0.3,0.5-0.4,0.8c0,0.3-0.1,0.5-0.1,0.8c0.2-0.1,0.5-0.2,0.7-0.3c0.1,0.2,0.2,0.5,0.2,0.7c0.1,0.3,0.3,0.6,0.4,0.9
				c-0.1,0.4-0.3,0.7-0.4,1.1c0.1,0.5,0.2,0.9,0.3,1.4c0,0-0.1,1.8-0.2,2.1c-0.1,0.3-0.2,0.8-0.2,0.8c0.3,0.4,0.6,0.8,0.9,1.2
				c0.2,0.1,0.5,0.2,0.7,0.3c0.2,0.4,0.3,0.8,0.5,1.2c0,0.2,0,0.4-0.1,0.6c0.1,0.4,0.2,0.9,0.3,1.3c-0.1,0.3-0.3,0.7-0.4,1
				c0.3,0.1,0.6,0.3,0.8,0.4c0,0.3,0.1,0.6,0.1,0.9c0,0,0.4,1.3,0.4,1.6c0,0.3,0.4,1.9,0.4,1.9c0.1,0.4,0.2,0.8,0.3,1.2
				c0,0-0.6,0.9-0.7,1.1C88.1,179.2,88.4,180.2,88.4,180.2z M91.5,157.4c-0.4-0.5-0.9-1-1.3-1.4c-0.4-0.6-0.8-1.3-1.2-1.9
				c-0.2-0.6-0.4-1.3-0.5-1.9c-0.3-0.3-0.5-0.7-0.8-1c-0.4-0.1-0.8-0.2-1.2-0.3c-0.1-0.1-0.3-0.2-0.4-0.3c-0.2,0.3-0.4,0.6-0.6,0.9
				c-0.8-0.3-1.6-0.7-2.4-1c-0.2-0.6-0.5-1.1-0.7-1.7c-0.2-0.2-0.3-0.4-0.5-0.6c-0.5-0.1-0.9-0.2-1.4-0.3c0.3-0.2,0.6-0.4,0.9-0.7
				c0.2-0.2,0.3-0.3,0.5-0.5c-0.1-0.6-0.2-1.3-0.3-1.9c0.1-0.5,0.1-1,0.2-1.5c-0.3-0.2-0.7-0.3-1-0.5c-0.2-0.5-0.3-0.9-0.5-1.4
				c-0.4-0.2-0.9-0.5-1.3-0.7c-0.1-0.4-0.1-0.7-0.2-1.1c-0.2-0.2-0.4-0.4-0.6-0.6c0,0-0.5,1.1-0.6,0.7c-0.1-0.4-0.4-1.7-0.4-1.7
				c0.1-0.4,1.4-0.1,1.4-0.1c-0.2-0.3-0.3-0.6-0.5-0.9c-0.2-0.2-0.3-0.3-0.5-0.5c0-0.2-0.1-0.5-0.1-0.7c-0.3-0.2-0.6-0.4-0.9-0.6
				c0.2-0.2,0.4-0.3,0.6-0.5c0.5,0,0.9,0,1.4,0c0.3,0.3,0.6,0.6,0.9,0.9c0.2,0.3,0.4,0.7,0.6,1c-0.1,0.5-0.3,1-0.4,1.5
				c0.2,0.5,0.4,1,0.7,1.5c0.4-0.1,0.8-0.1,1.1-0.2c0.4-0.3,0.8-0.6,1.2-0.8c0.4,0.4,0.7,0.8,1.1,1.1c0.6,0.6,1.2,1.3,1.8,1.9
				c0.3,0.4,0.6,0.8,1,1.2c0.5,0.6,1,1.2,1.5,1.8c0.4,0.4,0.8,0.9,1.1,1.3c0,0.4,0,0.9,0.1,1.3c0.1,0.4,0.3,0.7,0.4,1.1
				c0.3,0.2,0.6,0.4,0.9,0.7c0.2,0.3,0.3,0.6,0.5,0.9c-0.1,0.3-0.3,0.6-0.4,0.9c-0.3-0.1-0.6-0.1-0.9-0.2c0,0.4,0,0.9-0.1,1.3
				c0.3,0.5,0.7,1,1,1.4c-0.1,0.3-0.2,0.6-0.4,0.9c0.3,0.3,0.7,0.6,1,1c0.1,0.3,0.2,0.7,0.4,1C91.6,156.6,91.6,157,91.5,157.4z
				 M95.3,150.2c-0.1,0.2-0.1,0.4-0.2,0.7c-0.5,0-1,0-1.5,0c-0.5-0.4-1-0.9-1.5-1.3c0,0,1.4,0.2,1.6,0.4c0.3,0.1,0.7-0.4,0.7-0.4
				c0.4-0.1,0.8-0.2,1.2-0.3c-0.1-0.5-0.2-0.9-0.3-1.4c0-0.3-0.1-0.6-0.1-1c0-0.3-0.1-0.6-0.1-1c0.3,0.5,0.7,1,1,1.5
				c0.2,0.5,0.5,1.1,0.7,1.6c-0.4,0.1-0.7,0.2-1.1,0.3C95.5,149.5,95.4,149.8,95.3,150.2z M98.7,84.2c-0.2,0.1-0.4,0.3-0.6,0.4
				c-0.2-0.1-0.3-0.2-0.5-0.3c-0.2,0.3-0.5,0.6-0.7,0.9c-0.2-0.1-0.3-0.2-0.5-0.3c0-0.3,0-0.7-0.1-1c0.5-0.3,0.9-0.5,1.4-0.8
				c0.3,0,0.7,0.1,1,0.1C98.7,83.6,98.7,83.9,98.7,84.2z M98.9,153.4c0,0,0.3,0.9,0.1,1.3c-0.1,0.4-0.9-0.5-0.9-0.5
				c-0.2-0.4-0.4-0.7-0.5-1.1c0,0,0-1.6,0.2-1.9c0.1,0.4,0.3,0.8,0.4,1.2C98.5,152.7,98.7,153.1,98.9,153.4z M97.8,207.2
				c0,0-0.5-0.2-1-0.3c-0.5-0.1,0.4-0.4,0.5-0.6c0.2,0.2,0.4,0.4,0.5,0.5C97.9,207,97.8,207.1,97.8,207.2z M104.2,203.1
				c-0.1,0.2-0.5,1-0.5,1c-0.5,0.2-1,0.3-1.5,0.5c0,0.4,0.2,0.8,0.2,0.8c-0.3-0.1-0.6-0.2-1-0.3c-0.2,0.1-0.5,0.1-0.7,0.2
				c-0.4,0.3-0.7,0.5-1.1,0.8c-0.3,0.2-0.6,0.4-0.9,0.6c-0.3-0.1-0.5-0.2-0.8-0.3c-0.2-0.2-0.5-0.4-0.7-0.7c-0.4-0.1-1-0.6-1-0.6
				c0-0.1,0.1-0.2,0.1-0.3c0.2-0.2,0.4-0.4,0.6-0.6c0.4,0,0.8,0,1.2,0c0.4-0.1,0.9-0.2,1.3-0.3c0.5-0.2,1-0.3,1.6-0.5
				c0.3-0.3,0.5-0.7,0.8-1c0.2-0.3,0.4-0.6,0.7-0.8c0.1,0.1,0.3,0.2,0.4,0.4c0,0.2,0,0.4,0,0.6c0.3,0,0.7,0,1,0.1
				C104,202.7,104.4,202.9,104.2,203.1z M101.6,160c0,0.3,0,0.6,0.1,0.9c-0.3-0.2-0.6-0.4-0.9-0.5c0-0.3,0-0.7,0-1
				C101,159.6,101.3,159.8,101.6,160z M100.8,156.2c0.2,0.3,0.4,0.7,0.7,1c-0.2,0.3-0.3,0.5-0.5,0.8
				C101,157.5,100.9,156.9,100.8,156.2z M102.6,177.9c0.3,0.3,0.6,0.6,0.9,0.9c0.1,0.3,0.1,0.6,0.2,0.9c-0.4-0.2-0.8-0.4-1.2-0.6
				c-0.3-0.5-0.5-1-0.8-1.5c-0.2-0.5-0.3-1-0.5-1.5c0.1-0.3,0.2-0.6,0.2-0.9c0.1,0.2,0.2,0.4,0.4,0.6c0.1,0.3,0.2,0.6,0.3,0.9
				C102.2,177.1,102.4,177.5,102.6,177.9z M102.5,161.6c0.1,0.3,0.2,0.7,0.3,1c-0.1,0.1-0.2,0.3-0.4,0.4
				C102.1,162.3,102.5,161.6,102.5,161.6z M108.2,202.1c-0.2-0.1-0.5-0.2-0.7-0.3c-0.2,0.2-0.4,0.4-0.6,0.6c-0.3,0.4-0.6,0.7-0.9,1
				c-0.3,0.1-0.5,0.1-0.8,0.2c0,0,0.8-0.2-0.6-0.9c-1.4-0.7,1.4,0.8,0.4-0.6c-1-1.4-0.1-0.7-0.1-0.7c-0.2-0.3-0.4-0.6-0.6-0.8
				c0.1-0.1,0.3-0.2,0.4-0.2c0.2-0.2,0.3-0.4,0.5-0.5c0.1-0.2,0.1-0.4,0.2-0.7c-0.1-0.3-0.2-0.6-0.2-0.9c-0.1-0.4-0.2-0.8-0.3-1.2
				c-0.2-0.3-0.4-0.7-0.6-1c0.1-0.2,0.2-0.5,0.3-0.7c0,0,0,0,0,0.3c0,0.3,0.3,0.6,0.3,0.6c0.2,0.1,0.4,0.3,0.7,0.4
				c0,0,0.4,0.7,0.3,1.2c-0.1,0.2-0.1,0.4-0.2,0.6c0.2,0.3,0.3,0.6,0.5,0.8c0.2-0.1,0.4-0.3,0.6-0.4c0,0,0,0.5-0.1,0.7
				c-0.1,0.2,0.5,1,0.5,1c0.3,0,0.6,0,0.8,0.1c0.3,0.1,0.5,0.2,0.8,0.4C108.7,201.4,108.5,201.7,108.2,202.1z M106.2,171.5
				c0.2,0.1,0.4,0.2,0.5,0.3c0.1,0.3,0.1,0.5,0.2,0.8c-0.1,0.3-0.2,0.5-0.3,0.8c0,0.3,0,0.5,0,0.8c-0.2-0.4-0.5-0.7-0.7-1.1
				c0.1-0.2,0.3-0.5,0.4-0.7C106.3,172.1,106.2,171.8,106.2,171.5z M109.8,78.6c-0.4,0.2-0.7,0.4-1.1,0.6c0,0-1.3,2.4-1.4,2.7
				c-0.1,0.4-0.9,1.8-0.9,1.8c-0.5,0.3-1,0.6-1.5,0.9c-0.6-0.1-1.2-0.1-1.7-0.2c-0.4-0.1-0.8-0.2-1.2-0.2c-0.3-0.1-0.5-0.2-0.8-0.3
				c-0.3,0.4-0.6,0.9-0.9,1.3c-0.4,0-0.8,0-1.2-0.1c0.2-0.6,0.3-1.2,0.5-1.7c-0.1-0.2-0.1-0.4-0.2-0.6c-0.6-0.2-1.2-0.3-1.8-0.5
				c-0.5,0-0.9,0.1-1.3,0.1c-0.2-0.3-0.4-0.6-0.7-1c0.5-0.2,1.1-0.4,1.6-0.6c0.6,0.1,1.1,0.2,1.7,0.3c0.4,0,0.8,0,1.2,0.1
				c0.4,0.2,0.7,0.5,1.1,0.7c0.3-0.2,0.6-0.3,0.9-0.5c0.4-0.7,0.8-1.4,1.1-2.1c0.4-0.1,0.7-0.2,1.1-0.3c0.1,0,0.3-0.1,0.4-0.1
				c-0.4,0.4-0.8,0.9-1.2,1.3c0.4,0,0.7-0.1,1.1-0.1c0.6-0.5,1.2-1.1,1.8-1.6c0.4-0.2,0.8-0.4,1.2-0.6c0.3-0.3,0.5-0.7,0.8-1
				c-0.1-0.3-0.1-0.5-0.2-0.8c0.2-0.2,0.5-0.4,0.7-0.5c0.2-0.2,0.4-0.5,0.6-0.7c0.2,0.1,0.3,0.1,0.5,0.2c0.2,0.4,0.4,0.9,0.6,1.3
				C110.4,77.1,110.1,77.8,109.8,78.6z M113.9,74.2c-0.4-0.1-0.9-0.2-1.3-0.3c0-0.4,0-0.7,0-1.1c-0.3-0.1-0.6-0.2-0.9-0.4
				c-0.2,0.2-0.4,0.5-0.6,0.7c0.1,0.2,0.2,0.4,0.3,0.7c-0.5,0.1-1.1,0.1-1.6,0.2c0-0.3,0-0.7-0.1-1c0.2-0.5,0.4-1,0.7-1.5
				c0.4-0.2,0.8-0.4,1.2-0.6c0.4,0.3,0.8,0.7,1.1,1c0.2-0.5,0.3-1.1,0.5-1.6c0.2-0.1,0.4-0.3,0.7-0.4c0-0.4,0-0.8,0.1-1.2
				c0.1-0.4,0.2-0.7,0.4-1.1c0.2,0.1,0.4,0.3,0.7,0.4c0.1,0.7,0.2,1.4,0.3,2.1c0,0.4-0.1,0.9-0.1,1.3c0.4-0.1,0.9-0.1,1.3-0.2
				c0.1,0.3,0.2,0.5,0.3,0.8c0,0.4,0.1,0.8,0.1,1.1c-0.4,0-0.9,0-1.3,0c-0.3,0-0.6,0-0.9,0.1C114.3,73.6,114.1,73.9,113.9,74.2z
				 M115.6,179.2c-0.3-0.3-0.5-0.5-0.8-0.8c0.1-0.1,0.2-0.3,0.3-0.4c0.3,0.1,0.6,0.2,1,0.3c0,0.3,0,0.5,0.1,0.8
				C116,179.1,115.8,179.2,115.6,179.2z M117.8,177.6c-0.3,0-0.5,0-0.8,0c-0.1-0.1-0.3-0.2-0.4-0.3c0.3-0.2,0.6-0.4,0.9-0.6
				c0.2,0.1,0.4,0.2,0.6,0.2C117.9,177.1,117.9,177.3,117.8,177.6z M121.6,72.2c-0.2,0-0.5,0-0.7,0c-0.4,0.2-0.7,0.3-1.1,0.5
				c-0.2,0-0.4-0.1-0.6-0.1c0.1-0.5,0.1-0.5,0.1-0.5c0.3-0.2,0.6-0.4,0.9-0.6c0.3-0.2,0.7-0.5,1-0.7c0.2,0.1,0.5,0.2,0.7,0.3
				c0.2,0,0.4,0,0.6,0c0,0.3,0,0.5,0,0.8C122.3,72,121.9,72.1,121.6,72.2z"/>
			<path style="fill:#0CA2B9;" d="M148.2,28.3c0.3-0.1,0.6-0.1,1-0.2c-1.6-0.4-3.3-0.8-4.9-1.1c0.4,0.2,0.8,0.4,1.2,0.6
				C146.3,27.8,147.2,28.1,148.2,28.3z"/>
			<path style="fill:#0CA2B9;" d="M222.5,145c-0.1,0.4-0.2,0.7-0.4,1.1c-0.2,0.6-0.4,1.1-0.7,1.7c-0.5,0.7-1,1.3-1.6,2
				c-0.3,0.3-0.5,0.7-0.8,1c-0.5,0.4-1.1,0.8-1.6,1.2c0.1-0.9,0.3-1.8,0.4-2.7c0.2-0.6,0.4-1.1,0.7-1.7c0.4-0.1,0.9-0.2,1.3-0.2
				c-0.2-0.2-0.4-0.3-0.7-0.5c0.2-0.3,0.5-0.6,0.7-0.9c0.2-0.2,0.5-0.3,0.7-0.5c0.1-0.6,0.2-1.2,0.4-1.8c-0.2,0-0.5,0.1-0.7,0.1
				c-0.1-0.2-0.2-0.4-0.3-0.7c0-0.5,0-1,0-1.4c-0.1-0.2-0.2-0.3-0.3-0.5c-0.2-0.2-0.5-0.4-0.7-0.6c-0.2-0.2-0.4-0.4-0.5-0.6
				c-0.1-0.2-0.2-0.5-0.4-0.8c-0.3,0-0.5,0-0.8,0.1c0,0.4,0,0.7,0,1.1c-0.2,0.4-0.5,0.7-0.7,1.1c-0.1-0.2-0.3-0.4-0.4-0.6
				c0.1-0.4,0.3-0.8,0.4-1.2c-0.2,0-0.3,0-0.5,0c-0.2,0.2-0.4,0.3-0.6,0.5c-0.2-0.2-0.4-0.5-0.7-0.7c0.1-0.2,0.2-0.5,0.4-0.7
				c-0.1-0.5-0.1-1-0.2-1.4c-0.4-0.1-0.7-0.3-1.1-0.4c-0.4-0.1-0.8-0.1-1.3-0.2c-0.5,0-1,0.1-1.5,0.1c-0.1-0.2-0.2-0.3-0.3-0.5
				c-0.4,0.3-0.8,0.6-1.1,0.8c-0.4-0.1-0.7-0.3-1.1-0.4c-0.2,0.4-0.5,0.7-0.7,1.1c0,0.3,0,0.6,0,0.9c-0.3,0.3-0.5,0.7-0.8,1
				c-0.4,0.2-0.7,0.3-1.1,0.5c-0.3,0.2-0.5,0.3-0.8,0.5c-0.2,0.4-0.4,0.8-0.6,1.2c-0.4,0.3-0.8,0.6-1.1,0.8
				c-0.1,0.4-0.2,0.7-0.3,1.1c-0.5,0.3-0.9,0.5-1.4,0.8c0,0.4-0.1,0.8-0.1,1.2c-0.1,0.4-0.1,0.7-0.2,1.1c0,0-1.1,1.2-1,1.5
				c0.1,0.3,0.3,0.7,0.3,0.7c0,0.3,0.1,0.5,0.1,0.8c0,0,0.4,1,0.2,1.3c-0.3,0.3-0.3,0.3-0.3,0.3c0.6,0,1.1,0,1.7,0
				c0.3,0.2,0.6,0.4,0.9,0.6c0,0.2,0,0.5,0,0.7c0.4-0.2,0.9-0.4,1.3-0.6c0.6-0.5,1.3-1,1.9-1.5c0,0,0.4-0.5,1.7,0.3
				c1.4,0.9,0.7-1.1,1-0.1c0.3,1.1,0.4,1,0.4,1c-0.4,0.4-0.8,0.9-1.2,1.3c-0.4,0.2-0.7,0.3-1.1,0.5c-0.2,0.3-0.5,0.6-0.7,0.9
				c-0.5,0.3-1,0.6-1.4,0.9c-0.1-0.3-1-0.1-1-0.1c-0.2,0.3-0.3,0.6-0.5,0.9c-0.4,0.3-0.8,0.6-1.2,0.9c0,0-1.1,0.3-0.9,0.5
				c0.3,0.3,1.4,1.2,1.4,1.2c0.4,0.1,0.7,0.2,1.1,0.4c0.1,0.2,0.1,0.5,0.2,0.7c0.3,0.2,0.5,0.4,0.8,0.6c-0.2,0.3-0.4,0.7-0.6,1
				c0,0.3,0,0.5,0,0.7c-0.5,0.5-1,1-1.4,1.5c-0.6,0.4-1.1,0.8-1.7,1.3c-0.5,0.5-1,1-1.4,1.5c-0.2,0.7-0.4,1.3-0.6,2
				c-0.1,0.4-0.3,0.7-0.4,1.1c0.2,0.1,0.5,0.2,0.7,0.3c0.2,0.3,0.5,0.6,0.7,0.8c0.4-0.2,0.7-0.4,1.1-0.6c0.2,0.4,0.4,0.7,0.6,1.1
				c-0.1,0.3-0.3,0.5-0.4,0.8c0,0.4,0,0.8,0,1.2c-0.2,0.5-0.5,1-0.7,1.5c0.6-0.6,1.2-1.2,1.8-1.7c0.2-0.1,0.4-0.1,0.7-0.2
				c0.4-0.3,0.8-0.7,1.2-1c0.4,0.1,0.8,0.2,1.2,0.3c0.1,0.1,0.3,0.3,0.4,0.4c0.6-0.1,1.2-0.2,1.7-0.3c0.5,0,1,0,1.5-0.1
				c-0.2,0.3-0.3,0.7-0.5,1c-0.3,0.1-0.6,0.1-0.9,0.2c-0.2,0.2-0.4,0.5-0.6,0.7c-0.3,0.1-0.6,0.3-1,0.4c-0.3,0.5-0.6,1-1,1.6
				c0.3,0,0.6,0,0.9,0c0.3-0.4,0.6-0.8,0.8-1.2c0.3-0.3,0.6-0.6,0.9-0.9c0.3,0.2,0.7,0.3,1,0.5c0.1-0.3,0.2-0.6,0.3-0.9
				c0.2,0.2,0.4,0.4,0.6,0.6c-0.2,0.4-0.4,0.7-0.6,1.1c0,0.2,0,0.5,0.1,0.7c-0.2,0.2-0.4,0.4-0.6,0.5c0.4,0.1,0.8,0.1,1.2,0.2
				c0,0.1,0,0.1,0,0.2c2.4-4,4.6-8.2,6.5-12.6c2.8-6.5,4.8-13.1,6.2-19.8C222.8,144.8,222.7,144.9,222.5,145z"/>
			<path style="fill:#0CA2B9;" d="M115.7,66.6L115.7,66.6C115.7,66.6,115.7,66.6,115.7,66.6z"/>
			<path style="fill:#0CA2B9;stroke:#0CA2B9;stroke-width:2;stroke-miterlimit:10;" d="M34.1,85.6C34,87.4,34,89.2,33.9,91
				c-0.1,0.4-0.1,0.8-0.2,1.3c0.1,1.3,0.2,2.6,0.3,4c-0.1,0.1-0.2,0.3-0.3,0.4c0.1,0.8,0.3,1.6,0.4,2.4c0.2,0.1,0.4,0.1,0.6,0.2
				c0.1-0.2,0.3-0.5,0.4-0.7c0.3-0.4,0.7-0.9,1-1.3c0.2,0,0.3,0.1,0.5,0.1c0.1-0.4,0.1-0.8,0.2-1.2c0.3-0.6,0.6-1.2,1-1.8
				c0.1-0.7,0.3-1.3,0.5-2c0.2-0.5,0.4-1,0.6-1.4c0.1-0.4,0.1-0.7,0.2-1.1c0.2-0.1,0.4-0.2,0.6-0.3c0.3-0.1,0.7-0.2,1-0.3
				c0.3-0.1,0.5-0.2,0.8-0.3c0.1-0.2,0.3-0.5,0.4-0.7c0.3,0,0.6,0,1,0c0.7-0.5,1.3-1,2-1.5c0.2-0.2,0.3-0.4,0.5-0.6
				c0.2,0.1,0.4,0.2,0.6,0.3c0.4-0.3,0.8-0.6,1.2-0.8c0.2-0.4,0.4-0.8,0.6-1.1c0.3-0.1,0.7-0.1,1-0.2c0,0.2,0,0.4,0,0.7
				c0.5-0.1,0.9-0.2,1.4-0.3c0.1,0.1,0.1,0.2,0.2,0.4c0.2-0.3,0.4-0.6,0.6-0.8c0,0,0.4-1.1,0.4-0.9c0,0.2,0.5,0.9,0.5,0.9
				c-0.1,0.8-0.2,1.5-0.3,2.3c0,0.6,0,1.3,0,1.9c0.3,0,0.6,0.1,0.9,0.1c-0.1,0.7-0.2,1.4-0.3,2c-0.1,0.3-0.2,0.5-0.3,0.8
				c0,0.1,0.1,0.3,0.1,0.4c-0.1,0.4-0.2,0.7-0.3,1.1c-0.2,0.3-0.4,0.7-0.6,1c-0.1,0.2-0.1,0.4-0.2,0.6c0.1,0.2,0.2,0.5,0.4,0.7
				c0.2,0,0.5,0.1,0.7,0.1c0.3-0.2,0.7-0.4,1-0.6c0,0,0.4-0.9,0.4-0.7c0,0.2,0.6,1.4,0.6,1.4c-0.1,0.4-0.2,0.8-0.2,1.1
				c-0.1,0.9-0.2,1.7-0.3,2.6c0.1,0.3,0.1,0.5,0.2,0.8c-0.1,0.5-0.2,1-0.3,1.6c-0.1,0.2-0.2,0.3-0.3,0.5c0,0.5,0,1.1,0,1.6
				c-0.1,0.2-0.2,0.5-0.4,0.7c-0.1,0.1-0.2,0.3-0.3,0.4c0,0.1,0.1,0.3,0.1,0.4c-0.1,0.2-0.2,0.4-0.3,0.5c-0.2,0.3-0.4,0.6-0.7,1
				c0.1,0.5,0.2,1.1,0.3,1.6c0.2,0.5,0.4,1.1,0.5,1.6c-0.1,0.7-0.2,1.5-0.3,2.2c-0.1,0.4-0.1,0.9-0.2,1.3c0,0.5,0,1,0,1.4
				c0,0.3,0.1,0.6,0.1,0.9c0,0.3-0.1,0.6-0.1,0.8c0.4,0.8,0.7,1.7,1.1,2.5c0,0,0.4-0.4,0.6-0.3c0.1,0.1,0.5,0.4,0.5,0.4
				c-0.1-0.8-0.1-1.5-0.2-2.3c0,0,0.7-2.2,0.7-2.4c0-0.2-0.3-2.1-0.3-2.1c-0.2-0.7-0.4-1.3-0.6-2c-0.2-0.5-0.4-0.9-0.6-1.4
				c0-0.4,0-0.8,0-1.2c-0.1-0.5-0.1-0.9-0.2-1.4c0.3-0.4,0.5-0.9,0.8-1.3c0.4-1.1,0.9-2.2,1.3-3.3c0.1-0.2,0.3-0.5,0.4-0.7
				c0.2,0.1,0.3,0.3,0.5,0.4c-0.1,0.4-0.1,0.7-0.2,1.1c0.2,0.1,0.5,0.2,0.7,0.3c0,0.4,0,0.7,0,1.1c0.1,0.2,0.2,0.4,0.3,0.6
				c0,0.6,0,1.1,0.1,1.7c0.2,0.1,0.3,0.2,0.5,0.3c0,0.2,0,0.3,0,0.5c0.2,0.1,0.3,0.1,0.5,0.2c0,0.3,0,0.7,0,1
				c-0.2,0.2-0.3,0.5-0.5,0.7c0,0.3-0.1,0.6-0.1,0.9c0,0-0.4,0.7-0.3,0.6c0.1-0.1,1.2-0.9,1.2-0.9c0.1,0.1,0.2,0.2,0.2,0.2
				c0.1-0.5,0.1-1,0.2-1.5c0.1,0.3,0.2,0.6,0.3,0.8c0.1,0,0.2,0,0.4,0c-0.1-0.3-0.1-0.5-0.2-0.8c-0.1-0.3-0.1-0.5-0.2-0.8
				c0.2,0.3,0.4,0.6,0.7,0.8c0.4,0,0.9,0,1.3,0c0.5-0.1,1-0.2,1.4-0.4c0.2-0.3,0.5-0.7,0.7-1c0.1-0.3,0.2-0.6,0.3-0.9
				c0.1-0.1,0.2-0.3,0.3-0.4c0,0-0.1-0.9,0-1.1c0.1-0.2,0.2-1.8,0.2-1.8c-0.1-0.6-0.2-1.3-0.2-1.9c0-0.3,0-0.5,0-0.8
				c-0.1-0.2-0.1-0.4-0.2-0.6c0-0.3-0.1-0.6-0.1-0.9c-0.2-0.4-0.4-0.8-0.6-1.2c0-0.2,0-0.5,0.1-0.7c-0.1-0.4-0.2-0.8-0.3-1.2
				c0.1-0.2,0.3-0.5,0.4-0.7c0.1-0.2,0.2-0.5,0.3-0.8c0.2-0.1,0.5-0.1,0.7-0.2c0.4-0.3,0.8-0.7,1.1-1c0.3,0,0.5,0,0.8,0.1
				c0.3-0.2,0.6-0.4,0.9-0.6c0.2,0.1,0.5,0.2,0.7,0.3c0.1,0.1,0.3,0.3,0.4,0.4c-0.3,0.3-0.5,0.6-0.8,0.9c0.1,0.2,0.1,0.4,0.2,0.6
				c0,0.2,0,0.4,0,0.6c0.2,0,0.5,0,0.7,0c0-0.3,0-0.6,0-0.9c0.1-0.1,0.3-0.2,0.4-0.4c0.3-0.1,0.6-0.1,1-0.2c0.2-0.1,0.5-0.2,0.7-0.3
				c0.4,0.1,0.9,0.2,1.3,0.3c0.3-0.2,0.6-0.4,1-0.6c0.1-0.2,0.2-0.4,0.3-0.6c0,0.3,0.1,0.6,0.1,0.8c0.3,0,0.6,0.1,0.8,0.1
				c0.3,0.1,0.6,0.2,0.9,0.3c0.4-0.3,0.8-0.7,1.2-1c0.6-0.3,1.2-0.5,1.7-0.8c0.4-0.1,0.8-0.2,1.2-0.3c0.1-0.3,0.2-0.7,0.4-1
				c0.2,0.1,0.5,0.2,0.7,0.3c0.2-0.7,0.4-1.4,0.6-2.1c0.4,0,0.8-0.1,1.2-0.1c0.4-0.4,0.9-0.9,1.3-1.3c0.2,0,0.3,0,0.5,0.1
				c0.1-0.5,0.2-1,0.3-1.5c0.1,0.1,0.3,0.1,0.4,0.2c0.2-0.4,0.4-0.8,0.7-1.1c-0.4-0.3-0.7-0.6-1.1-0.9c0.4-0.2,0.7-0.4,1.1-0.6
				c0-0.4,0-0.8,0.1-1.2c-0.2-0.2-0.5-0.5-0.7-0.7c-0.1-0.2-0.1-0.3-0.2-0.5c0.2,0.1,0.4,0.2,0.6,0.2c0.1,0.2,0.3,0.3,0.4,0.5
				c0.1-0.3,0.1-0.5,0.2-0.8c-0.2-0.4-0.4-0.7-0.5-1.1c0.1-0.5,0.1-1,0.2-1.5c-0.1,0-0.2-0.1-0.3-0.1c0.1-0.3,0.2-0.5,0.3-0.8
				c0.1-0.6,0.1-1.3,0.2-1.9c0.3-0.2,0.7-0.3,1-0.5c0.1-0.2,0.3-0.4,0.4-0.7c0.4-0.1,0.9-0.2,1.3-0.4c0.4-0.1,0.9-0.2,1.3-0.3
				c0.1,0.1,0.2,0.2,0.3,0.3c0.3-0.3,0.7-0.6,1-0.9c-0.3-0.2-0.6-0.4-0.8-0.6c-0.2,0-0.4,0.1-0.6,0.1c-0.1-0.2-0.1-0.4-0.2-0.6
				c-0.4-0.1-0.8-0.3-1.2-0.4c-0.1,0.1-0.2,0.2-0.4,0.3c-0.3,0.1-0.5,0.2-0.8,0.3c-0.2-0.1-0.5-0.1-0.7-0.2c0.1-0.4,0.3-0.8,0.4-1.2
				c-0.1-0.2-0.3-0.5-0.4-0.7c0.1-0.3,0.2-0.6,0.3-0.9c0.1-0.2,0.2-0.5,0.4-0.7c0.3,0.2,0.7,0.3,1,0.5c0.4-0.3,0.8-0.5,1.2-0.8
				c0.2,0.1,0.4,0.1,0.6,0.2c0.3-0.2,0.6-0.4,0.9-0.6c0.4-0.3,0.8-0.7,1.3-1c0.2,0.3,0.5,0.7,0.7,1c-0.2,0.2-0.4,0.4-0.6,0.6
				c-0.1,0.1-0.2,0.3-0.2,0.4c-0.3,0.1-0.5,0.1-0.8,0.2c0,0.2-0.1,0.5-0.1,0.7c-0.2,0.2-0.3,0.4-0.5,0.6c0,0.2-0.1,0.5-0.1,0.7
				c0.3-0.2,0.6-0.5,0.9-0.7c0.4-0.1,0.9-0.3,1.3-0.4c0.3,0,0.7,0,1,0c0.1,0.2,0.2,0.3,0.4,0.5c0.1-0.1,0.3-0.2,0.4-0.2
				c0.1,0.3,0.2,0.6,0.3,0.8c-0.1,0.4-0.2,0.7-0.3,1.1c-0.2,0-0.5,0.1-0.7,0.1c-0.2,0.2-0.3,0.4-0.5,0.7c0.1,0.1,0.2,0.2,0.2,0.4
				c0,0.3,0,0.5,0,0.8c0.2,0.1,0.3,0.2,0.5,0.3c0.4,0.1,0.8,0.3,1.2,0.4c-0.1,0.4-0.2,0.8-0.4,1.1c-0.2-0.1-0.3-0.2-0.5-0.3
				c0,0.3,0,0.6,0,0.9c-0.1,0.1-0.3,0.2-0.4,0.2c0,0.4,0,0.7,0,1.1c-0.2,0.1-0.4,0.2-0.6,0.3c-0.1,0.3-0.3,0.6-0.4,0.9
				c-0.2,0.2-0.4,0.4-0.6,0.6c0,0.2,0,0.5,0.1,0.7c0.4-0.1,0.7-0.2,1.1-0.2c0.1-0.2,0.1-0.4,0.2-0.5c0.3,0.1,0.6,0.2,0.9,0.3
				c0.2-0.1,0.5-0.2,0.7-0.3c0.2,0.1,0.4,0.3,0.6,0.4c0.3-0.4,0.6-0.9,1-1.3c0-0.3,0.1-0.6,0.1-0.9c0.2-0.3,0.3-0.5,0.5-0.8
				c-0.1-0.3-0.2-0.7-0.3-1c-0.1-0.2-0.2-0.4-0.3-0.6c0.1-0.1,0.3-0.3,0.4-0.4c-0.1-0.2-0.1-0.4-0.2-0.6c0-0.2,0.1-0.4,0.1-0.6
				c0.3-0.1-0.3-0.9-0.3-0.9c-0.1-0.1-0.2-0.2-0.4-0.3c0.2-0.1,0.3-0.2,0.5-0.3c0.1-0.2,0.2-0.5,0.2-0.7c0.3,0,0.6,0,0.9,0
				c0.4-0.3,0.7-0.7,1.1-1c0.2,0.1,0.4,0.2,0.6,0.4c0.2-0.2,0.5-0.3,0.7-0.5c0.2-0.5,0.4-1,0.5-1.5c0.6-0.3,1.3-0.6,1.9-0.9
				c0.3-0.1,0.7-0.1,1-0.2c0.3-0.2,0.5-0.4,0.8-0.6c-0.1,0.2-0.1,0.5-0.2,0.7c0.2,0,0.4-0.1,0.7-0.1c-0.1,0.3-0.2,0.6-0.4,0.9
				c0.2,0.2,0.4,0.3,0.6,0.5c0,0.2,0,0.4,0,0.5c0.2,0,0.4,0,0.7,0c0.6-0.5,1.2-1,1.9-1.5c0.1,0.1,0.2,0.2,0.3,0.2
				c0.2-0.3,0.4-0.6,0.6-0.8c0.5-0.3,0.9-0.5,1.4-0.8c0.5-0.3,1.1-0.7,1.6-1c0.5-0.4,1.1-0.7,1.6-1.1c0.3-0.3,0.5-0.6,0.8-0.8
				c0.7-0.5,1.4-1.1,2.1-1.6c0.6-0.8,1.2-1.6,1.9-2.4c0.2-0.5,0.3-0.9,0.5-1.4c0.5-0.4,1-0.9,1.5-1.3c0.2-0.5,0.5-1,0.7-1.6
				c0.2,0.1,0.4,0.3,0.7,0.4c0.2,0.3-0.5,2-0.5,2c0,0,0.7-1.2-1.7,3.6c-2.4,4.8-0.2-0.3-1.3,2.3c-1,2.3-1,2.5-1,2.5
				c0.3,0.1,0.7,0.2,1,0.3c0,0.6,0,1.2-0.1,1.7c0.2-0.4,0.4-0.8,0.7-1.2c0-0.6,0-1.3,0-1.9c0.4-0.7,0.8-1.5,1.1-2.2
				c0.3-0.4,0.6-0.7,0.9-1.1c0.2,0.3,0.5,0.5,0.7,0.8c0.2-0.3,0.4-0.7,0.6-1c-0.2-0.3-0.4-0.6-0.6-0.9c0.4-0.7,0.7-1.4,1.1-2.1
				c0.1-0.5,0.3-0.9,0.4-1.4c0.3-0.5,0.6-1,0.8-1.5c0.2-0.5,0.4-1.1,0.6-1.6c0.1-0.4,0.1-0.7,0.2-1.1c-0.3,0.2-0.7,0.4-1,0.6
				c-0.2,0.5-0.3,1-0.5,1.5c0,0-1.1,0.2-1.4,0.4c0-0.1,0.1-0.2,0.1-0.3c-0.3-0.3-0.5-0.6-0.8-0.9c-0.1-0.3-0.1-0.7-0.2-1
				c-0.4-0.3-0.8-0.6-1.2-0.9c-0.2,0.2-0.5,0.4-0.7,0.6c-0.2-0.1-0.3-0.1-0.5-0.2c-0.3,0.1-0.7,0.2-1,0.3c0.3-0.3,0.7-0.6,1-0.9
				c-0.2-0.1-0.3-0.2-0.5-0.3c-0.3,0.2-0.5,0.4-0.8,0.6c0.3-0.6,0.6-1.3,0.8-1.9c-0.4-0.1-0.8-0.2-1.2-0.4c-0.1-0.2-0.3-0.3-0.4-0.5
				c0.7-0.3,1.3-0.6,2-0.9c0.5-0.1,1-0.1,1.5-0.2c0.7-0.6,1.4-1.2,2.1-1.8c0.9-0.2,1.8-0.5,2.7-0.7c0.4-0.4,0.7-0.8,1.1-1.2
				c0.6-0.2,1.1-0.5,1.7-0.7c0.2-0.2,0.4-0.4,0.7-0.6c0.5-0.1,1-0.2,1.4-0.3c0.2,0.2,0.4,0.4,0.6,0.6c0.8,0.3,1.6,0.6,2.4,0.9
				c-0.2,0.2-0.3,0.3-0.5,0.5c0.3,0.2,0.5,0.3,0.8,0.5c0.2-0.2,0.4-0.4,0.6-0.5c0.1,0.2,0.2,0.5,0.3,0.7c0.4,0.1,0.8,0.1,1.2,0.2
				c0.2,0.3,0.3,0.6,0.5,0.9c0.2-0.3,0.4-0.6,0.5-0.9c0.2-0.1,0.4-0.1,0.7-0.2c0.4,0.2,0.7,0.5,1.1,0.7c0.3,0,0.6-0.1,1-0.1
				c0,0.4,0,0.7,0.1,1.1c-0.3-0.1-0.7-0.1-1-0.2c-0.1,0.4-0.3,0.8-0.4,1.2c0.4,0.1,0.8,0.2,1.2,0.2c0.2-0.2,0.3-0.4,0.5-0.6
				c0.2,0.2,0.4,0.4,0.6,0.6c0.3-0.2,0.5-0.3,0.8-0.5c0.1,0.2,0.3,0.4,0.4,0.6c0.4-0.1,0.8-0.3,1.3-0.4c-0.3-0.2-0.6-0.5-1-0.7
				c0.2-0.3,0.5-0.5,0.7-0.8c0.5-0.2,1-0.4,1.4-0.5c0.5-0.3,1-0.6,1.5-0.9c0.3-0.1,0.7-0.2,1-0.4c0.8,0.1,1.6,0.2,2.4,0.3
				c0.1,0.3,0.3,0.6,0.4,0.9c0.4-0.1,0.7-0.1,1.1-0.2c-0.1,0.2-0.2,0.4-0.3,0.6c-0.3,0.2-0.7,0.3-1,0.5c0.2,0.1,0.4,0.2,0.6,0.3
				c-0.3,0.2-0.5,0.4-0.8,0.5c0.3,0.1,0.6,0.1,1,0.2c0.3-0.2,0.7-0.4,1-0.6c0.4-0.2,0.9-0.3,1.3-0.5c0.3,0.1,0.6,0.2,0.9,0.3
				c0.2,0,0.5,0.1,0.7,0.1c-0.1-0.2-0.1-0.5-0.2-0.7c0.2-0.2,0.5-0.4,0.7-0.7c0.4,0,0.8,0,1.2-0.1c0.3,0.4,0.5,0.8,0.8,1.2
				c-0.3-0.2-0.6-0.4-0.8-0.6c-0.3,0.1-0.6,0.1-0.8,0.2c-0.1,0.3-0.3,0.6-0.4,0.9c-0.2,0.2-0.4,0.4-0.6,0.6
				c-0.1,0.2-0.2,0.5-0.2,0.7c-0.2,0.1-0.5,0.2-0.7,0.2c-0.3-0.2-0.6-0.4-0.8-0.6c-0.3,0-0.6,0-1,0.1c-0.2,0.2-0.3,0.3-0.5,0.5
				c-0.7,0.4-1.3,0.7-2,1.1c-0.5,0.2-1.1,0.4-1.6,0.5c-0.2,0.3-0.4,0.5-0.6,0.8c-0.5,0.1-1,0.2-1.5,0.3c-0.3,0-0.5,0.1-0.8,0.1
				c-0.2-0.1-0.4-0.1-0.6-0.2c-0.2,0-0.4,0.1-0.6,0.1c0.1,0.2,0.1,0.3,0.2,0.5c-0.2,0.3-0.5,0.6-0.7,1c-0.3,0.1-0.6,0.1-0.9,0.2
				c-0.4,0.3-0.7,0.6-1.1,0.9c-0.4,0.5-0.7,1.1-1.1,1.6c0,0.6,0,1.2,0,1.8c-0.3,0.5-0.5,1-0.8,1.5c-0.1,0.7-0.3,1.4-0.4,2.1
				c-0.1,0.4-0.2,0.7-0.3,1.1c-0.2,0.2-0.4,0.4-0.6,0.6c0,0.2,0.1,0.4,0.1,0.6c-0.1,0.2-0.1,0.5-0.2,0.7c0.2-0.2,0.5-0.4,0.7-0.5
				c0.2,0.1,0.3,0.1,0.5,0.2c0.4-0.2,0.8-0.4,1.2-0.6c0.3-0.5,0.7-1,1-1.6c0.2,0,0.5,0,0.7-0.1c0.3,0.1,0.6,0.3,0.9,0.4
				c0.2-0.6,0.4-1.2,0.6-1.8c0.7-0.3,1.5-0.5,2.2-0.8c0.1,0.2,0.2,0.5,0.4,0.7c0.3-0.2,0.5-0.3,0.8-0.5c0-0.4,0-0.8,0-1.1
				c0.1-0.2,0.2-0.4,0.3-0.6c0.1-0.2,0.2-0.4,0.2-0.6c0.5-0.1,1-0.1,1.5-0.2c0,0.2,0,0.4,0,0.6c0.2-0.1,0.4-0.1,0.6-0.2
				c0.1-0.2,0.2-0.5,0.3-0.7c-0.2-0.1-0.4-0.3-0.6-0.4c0-0.3,0-0.6,0.1-0.9c0.2-0.2,0.5-0.4,0.7-0.6c0.1,0,0.3-0.1,0.4-0.1
				c0.2-0.3,0.5-0.5,0.7-0.8c-0.2-0.2-0.3-0.4-0.5-0.6c-0.1,0.1-0.3,0.1-0.4,0.2c0-0.3,0.1-0.5,0.1-0.8c0.4-0.3,0.8-0.6,1.2-0.8
				c0.5-0.3,1-0.6,1.5-0.9c0.3-0.3,0.6-0.5,0.9-0.8c0.3,0.2,0.5,0.5,0.8,0.7c0.3-0.1,0.5-0.1,0.8-0.2c0,0,1.7-0.6,1.6-0.5
				c-0.1,0.1-1.4,1.4-1.4,1.4c0.4,0,0.7,0,1.1,0c0.4-0.3,0.9-0.6,1.3-0.9c0.4,0.1,0.9,0.2,1.3,0.3c0.2,0.2,0.5,0.4,0.7,0.7
				c0,0.3,0,0.5-0.1,0.8c0.2,0.2,0.3,0.4,0.5,0.6c0.5-0.3,0.9-0.5,1.4-0.8c0.4-0.2,0.9-0.4,1.3-0.6c0.3,0.1,0.5,0.2,0.8,0.2
				c0.1-0.3,0.2-0.6,0.3-0.9c0.2,0.2,0.3,0.4,0.5,0.6c0.1,0,0.3-0.1,0.4-0.1c0.1-0.2,0.2-0.5,0.3-0.7c0.1,0.2,0.1,0.4,0.2,0.6
				c1.1-0.1,2.2-0.2,3.2-0.3c0.3,0,0.6,0,0.9,0c0,0.1,0,0.3-0.1,0.4c0.3,0,0.7,0,1,0c0.1,0.2,0.2,0.5,0.3,0.7
				c0.4-0.1,0.8-0.1,1.2-0.2c0.1-0.3,0.2-0.5,0.4-0.8c-0.1-0.1-0.3-0.2-0.4-0.2c0.1-0.2,0.2-0.5,0.3-0.7c-0.1-0.6-0.1-1.1-0.2-1.7
				c-0.2,0-0.3,0-0.5,0c-0.2-0.1-0.3-0.3-0.5-0.4c0.3-0.1,0.6-0.1,0.8-0.2c0-0.1-0.1-0.2-0.1-0.3c-0.2,0-0.4,0-0.6,0
				c-0.2-0.2-0.4-0.4-0.6-0.6c0.6,0.2,1.1,0.3,1.7,0.5c0.1,0.2,0.2,0.4,0.2,0.5c0.4,0.1,0.8,0.3,1.2,0.4c0.1,0.1,0.2,0.2,0.2,0.3
				c0.3-0.1,0.6-0.2,0.9-0.2c0.4-0.3,0.8-0.6,1.2-0.9c-0.2-0.2-0.4-0.5-0.5-0.7c0.2-0.1,0.4-0.3,0.6-0.4c0.1-0.2,0.2-0.3,0.3-0.5
				c0.2,0.1,0.5,0.1,0.7,0.2c-0.1,0.1-0.3,0.3-0.4,0.4c0,0.1,0,0.2,0,0.3c-0.1,0.1-0.3,0.2-0.4,0.3c0,0.2,0,0.4,0.1,0.6
				c0.2,0.2,0.4,0.5,0.6,0.7c0.4-0.1,0.8-0.2,1.2-0.2c0.3,0.2,0.6,0.3,0.8,0.5c0.1,0.3,0.2,0.6,0.3,0.9c-0.2,0.2-0.4,0.3-0.5,0.5
				c0.1,0.2,0.2,0.4,0.3,0.6c0.3,0.1,0.5,0.2,0.8,0.3c0.2,0.2,0.4,0.5,0.6,0.7c0,0.2-0.1,0.5-0.1,0.7c0.4,0,0.8,0,1.1,0
				c0,0.3,0.1,0.6,0.1,0.9c0.1-0.1,0.3-0.2,0.4-0.3c0.1,0.1,0.3,0.2,0.4,0.3c0-0.4,0-0.9,0-1.3c0.2,0,0.4,0,0.7,0.1
				c0.1-0.2,0.2-0.4,0.3-0.5c-0.2-0.2-0.3-0.4-0.5-0.6c0.2-0.1,0.3-0.1,0.5-0.2c0.3,0.3,0.5,0.5,0.8,0.8c0.3,0,0.6,0.1,0.8,0.1
				c0.3-0.2,0.7-0.4,1-0.6c-0.5-0.5-1-1.1-1.5-1.6c0.1-0.3,0.2-0.6,0.2-0.9c0,0-0.6-0.7-0.8-0.7c-0.2-0.1-1.7-0.6-1.7-0.6
				c-0.1,0.2-0.2,0.5-0.3,0.7c-0.2-0.1-0.4-0.2-0.7-0.3c0.2-0.3,0.5-0.6,0.7-1c-0.1-0.1-0.3-0.2-0.4-0.3c0.1-0.2,0.1-0.4,0.2-0.5
				c-0.2-0.1-0.3-0.1-0.5-0.2c0-0.1,0-0.3,0-0.4c-0.3-0.4-0.6-0.8-0.9-1.3c-0.3-0.3-0.6-0.6-0.9-1c0.1-0.1,0.3-0.1,0.4-0.2
				c0-0.2,0-0.3-0.1-0.5c-0.2,0-0.4,0-0.6,0c-0.1-0.2-0.2-0.4-0.3-0.5c-0.2-0.2-0.4-0.4-0.6-0.5c0.1-0.2,0.1-0.4,0.2-0.6
				c-0.1-0.4-0.2-0.8-0.4-1.2c-0.3-0.1-0.6-0.1-0.9-0.2c-0.2-0.2-0.3-0.5-0.5-0.7c-0.2,0.1-0.3,0.2-0.5,0.2
				c-0.2-0.3-0.4-0.5-0.6-0.8c0.1-0.1,0.1-0.2,0.2-0.3c-0.4-0.2-0.7-0.4-1.1-0.5c0-0.2-0.1-0.3-0.1-0.5c-0.6-0.3-1.3-0.5-1.9-0.8
				c-0.2,0-0.4-0.1-0.6-0.1c-0.1-0.1-0.2-0.3-0.2-0.4c-0.2,0-0.4-0.1-0.6-0.1c-0.3-0.1-0.5-0.2-0.8-0.3c-0.1-0.2-0.2-0.3-0.4-0.5
				c-0.2,0.3-0.3,0.5-0.5,0.8c0,0.2,0.1,0.5,0.1,0.7c0,0.2-0.1,0.4-0.1,0.5c-0.2,0.1-0.4,0.1-0.6,0.2c-0.2,0.1-0.4,0.1-0.7,0.2
				c-0.1,0.1-0.2,0.2-0.2,0.3c-0.6,0-1.1-0.1-1.7-0.1c0.2-0.5,0.5-1,0.7-1.4c-0.1-0.1-0.2-0.2-0.4-0.4c0.1-0.3,0.3-0.5,0.4-0.8
				c-0.5,0.1-1,0.2-1.4,0.3c-0.2,0-0.5-0.1-0.7-0.1c0.1-0.2,0.1-0.3,0.2-0.5c-0.2-0.1-0.4-0.3-0.7-0.4c-0.3-0.1-0.7-0.2-1-0.2
				c-0.1,0.1-0.2,0.2-0.3,0.3c0-0.2-0.1-0.4-0.1-0.7c-0.7-0.3-1.4-0.6-2-0.8c-0.3,0-0.5,0-0.8,0.1c-0.3,0-0.6,0-0.8-0.1
				c-0.2,0.2-0.4,0.4-0.6,0.6c-0.1,0.2-0.3,0.4-0.4,0.6c0-0.2-0.1-0.5-0.1-0.7c0.1-0.4,0.2-0.7,0.3-1.1c-0.1-0.2-0.2-0.3-0.3-0.4
				c0.1-0.1,0.2-0.3,0.3-0.4c0.1-0.2,0.2-0.4,0.3-0.6c-0.2-0.2-0.4-0.5-0.6-0.7c-0.2-0.3-0.3-0.6-0.5-0.8c-0.2-0.1-0.5-0.2-0.7-0.4
				c0,0,0,0,0,0c0,0-0.6,0.2-0.8,0.2c-0.2,0-0.9-0.3-0.9-0.3c-0.2-0.1-0.3-0.3-0.5-0.4c-0.3-0.1-0.7-0.2-1-0.2
				c-0.3,0.1-0.5,0.1-0.8,0.2c-0.2-0.2-0.3-0.4-0.5-0.7c-0.1,0-0.1,0-0.2,0c-0.3,0.1-0.6,0.1-1,0.2c-0.9-0.2-1.8-0.5-2.7-0.7
				c-0.4-0.2-0.8-0.4-1.2-0.6c-44-8.7-89.6,13.4-109.4,55.3c0,0.2,0,0.4,0,0.6C34.6,83.7,34.3,84.7,34.1,85.6z"/>
			<path style="fill:#0CA2B9;stroke:#0CA2B9;stroke-width:2;stroke-miterlimit:10;" d="M209,176.7c0.2-0.2,0.4-0.4,0.6-0.5
				c0-0.2,0-0.5-0.1-0.7c0.2-0.4,0.4-0.7,0.6-1.1c-0.2-0.2-0.4-0.4-0.6-0.6c-0.1,0.3-0.2,0.6-0.3,0.9c-0.3-0.2-0.7-0.3-1-0.5
				c-0.3,0.3-0.6,0.6-0.9,0.9c-0.3,0.4-0.6,0.8-0.8,1.2c-0.3,0-0.6,0-0.9,0c0.3-0.5,0.6-1,1-1.6c0.3-0.1,0.6-0.3,1-0.4
				c0.2-0.2,0.4-0.5,0.6-0.7c0.3-0.1,0.6-0.1,0.9-0.2c0.2-0.3,0.3-0.7,0.5-1c-0.5,0-1,0-1.5,0.1c-0.6,0.1-1.2,0.2-1.7,0.3
				c-0.1-0.1-0.3-0.3-0.4-0.4c-0.4-0.1-0.8-0.2-1.2-0.3c-0.4,0.3-0.8,0.7-1.2,1c-0.2,0.1-0.4,0.1-0.7,0.2c-0.6,0.6-1.2,1.2-1.8,1.7
				c0.2-0.5,0.5-1,0.7-1.5c0-0.4,0-0.8,0-1.2c0.1-0.3,0.3-0.5,0.4-0.8c-0.2-0.4-0.4-0.7-0.6-1.1c-0.4,0.2-0.7,0.4-1.1,0.6
				c-0.2-0.3-0.4-0.5-0.7-0.8c-0.2-0.1-0.5-0.2-0.7-0.3c0.1-0.4,0.3-0.7,0.4-1.1c0.2-0.7,0.4-1.3,0.6-2c0.5-0.5,1-1,1.4-1.5
				c0.6-0.4,1.1-0.8,1.7-1.3c0.5-0.5,1-1,1.4-1.5c0-0.2,0-0.5,0-0.7c0.2-0.3,0.4-0.7,0.6-1c-0.3-0.2-0.5-0.4-0.8-0.6
				c-0.1-0.2-0.1-0.5-0.2-0.7c-0.4-0.1-0.7-0.2-1.1-0.4c0,0-1.1-1-1.4-1.2c-0.3-0.3,0.9-0.5,0.9-0.5c0.4-0.3,0.8-0.6,1.2-0.9
				c0.2-0.3,0.3-0.6,0.5-0.9c0,0,0.8-0.2,1,0.1c0.5-0.3,1-0.6,1.4-0.9c0.2-0.3,0.5-0.6,0.7-0.9c0.4-0.2,0.7-0.3,1.1-0.5
				c0.4-0.4,0.8-0.9,1.2-1.3c0,0-0.1,0.1-0.4-1c-0.3-1.1,0.4,1-1,0.1c-1.4-0.9-1.7-0.3-1.7-0.3c-0.6,0.5-1.3,1-1.9,1.5
				c-0.4,0.2-0.9,0.4-1.3,0.6c0-0.2,0-0.5,0-0.7c-0.3-0.2-0.6-0.4-0.9-0.6c-0.6,0-1.1,0-1.7,0c0,0,0,0,0.3-0.3
				c0.3-0.3-0.2-1.3-0.2-1.3c0-0.3-0.1-0.5-0.1-0.8c0,0-0.2-0.4-0.3-0.7c-0.1-0.3,1-1.5,1-1.5c0.1-0.4,0.1-0.7,0.2-1.1
				c0-0.4,0.1-0.8,0.1-1.2c0.5-0.3,0.9-0.5,1.4-0.8c0.1-0.4,0.2-0.7,0.3-1.1c0.4-0.3,0.8-0.6,1.1-0.8c0.2-0.4,0.4-0.8,0.6-1.2
				c0.3-0.2,0.5-0.3,0.8-0.5c0.4-0.2,0.7-0.3,1.1-0.5c0.3-0.3,0.5-0.7,0.8-1c0-0.3,0-0.6,0-0.9c0.2-0.4,0.5-0.7,0.7-1.1
				c0.4,0.1,0.7,0.3,1.1,0.4c0.4-0.3,0.8-0.6,1.1-0.8c0.1,0.2,0.2,0.4,0.3,0.5c0.5,0,1-0.1,1.5-0.1c0.4,0.1,0.8,0.1,1.3,0.2
				c0.4,0.1,0.7,0.3,1.1,0.4c0.1,0.5,0.1,1,0.2,1.4c-0.1,0.2-0.2,0.5-0.4,0.7c0.2,0.2,0.4,0.5,0.7,0.7c0.2-0.2,0.4-0.3,0.6-0.5
				c0.2,0,0.3,0,0.5,0c-0.1,0.4-0.3,0.8-0.4,1.2c0.1,0.2,0.3,0.4,0.4,0.6c0.2-0.4,0.5-0.7,0.7-1.1c0-0.4,0-0.7,0-1.1
				c0.3,0,0.5,0,0.8-0.1c0.1,0.3,0.2,0.5,0.4,0.8c0.2,0.2,0.4,0.4,0.5,0.6c0.2,0.2,0.5,0.4,0.7,0.6c0.1,0.2,0.2,0.3,0.3,0.5
				c0,0.5,0,1,0,1.4c0.1,0.2,0.2,0.4,0.3,0.7c0.2,0,0.5-0.1,0.7-0.1c-0.1,0.6-0.2,1.2-0.4,1.8c-0.2,0.2-0.5,0.3-0.7,0.5
				c-0.2,0.3-0.5,0.6-0.7,0.9c0.2,0.2,0.4,0.3,0.7,0.5c-0.4,0.1-0.9,0.2-1.3,0.2c-0.2,0.6-0.4,1.1-0.7,1.7c-0.1,0.9-0.3,1.8-0.4,2.7
				c0.5-0.4,1.1-0.8,1.6-1.2c0.3-0.3,0.5-0.7,0.8-1c0.5-0.7,1-1.3,1.6-2c0.2-0.6,0.4-1.1,0.7-1.7c0.1-0.4,0.2-0.7,0.4-1.1
				c0.1-0.1,0.3-0.2,0.4-0.3c4.4-21.8,1.2-44.1-8.2-63.4c-0.2,0.3-0.4,0.5-0.6,0.8c-0.3-0.1-0.6-0.3-0.9-0.4c-0.3,0.5-0.6,1-0.9,1.5
				c0.3,0.2,0.6,0.5,0.9,0.7c0,0.4,0,0.7,0.1,1.1c0.2,0.1,0.4,0.1,0.6,0.2c0,0.5-0.1,1.1-0.1,1.6c0.1,0.4,0.2,0.8,0.4,1.2
				c0.2,0.4,0.5,0.8,0.7,1.2c0.2-0.4,0.3-0.7,0.5-1.1c0-0.4-0.1-0.9-0.1-1.3c-0.1-0.4-0.2-0.9-0.3-1.3c-0.1-0.5-0.2-1-0.3-1.5
				c-0.1-0.4-0.3-0.7-0.4-1.1c0.2,0.1,0.5,0.2,0.7,0.3c0.2,0.7,0.3,1.4,0.5,2.1c0.2,0.7,0.4,1.5,0.7,2.2c-0.3,0.5-0.5,1-0.8,1.5
				c-0.2,0.6-0.4,1.2-0.6,1.9c0-0.3,0-0.6-0.1-0.9c-0.2-0.3-0.4-0.6-0.6-0.9c-0.3-0.4-0.5-0.7-0.8-1.1c-0.2,0.7-0.5,1.3-0.7,2
				c0,0-0.9,1-1.1,1.4c-0.2,0.4-2.8,3.1-2.8,3.1c-0.6,0.6-1.3,1.1-1.9,1.7c-0.3,0.5-0.6,1-0.9,1.5c-0.4,0.7-0.9,1.3-1.3,2
				c-0.4,0.3-0.9,0.6-1.3,0.9c-0.2,0.7-0.3,1.4-0.5,2.1c-0.3,0.5-0.6,1-0.9,1.5c0.3,0.2,0.5,0.4,0.8,0.6c-0.3,0.2-0.6,0.4-0.8,0.6
				c0,0.5,0,0.9-0.1,1.4c-0.3,0-0.5,0.1-0.8,0.1c-0.1,0.8-0.2,1.6-0.3,2.4c-0.3,0.6-0.5,1.3-0.8,1.9c0.2,0.2,0.4,0.5,0.5,0.7
				c0.1,0.6,0.2,1.2,0.3,1.8c0,0.4,0,0.7,0,1.1c-0.2,0.4-0.4,0.9-0.5,1.3c-0.2,0.6-0.4,1.2-0.6,1.8c-0.2,0.2-0.4,0.5-0.6,0.7
				c-0.1,0.5-0.3,1.1-0.4,1.6c0.1,0.4,0.2,0.8,0.3,1.2c-0.2,0.3-0.3,0.5-0.5,0.8c0,0.3-0.1,0.5-0.1,0.8c-0.3,0.4-0.7,0.8-1,1.2
				c-0.2-0.2-0.5-0.3-0.7-0.5c-0.1,0.6-0.1,1.1-0.2,1.7c0.1,0.3,0.2,0.7,0.3,1c-0.1,0.5-0.1,1-0.2,1.5c-0.4,0.8-0.8,1.5-1.2,2.3
				c0,0.7-0.1,1.5-0.1,2.2c-0.2,0.6-0.4,1.2-0.6,1.8c0.5-0.4,1-0.9,1.4-1.3c0-0.6,0-1.2,0-1.8c0.4-0.5,0.8-1,1.2-1.5
				c0-0.5,0-1.1,0-1.6c0.3-0.6,0.7-1.3,1-1.9c0.2-0.7,0.5-1.4,0.7-2.1c0.3-0.4,0.6-0.8,0.9-1.2c0-0.4-0.1-0.8-0.1-1.2
				c0.2-0.8,0.4-1.5,0.6-2.3c0.3-0.2,0.6-0.5,0.9-0.7c0.2,0.4,0.4,0.9,0.6,1.3c0,0,0,0,0.3,0.5c-0.3,0.3-0.7,0.7-1,1
				c-0.2,0.8-0.4,1.6-0.5,2.4c-0.2,0.6-0.4,1.1-0.7,1.7c0.1,0.5,0.1,1,0.2,1.4c-0.1,0.3-0.2,0.6-0.4,0.9c0,0.5-0.1,0.9-0.1,1.4
				c0,0.3,0,0.5,0,0.8c-0.3,0.2-0.7,0.3-1,0.5c0.1,0.3,0.2,0.7,0.3,1c-0.1,0.9-0.2,1.8-0.3,2.8c-0.6,1.7-1.1,3.5-1.7,5.2
				c-0.4,0.3-0.8,0.5-1.2,0.8c-0.3,0.3-0.6,0.6-0.9,0.9c-0.1,0.8-0.1,1.6-0.2,2.3c-0.1,0.8-0.1,1.6-0.2,2.3c0.1,0.4,0.3,0.9,0.4,1.3
				c0.1,0.7,0.1,1.3,0.2,2c0.3,0.3,0.7,0.7,1,1c0.1,0.7,0.1,1.3,0.2,2c0.3,0.3,0.6,0.6,0.9,0.9c0.3,0.2,0.6,0.3,0.9,0.5
				c0.3,0.1,0.6,0.2,0.9,0.3c0.1,0.5,0.1,0.9,0.2,1.4c-0.1,0.9-0.2,1.9-0.4,2.8c0,0.5,0,1.1,0,1.6c0.2,0.3,0.4,0.6,0.6,0.9
				c0.2,0.3,0.4,0.6,0.6,1c0.2,0.1,0.3,0.2,0.5,0.3c-0.2,0.2-0.4,0.4-0.6,0.6c-0.3,0.9-0.7,1.9-1,2.8c-0.3,0.4-0.7,0.8-1,1.2
				c0.1,0.2,0.1,0.5,0.2,0.7c0.3-0.2,0.6-0.3,0.9-0.5c-0.1,0.2-0.2,0.5-0.3,0.7c-0.1,0.4-0.1,0.8-0.2,1.2c-0.2,0.4-0.5,0.8-0.7,1.2
				c0.2,0.3,0.4,0.5,0.6,0.8c-0.1,0.4-0.1,0.8-0.2,1.2c0,0.4,0,0.9,0,1.3c0.3,0,0.6-0.1,0.9-0.1c0.3-0.3,0.7-0.7,1-1
				c0.4-0.1,0.8-0.3,1.1-0.4c-0.2,0.3-0.3,0.6-0.5,0.9c0.1,0.2,0.2,0.5,0.2,0.7c-0.3,0.2-0.5,0.4-0.8,0.6c0,0.4,0,0.7,0.1,1.1
				c-0.7,0.7-1.4,1.5-2,2.2c-0.6,0.3-1.2,0.6-1.8,0.9c-0.1,0.4-0.2,0.7-0.2,1.1c-0.4,0-0.8,0-1.2,0c-0.4,0.1-0.9,0.2-1.3,0.4
				c-0.2,0.2-0.4,0.4-0.7,0.7c-0.4,0-0.8,0-1.3-0.1c-0.3,0.5-0.7,1-1,1.5c-0.4,0-0.8,0-1.3-0.1c-0.3,0.3-0.5,0.7-0.8,1
				c-0.4,0.2-0.8,0.3-1.2,0.5c0,0.2,0,0.4,0,0.6c0.2,0.1,0.4,0.3,0.6,0.4c-0.2,0.2-0.4,0.3-0.6,0.5c-0.3,0-0.6,0-0.8,0
				c-0.5,0.2-1,0.3-1.5,0.5c-0.1,0.3-0.2,0.7-0.3,1c-0.3,0.2-0.6,0.4-0.9,0.7c0,0.6,0.1,1.2,0.1,1.9c-0.2,0.8-0.5,1.6-0.7,2.4
				c-0.5,0.9-1.1,1.8-1.6,2.7c-0.3,0.3-0.6,0.6-0.9,0.9c-0.1,0.4-0.2,0.8-0.4,1.2c-0.4,0.4-0.7,0.7-1.1,1.1
				c-0.2,0.4-0.3,0.9-0.5,1.3c0,0.6,0,1.1,0,1.6c0,0,0.3,2.1,0.1,2.4c-0.1,0.3-0.1,0.5-0.2,0.8c-1.1,1-2.2,1.9-3.3,2.8
				c-0.6,0.4-1.2,0.8-1.8,1.2c-1.2,0.7-2.4,1.4-3.5,2.1c-0.8,0.5-1.6,1-2.3,1.4c-0.1,0.2-0.2,0.4-0.3,0.6c-0.4,0.2-0.8,0.3-1.1,0.5
				c-0.8,0.5-1.5,1.1-2.3,1.6c-0.6,0.2-1.2,0.4-1.8,0.6c-0.3,0.2-0.5,0.3-0.8,0.5c-0.3,0.2-0.7,0.5-1,0.7c-0.4,0-0.7-0.1-1.1-0.1
				c-0.2,0.2-0.4,0.4-0.7,0.7c-0.4,0.4-0.8,0.7-1.1,1c-0.5,0.1-1,0.2-1.5,0.4c0,0-0.5,0.2-0.6,0.4c-0.1,0.1-0.1,0.3-0.1,0.3
				c0.3,0,0.5,0,0.8,0.1c-0.2,0.1-0.3,0.2-0.5,0.2c-0.3,0.1-0.6,0.2-0.9,0.3c-0.2,0.1-0.4,0.3-0.6,0.4c-0.3,0.1-0.6,0.2-0.9,0.4
				c0,0-1.1,0.6-1.3,0.6c-0.2,0.1-0.6,0-0.6,0s0.1-0.3,0-0.4c0-0.2-0.5,0-0.5,0s-0.6,0.2-0.7,0.3c-0.2,0.1,0.5,0.7,0.5,0.6
				c-0.2,0.1-0.4,0.1-0.7,0.2c-0.3,0.2-0.6,0.3-0.9,0.5c-0.1,0-0.2,0-0.3,0.1c0,0-0.8,0.2-1,0.3c-0.2,0.1,0.2,0.2,0.2,0.2
				c-0.1,0.1-0.2,0.2-0.3,0.4c-0.1,0-0.2,0-0.3,0c-0.2,0.1-0.3,0.1-0.5,0.2c0,0.1,0,0.2,0,0.2c0,0-0.3,0.2-0.7,0.2
				c0,0.1-0.1,0.3-0.1,0.4c0.1,0.1,0.3,0.2,0.4,0.3c0,0-0.1,0-0.1,0.1c26-5.7,49.3-21.7,63.8-45.5c0-0.1,0-0.1,0-0.2
				C209.8,176.8,209.4,176.7,209,176.7z"/>
			<path style="fill:#0CA2B9;" d="M190.5,50.8c0.3-0.1,0.5-0.3,0.8-0.4c-0.3-0.3-0.6-0.5-0.9-0.8c-0.1,0-0.2,0-0.2,0
				C190.3,49.9,190.4,50.4,190.5,50.8z"/>
			<path style="fill:#0CA2B9;" d="M145.8,222.7c0.2,0,0.3-0.1,0.5-0.1c-0.2,0-0.4-0.1-0.6-0.1C145.7,222.5,145.7,222.6,145.8,222.7z
				"/>
			<path style="fill:#0CA2B9;" d="M180,57.2c0,0.3,0,0.6,0.1,0.9c0.4,0.1,0.8,0.1,1.1,0.2c-0.1-0.3-0.2-0.7-0.3-1
				c-0.3-0.5-0.5-1-0.8-1.5c-0.4,0-0.8-0.1-1.2-0.1c0,0,0,0-0.3,0.4c0.1,0.2,0.2,0.4,0.3,0.6C179.3,56.9,179.6,57.1,180,57.2z"/>
			<path style="fill:#0CA2B9;" d="M175.7,62.2c0.1-0.4,0.3-0.8,0.4-1.2c0,0-0.7-0.3-1.1-0.4c-0.2,0.1-0.3,0.2-0.5,0.3
				c0,0.3,0,0.6,0.1,1C174.9,62,175.3,62.1,175.7,62.2z"/>
			<path style="fill:#0CA2B9;" d="M116.7,73.2c0-0.4-0.1-0.8-0.1-1.1c-0.1-0.3-0.2-0.5-0.3-0.8c-0.4,0.1-0.9,0.1-1.3,0.2
				c0-0.4,0.1-0.9,0.1-1.3c-0.1-0.7-0.2-1.4-0.3-2.1c-0.2-0.1-0.4-0.3-0.7-0.4c-0.1,0.4-0.2,0.7-0.4,1.1c0,0.4,0,0.8-0.1,1.2
				c-0.2,0.1-0.4,0.3-0.7,0.4c-0.2,0.5-0.3,1.1-0.5,1.6c-0.4-0.3-0.8-0.7-1.1-1c-0.4,0.2-0.8,0.4-1.2,0.6c-0.2,0.5-0.4,1-0.7,1.5
				c0,0.3,0,0.7,0.1,1c0.5-0.1,1.1-0.1,1.6-0.2c-0.1-0.2-0.2-0.4-0.3-0.7c0.2-0.2,0.4-0.5,0.6-0.7c0.3,0.1,0.6,0.2,0.9,0.4
				c0,0.4,0,0.7,0,1.1c0.4,0.1,0.9,0.2,1.3,0.3c0.2-0.3,0.4-0.6,0.6-0.8c0.3,0,0.6,0,0.9-0.1C115.8,73.2,116.3,73.2,116.7,73.2z"/>
			<path style="fill:#0CA2B9;" d="M109.6,74.9c-0.2,0.2-0.4,0.5-0.6,0.7c-0.2,0.2-0.5,0.4-0.7,0.5c0.1,0.2,0.1,0.5,0.2,0.8
				c-0.3,0.3-0.5,0.7-0.8,1c-0.4,0.2-0.8,0.4-1.2,0.6c-0.6,0.5-1.2,1.1-1.8,1.6c-0.4,0-0.7,0.1-1.1,0.1c0.4-0.4,0.8-0.9,1.2-1.3
				c-0.1,0-0.3,0.1-0.4,0.1c-0.4,0.1-0.7,0.2-1.1,0.3c-0.4,0.7-0.8,1.4-1.1,2.1c-0.3,0.2-0.6,0.3-0.9,0.5c-0.4-0.2-0.7-0.5-1.1-0.7
				c-0.4,0-0.8,0-1.2-0.1c-0.6-0.1-1.1-0.2-1.7-0.3c-0.5,0.2-1.1,0.4-1.6,0.6c0.2,0.3,0.4,0.6,0.7,1c0.4,0,0.9-0.1,1.3-0.1
				c0.6,0.2,1.2,0.3,1.8,0.5c0.1,0.2,0.1,0.4,0.2,0.6c-0.2,0.6-0.3,1.2-0.5,1.7c0.4,0,0.8,0,1.2,0.1c0.3-0.4,0.6-0.9,0.9-1.3
				c0.3,0.1,0.5,0.2,0.8,0.3c0.4,0.1,0.8,0.2,1.2,0.2c0.6,0.1,1.1,0.1,1.7,0.2c0.5-0.3,1-0.6,1.5-0.9c0,0,0.7-1.5,0.9-1.8
				c0.1-0.4,1.4-2.7,1.4-2.7c0.4-0.2,0.7-0.4,1.1-0.6c0.3-0.7,0.6-1.4,0.9-2.1c-0.2-0.5-0.4-0.9-0.6-1.3
				C109.9,75,109.7,75,109.6,74.9z"/>
			<path style="fill:#0CA2B9;" d="M96.3,83.9c0,0.3,0,0.7,0.1,1c0.2,0.1,0.3,0.2,0.5,0.3c0.2-0.3,0.5-0.6,0.7-0.9
				c0.2,0.1,0.3,0.2,0.5,0.3c0.2-0.1,0.4-0.3,0.6-0.4c0-0.3,0-0.6,0-1c-0.3,0-0.7-0.1-1-0.1C97.3,83.4,96.8,83.7,96.3,83.9z"/>
			<path style="fill:#0CA2B9;" d="M94.4,86.4c0.1-0.4,0.2-0.8,0.4-1.2c0.3-0.2,0.6-0.4,0.8-0.6c0-0.5,0-1,0-1.5
				c-0.2-0.1-0.4-0.3-0.7-0.4c-0.4,0-0.9,0-1.3,0c-0.1,0.4-0.1,0.9-0.2,1.3c0.1,0.3,0.1,0.6,0.2,0.9c-0.3,0.4-0.5,0.9-0.8,1.3
				c0.3,0.2,0.5,0.5,0.8,0.7C93.9,86.8,94.2,86.6,94.4,86.4z"/>
			<path style="fill:#0CA2B9;" d="M122,71.1c-0.2-0.1-0.5-0.2-0.7-0.3c-0.3,0.2-0.7,0.5-1,0.7c-0.3,0.2-0.6,0.4-0.9,0.6
				c0,0,0,0-0.1,0.5c0.2,0,0.4,0.1,0.6,0.1c0.4-0.2,0.7-0.3,1.1-0.5c0.2,0,0.5,0,0.7,0c0.3-0.1,0.7-0.2,1-0.3c0-0.3,0-0.5,0-0.8
				C122.4,71.1,122.2,71.1,122,71.1z"/>
			<path style="fill:#0CA2B9;" d="M65.7,98.2c0.3,0,0.7-0.1,1-0.1c0.3-0.2,0.5-0.5,0.8-0.7c0.2-0.4,0.5-0.8,0.7-1.2
				c-0.5-0.1-1.4-0.2-1.4-0.2c-0.2-0.1-0.4-0.2-0.6-0.2c-0.3,0-0.6,0-0.9,0c-0.2,0.2-0.3,0.3-0.5,0.5c0.1,0.3,0.2,0.5,0.4,0.8
				C65.3,97.4,65.5,97.8,65.7,98.2z"/>
			<path style="fill:#0CA2B9;" d="M79.9,95.4c0.3-0.3,0.2-1,0.2-1s0.9-1.1,1.1-1.4c0.2-0.3-0.1-1.4-0.1-1.4
				c-0.4,0.2-0.7,0.4-1.1,0.6c-0.4,0.4-0.8,0.8-1.2,1.2c-0.2,0.6-0.4,1.3-0.6,1.9c0.2,0.3,0.4,0.5,0.6,0.8
				C78.8,96.2,79.5,95.7,79.9,95.4z"/>
			<path style="fill:#0CA2B9;" d="M36.7,98.7c-0.3-0.4-0.7,0.4-0.7,0.4c0,0.2-0.1,0.5-0.1,0.7c-0.1,0.2-0.3,0.4-0.4,0.7
				c0,0.6-0.1,1.1-0.1,1.7c0,0,0.2,0.9,0.5,1c0.2,0.1,0.9-0.3,0.9-0.3c0.2-0.4,0.4-0.7,0.5-1.1c-0.1-0.4-0.1-0.9-0.2-1.3
				C36.9,99.8,36.8,99.3,36.7,98.7z"/>
			<path style="fill:#0CA2B9;" d="M53.2,129.2c0,0,0.5-1.5,0.6-1.8c0.1-0.3,0-1.7,0-1.7c-0.2-0.1-0.4-0.3-0.6-0.4
				c0.1-0.4,0.2-0.7,0.4-1.1c-0.2-0.4-0.4-0.8-0.7-1.2c0-0.3,0-0.6-0.1-0.9c0-0.5,0.1-1.1,0.1-1.6c-0.3-0.3-0.5-0.6-0.7-0.9
				c-0.3-0.7-0.6-1.4-0.9-2.1c-0.1-0.8-0.2-1.6-0.3-2.4c-0.3-1.2-0.7-2.4-1-3.6c-0.3-0.4-0.6-0.7-0.9-1.1c-0.2-0.2-0.5-0.4-0.7-0.6
				c-0.2-0.2-0.5-0.3-0.7-0.5c-0.1,0.6-0.3,1.1-0.4,1.7c0.1,0.5,0.2,1,0.4,1.6c0.2,0.5,0.4,1,0.7,1.5c0.2,0.6,0.4,1.2,0.6,1.8
				c0,0.6-0.1,1.1-0.1,1.7c0.2,0.3,0.5,0.7,0.7,1c0,0.9,0,1.8,0,2.6c0.3,1,0.6,1.9,0.8,2.9c0.1,0.9,0.2,1.8,0.2,2.7
				c0.3,0.7,0.7,1.4,1,2.1c0.2,0.1,0.4,0.2,0.6,0.3C52.5,129.2,52.9,129.2,53.2,129.2z"/>
			<path style="fill:#0CA2B9;" d="M57.6,128.1c0.3,0.3,0.6,0.7,0.8,1c0.5,0.1,1,0.1,1.4,0.2c0.2,0.4,0.4,0.8,0.6,1.2
				c0.3,0.1,0.6,0.2,0.8,0.3c0.3,0.3,0.6,0.7,0.8,1c0.5-0.5,1-0.9,1.5-1.4c0.1-0.5,0.1-1,0.2-1.5c0.4-0.5,0.7-0.9,1.1-1.4
				c0.1-0.5,0.2-0.9,0.4-1.4c0.4,0.1,0.7,0.2,1.1,0.3c0-0.7-0.1-1.3-0.1-2c0-0.3,0-0.6,0-0.9c0-0.4,0.1-0.8,0.1-1.2
				c0.2-0.2,0.5-0.4,0.7-0.6c0.2,0,0.5,0,0.7,0c0.1-0.3,0.2-0.7,0.3-1c0.2-0.1,0.5-0.1,0.7-0.2c-0.1-0.5-0.1-0.9-0.2-1.4
				c-0.2-0.3-0.3-0.5-0.5-0.8c-0.2-0.5-0.5-1.1-0.7-1.6c-0.5,0.6-1,1.1-1.4,1.7c0,0-0.8,0.2-0.7,0.6c0.1,0.4,0.1,1.1,0.1,1.1
				c-0.4-0.2-0.9-0.4-1.3-0.6c0,0-1,0.2-1.1,0.5c-0.1,0.3-0.8,1.1-0.8,1.1c-0.4-0.1-0.7-0.2-1-0.3c-0.3,0.1-0.6,0.2-0.9,0.3
				c-0.2,0.4-0.3,0.8-0.5,1.2c-0.2-0.3-0.4-0.7-0.5-1c-0.3-0.1-0.5-0.3-0.8-0.4c-0.3,0.7-0.6,1.3-0.9,2c-0.1,0.9-0.2,1.7-0.4,2.6
				c0.2,0.2,0.5,0.4,0.7,0.6C57.8,126.8,57.7,127.4,57.6,128.1z"/>
			<path style="fill:#0CA2B9;" d="M56.6,134.8c0,0,1.2,1.3,1.4,1.4c0.3,0.1,1.4,0.9,1.5,1.3c0.1,0.4,0.6,0.9,0.6,0.9
				c0-0.6,0.1-1.1,0.1-1.7c-0.1-0.2-0.3-0.5-0.4-0.7c0,0-0.1-0.7-0.4-0.8c-0.3-0.1-0.9-0.3-0.9-0.3c0.1-0.3,0.2-0.7,0.3-1.1
				c0,0-0.3-0.7-0.7-0.6c-0.4,0-1.2-0.6-1.2-0.6s-0.3,0.1-0.7,0.1c-0.4,0-0.8-0.2-0.8-0.2c-0.1-0.3-0.2-0.7-0.3-1
				c-0.1-0.3-0.2-0.7-0.3-1c-0.3-0.1-0.6-0.2-1-0.4c-0.3-0.1-0.6-0.2-1-0.4c-0.1,0.4-0.5,1.2-0.5,1.2c0.4,0.4,0.8,0.8,1.2,1.2
				c0,0-0.5,0.7-0.3,0.7c0.3,0,1.7,0.9,1.7,0.9C55.3,134.2,55.9,134.5,56.6,134.8z"/>
			<path style="fill:#0CA2B9;" d="M71.8,129.6c0.3-0.3,0.5-0.7,0.8-1c-0.3-0.1-0.6-0.1-0.9-0.2c-0.2,0.1-0.5,0.2-0.7,0.3
				c-0.4-0.1-0.8-0.2-1.3-0.3c-0.1-0.3-0.2-0.6-0.4-0.9c-0.4,0-0.9-0.1-1.3-0.1c-0.3,0.1-0.7,0.3-1,0.4c-0.1,0.3-0.2,0.7-0.3,1
				c-0.2,0.2-0.3,0.4-0.5,0.5c0,0.3-0.1,0.6-0.1,0.9c-0.2,0.3-0.4,0.7-0.6,1c-0.2,0.5-0.5,1-0.7,1.4c0.1,0.3,0.2,0.5,0.3,0.8
				c-0.1,0.3-0.1,0.7-0.2,1c-0.1,0.4-0.2,0.7-0.4,1.1c0,0,0.5,0.9,0.8,1c0.3,0.1,0.6-0.2,0.6-0.2c0.1-0.3,0.1-0.5,0.2-0.8
				c0.1-0.5,0.2-1,0.3-1.5c0.2,0.2,0.4,0.4,0.6,0.5c-0.1,0.2-0.2,0.3-0.2,0.5c0,0.5,0,0.9,0.1,1.4c0,0,1.3,0.2,1.5,0.4
				c0.3,0.1,0-0.8,0-0.8c-0.1-0.4-0.3-0.8-0.4-1.2c0.1-0.3,0.2-0.6,0.4-1c-0.2-0.2-0.4-0.4-0.6-0.6c-0.1-0.5-0.2-0.9-0.3-1.4
				c0.2,0.1,0.4,0.2,0.5,0.3c0.2-0.1,0.4-0.1,0.7-0.2c0.4,0,0.8,0,1.1,0c-0.1-0.3-0.2-0.6-0.3-0.9c0,0-1.2-0.2-1.3-0.6
				c0,0-0.2-0.7-0.2-1.1c0-0.4,0-0.5,0.4-0.8c0.4-0.3,0.7,0.6,0.7,0.6c0.3,0.2,0.7,0.3,1,0.5c0.3,0.2,0.6,0.4,0.9,0.6
				C71.4,129.9,71.6,129.8,71.8,129.6z"/>
			<path style="fill:#0CA2B9;" d="M62.5,139.8c-0.3-0.3-0.5-0.5-0.8-0.8c-0.1,0.3-0.2,0.5-0.3,0.8c0,0.2-0.1,0.4-0.1,0.6
				c0,0,1,0.3,1.3,0.3c0.3,0,0.9,0.1,0.9,0.1c0-0.4,0-0.8,0-1.2C63.1,139.7,62.8,139.8,62.5,139.8z"/>
			<path style="fill:#0CA2B9;" d="M66.9,141.9c-0.3-0.2-0.5-0.3-0.8-0.5c-0.5-0.1-1-0.2-1.4-0.3c0.1,0.2,0.2,0.4,0.3,0.7
				c0.2,0.2,0.5,0.3,0.7,0.5C66.1,142.1,66.5,142,66.9,141.9z"/>
			<path style="fill:#0CA2B9;" d="M64.1,143.7c0.1-0.2,0.2-0.4,0.3-0.6c-0.5-0.4-1-0.7-1.4-1.1c0.1,0.3,0.2,0.6,0.3,0.9
				C63.5,143.1,63.8,143.4,64.1,143.7z"/>
			<path style="fill:#0CA2B9;" d="M68,144.8c0.3,0,0.6-0.1,0.9-0.1c0.4-0.1,0.9-0.3,1.3-0.4c0-0.2,0.1-0.4,0.1-0.5
				c-0.3-0.1-0.7-0.3-1-0.4c-0.4,0-0.8,0.1-1.2,0.1c-0.3,0.2-0.6,0.4-0.8,0.6c-0.2,0-0.5,0.1-0.7,0.1c-0.3,0.3-0.6,0.5-0.9,0.8
				c0,0.1-0.1,0.3-0.1,0.4c0.5,0.1,1,0.1,1.6,0.2C67.4,145.2,67.7,145,68,144.8z"/>
			<path style="fill:#0CA2B9;" d="M68.3,115.3c0.5-0.2,1-0.5,1.5-0.7c0.2-0.3,0.3-0.6,0.5-0.8c0.3-0.1,0.6-0.3,0.9-0.4
				c0,0,0.2-0.7,0-1.2c-0.3,0.3-0.6,0.6-0.8,0.9c-0.2,0.3-0.4,0.5-0.7,0.8c-0.3,0.1-0.6,0.2-1,0.3c-0.2,0.2-0.4,0.4-0.6,0.6
				C68.1,114.9,68.2,115.1,68.3,115.3z"/>
			<path style="fill:#0CA2B9;" d="M73.5,110.7c-0.2,0.4-0.3,1-0.3,1c0.2,0,0.5-0.1,0.7-0.1c0.1-0.4,0.2-0.8,0.4-1.2
				c0,0,0.4-0.8,0.3-1.1c0.1,0.1,0.2,0.2,0.3,0.4c0.1,0.4,0.3,0.4,0.3,0.4c0.3-0.1,0.6-0.2,0.9-0.3c0,0.5,0.1,0.9,0.1,1.4
				c0.2,0.1,0.4,0.3,0.6,0.4c0,0,0.5-0.7,0.6-1.2c0.2-0.5-0.2-0.8-0.6-1.1c-0.3-0.2-0.6-0.7-0.6-0.7c-0.4,0-0.7,0-1.1,0
				c0-0.2,0-0.4,0-0.6c0.2-0.5,0.4-0.9,0.6-1.4c0.3-0.2,0.7-0.3,1-0.5c0.1-0.2,0.3-0.3,0.4-0.5c0.2-0.1,0.4-0.3,0.6-0.4
				c-0.1-0.4-0.1-0.8-0.2-1.2c0.1-0.3,0.1-0.7,0.2-1c0,0,0.6-1.1,0.7-1.4c0.1-0.4-0.8,0.3-0.8,0.3c-0.2-0.1-0.4-0.2-0.6-0.3
				c-0.2-0.2-0.3-0.3-0.5-0.5c-0.2,0.3-0.5,0.6-0.7,0.9c-0.1,0.4-0.1,0.8-0.2,1.3c-0.1,0.4-0.1,0.8-0.2,1.3
				c-0.3-0.1-0.5-0.2-0.8-0.3c-0.1,0.4-0.2,0.7-0.4,1.1c-0.2,0.3-0.3,0.6-0.5,0.8c0.2,0.1,0.4,0.2,0.5,0.4c0,0,0.5,0.5,0.1,0.8
				c0,0-0.1,1.3,0.1,1.7c-0.6,0.1-1.2-0.3-1.2-0.3c0.1,0.1,0.2,0.2,0.3,0.3C73.4,109.3,73.7,110.2,73.5,110.7z"/>
			<path style="fill:#0CA2B9;" d="M74.5,113.5c-0.2-0.3-0.3-0.5-0.5-0.8c-0.3,0.4-0.5,0.8-0.8,1.2c0.3,0.2,0.5,0.4,0.8,0.6
				C74.1,114.2,74.3,113.9,74.5,113.5z"/>
			<path style="fill:#0CA2B9;" d="M76.1,116.3c0.3-0.2,0.7-0.3,1-0.5c0.2-0.5,0.3-1,0.5-1.5c-0.1-0.7-0.3-1.5-0.4-2.2
				c-0.3,0.3-0.6,0.8-0.6,0.8c0.1,0.5,0.1,1,0.2,1.5c-0.2,0.1-0.4,0.3-0.6,0.4C76.2,115.3,76.2,115.8,76.1,116.3z"/>
			<path style="fill:#0CA2B9;" d="M73.1,115.2c0.1,0.6,0.7,1.4,0.7,1.4c0.3,0.1,0.5,0.2,0.8,0.2c0.2-0.2,0.4-0.4,0.6-0.6
				c0-0.3,0.1-0.7,0.1-1c-0.1-0.3-0.2-0.6-0.3-1c-0.2,0.3-0.7,0.9-1.1,1C73.5,115.2,73,114.6,73.1,115.2z"/>
			<path style="fill:#0CA2B9;" d="M72.7,118.5c0.1,0.3,0.1,0.5,0.2,0.8c0,0,0.8,0.1,1.2,0.3c-0.3,0.5-0.5,1-0.8,1.5
				c0.2,0.6,0.3,1.1,0.5,1.7c0.3,0,0.6,0,0.9,0c0.2-0.3,0.3-0.6,0.5-0.9c0.1-0.3,0.2-0.7,0.3-1c0,0,1-0.8,1.1-1.2
				c0.1-0.3,0.2-0.9,0.2-1.2c0-0.4-0.4-1.2-0.4-1.2s-0.8,0.7-1.3,0.9c-0.4,0.1-0.9,0.2-1.3,0.3c0-0.3,0-0.6,0.1-0.9
				c-0.4,0.1-0.7,0.3-1.1,0.4c-0.1-0.1-0.3-0.1-0.4-0.2c-0.3,0.3-0.6,0.7-0.9,1c0.1,0.3,0.2,0.6,0.4,1
				C72.2,119.2,72.4,118.9,72.7,118.5z"/>
			<path style="fill:#0CA2B9;" d="M90.3,154.3c0.1-0.3,0.2-0.6,0.4-0.9c-0.3-0.5-0.7-1-1-1.4c0-0.4,0-0.9,0.1-1.3
				c0.3,0.1,0.6,0.1,0.9,0.2c0.1-0.3,0.3-0.6,0.4-0.9c-0.2-0.3-0.3-0.6-0.5-0.9c-0.3-0.2-0.6-0.4-0.9-0.7c-0.1-0.4-0.3-0.7-0.4-1.1
				c0-0.4,0-0.9-0.1-1.3c-0.4-0.4-0.8-0.9-1.1-1.3c-0.5-0.6-1-1.2-1.5-1.8c-0.3-0.4-0.6-0.8-1-1.2c-0.6-0.6-1.2-1.2-1.8-1.9
				c-0.4-0.4-0.7-0.8-1.1-1.1c-0.4,0.3-0.8,0.6-1.2,0.8c-0.4,0.1-0.8,0.1-1.1,0.2c-0.2-0.5-0.4-1-0.7-1.5c0.1-0.5,0.3-1,0.4-1.5
				c-0.2-0.3-0.4-0.7-0.6-1c-0.3-0.3-0.6-0.6-0.9-0.9c-0.5,0-0.9,0-1.4,0c-0.2,0.2-0.4,0.3-0.6,0.5c0.3,0.2,0.6,0.4,0.9,0.6
				c0,0.2,0.1,0.5,0.1,0.7c0.2,0.2,0.3,0.3,0.5,0.5c0.2,0.3,0.3,0.6,0.5,0.9c0,0-1.3-0.4-1.4,0.1c0,0,0.3,1.3,0.4,1.7
				c0.1,0.4,0.6-0.7,0.6-0.7c0.2,0.2,0.4,0.4,0.6,0.6c0.1,0.4,0.1,0.7,0.2,1.1c0.4,0.2,0.9,0.5,1.3,0.7c0.2,0.5,0.3,0.9,0.5,1.4
				c0.3,0.2,0.7,0.3,1,0.5c-0.1,0.5-0.1,1-0.2,1.5c0.1,0.6,0.2,1.3,0.3,1.9c-0.2,0.2-0.3,0.3-0.5,0.5c-0.3,0.2-0.6,0.4-0.9,0.7
				c0.5,0.1,0.9,0.2,1.4,0.3c0.2,0.2,0.3,0.4,0.5,0.6c0.2,0.6,0.5,1.1,0.7,1.7c0.8,0.3,1.6,0.7,2.4,1c0.2-0.3,0.4-0.6,0.6-0.9
				c0.1,0.1,0.3,0.2,0.4,0.3c0.4,0.1,0.8,0.2,1.2,0.3c0.3,0.3,0.5,0.7,0.8,1c0.2,0.7,0.4,1.3,0.5,1.9c0.4,0.6,0.8,1.3,1.2,1.9
				c0.4,0.5,0.9,1,1.3,1.4c0-0.4,0.1-0.8,0.1-1.2c-0.1-0.3-0.2-0.7-0.4-1C91,154.9,90.6,154.6,90.3,154.3z"/>
			<path style="fill:#0CA2B9;" d="M93.7,149.9c-0.3-0.1-1.6-0.4-1.6-0.4c0.5,0.4,1,0.9,1.5,1.3c0.5,0,1,0,1.5,0
				c0.1-0.2,0.1-0.4,0.2-0.7c0.1-0.3,0.2-0.7,0.3-1c-0.4,0.1-0.8,0.2-1.2,0.3C94.4,149.5,94,150.1,93.7,149.9z"/>
			<path style="fill:#0CA2B9;" d="M97.9,151.2c-0.2,0.3-0.3,1.9-0.2,1.9c0.2,0.4,0.4,0.7,0.5,1.1c0,0,0.8,1,0.9,0.5
				c0.1-0.4-0.1-1.3-0.1-1.3c-0.2-0.3-0.4-0.7-0.7-1C98.1,152,98,151.6,97.9,151.2z"/>
			<path style="fill:#0CA2B9;" d="M96,147.3c-0.3-0.5-0.7-1-1-1.5c0,0.3,0.1,0.6,0.1,1c0,0.3,0.1,0.6,0.1,1c0.1,0.5,0.2,0.9,0.3,1.4
				c0.4-0.1,0.7-0.2,1.1-0.3C96.4,148.4,96.2,147.8,96,147.3z"/>
			<path style="fill:#0CA2B9;" d="M88.9,177.8c-0.1-0.4-0.2-0.8-0.3-1.2c0,0-0.3-1.6-0.4-1.9c0-0.3-0.4-1.6-0.4-1.6
				c0-0.3-0.1-0.6-0.1-0.9c-0.3-0.1-0.6-0.3-0.8-0.4c0.1-0.3,0.3-0.7,0.4-1c-0.1-0.4-0.2-0.9-0.3-1.3c0-0.2,0-0.4,0.1-0.6
				c-0.2-0.4-0.3-0.8-0.5-1.2c-0.2-0.1-0.5-0.2-0.7-0.3c-0.3-0.4-0.6-0.8-0.9-1.2c0,0,0.1-0.5,0.2-0.8c0.1-0.3,0.2-2.1,0.2-2.1
				c-0.1-0.5-0.2-0.9-0.3-1.4c0.1-0.4,0.3-0.7,0.4-1.1c-0.1-0.3-0.3-0.6-0.4-0.9c-0.1-0.2-0.2-0.5-0.2-0.7c-0.2,0.1-0.5,0.2-0.7,0.3
				c0-0.3,0.1-0.5,0.1-0.8c0.1-0.2,0.3-0.5,0.4-0.8c-0.1-0.4-0.2-0.7-0.2-1.1c0-0.6,0-1.3,0-1.9c-0.2-0.3-0.3-0.6-0.5-0.8
				c-0.3,0.4-0.7,0.9-1,1.3c-0.1,0.5-0.2,0.9-0.3,1.4c-0.2,0.2-0.5,0.5-0.7,0.7c-0.1,0.6-0.2,1.2-0.3,1.9c-0.3,0.5-0.5,1.1-0.8,1.6
				c-0.2,0.4-0.5,0.8-0.7,1.2c-0.3-0.3-0.5-0.6-0.8-0.9c-0.2-0.5-0.3-0.9-0.5-1.4c-0.3-0.3-0.7-0.6-1-0.9c-0.2-0.4-0.4-0.9-0.6-1.3
				c-0.3-0.3-0.6-0.6-0.9-0.9c0.1-0.4,0.2-0.8,0.3-1.2c0.2-0.3,0.4-0.5,0.6-0.8c0.4-0.1,0.7-0.5,0.7-0.5c0.2-0.3,0.3-0.5,0.5-0.8
				c-0.2-0.3-0.5-0.7-0.7-1c-0.3,0-0.6-0.1-0.9-0.1c-0.3-0.3-0.7-0.6-1-1c-0.3-0.1-0.6-0.3-0.8-0.4c-0.2-0.4-0.4-0.8-0.5-1.2
				c-0.1,0.2-0.2,0.5-0.3,0.7c0.1,0.4,0.2,0.8,0.2,1.2c-0.3-0.2-0.7-0.3-1-0.5c-0.2-0.2-0.5-0.3-0.7-0.5c-0.3,0.2-0.7,0.5-1,0.7
				c-0.2,0.1-0.4,0.3-0.6,0.4c-0.1,0.2-0.2,0.5-0.3,0.7c0.1,0.3,0.3,0.7,0.4,1c-0.3-0.1-0.7-0.3-1-0.4c-0.1-0.2-0.3-0.4-0.4-0.5
				c-0.2,0.3-0.4,0.6-0.6,0.9c0-0.6,0-1.2,0-1.8c0,0,0-0.7-0.3-0.7c-0.3,0-1.2,0-1.2,0c-0.2,0.3-0.3,0.6-0.5,0.9
				c-0.4,0.2-0.7,0.3-1.1,0.5c-0.2,0.1-0.4,0.1-0.5,0.2c0,0.3,0,0.6,0,0.9c-0.2,0.2-0.4,0.3-0.6,0.5c-0.2-0.4-0.4-0.8-0.5-1.2
				c-0.3,0.3-0.5,0.6-0.8,0.9c-0.1,0.4-0.1,0.9-0.2,1.3c-0.5,0.1-0.9,0.1-1.4,0.2c-0.3,0.1-0.7,0.3-1,0.4c-0.4-0.1-0.7-0.3-1.1-0.4
				c-0.3,0.2-0.6,0.3-0.9,0.5c-0.2,0-0.4,0.1-0.6,0.1c-0.3-0.1-0.5-0.3-0.8-0.4c-0.3,0.2-0.6,0.4-0.8,0.6c-0.6,0.1-1.2,0.2-1.8,0.4
				c-0.1,0.4-0.6,1.5-0.6,1.5c0,0,0.1,0.8,0.3,1.2c0.1,0.4,0,1.9,0,1.9c-0.2-0.2-0.5-0.3-0.7-0.5c0,0.4,0.1,0.8,0.1,1.2
				c0.2,0.6,0.4,1.1,0.7,1.7c0,0.1-0.1,0.3-0.1,0.4c0.2,0.3,0.3,0.7,0.5,1c-0.1,0.3-0.1,0.6-0.2,0.9c0,0.3,0,0.6,0,0.9
				c0.1,0.6,0.2,1.1,0.3,1.7c0,0.3-0.1,0.6-0.1,0.9c0,0.4,0,0.9,0,1.3c-0.2,0.2-0.4,0.4-0.6,0.7c0,0-0.5-0.5-0.3-0.2
				c0.1,0.4,0.8,1.9,0.8,1.9c0.2,0.2,0.5,0.4,0.7,0.6c0.5,0,0.9,0,1.4,0.1c0.1-0.2,0.2-0.3,0.3-0.5c0.2,0.3,0.4,0.7,0.6,1
				c0.3-0.2,0.7-0.4,1-0.6c0.3,0.3,0.6,0.5,1,0.8c0.4,0.2,0.8,0.4,1.3,0.6c0.3-0.2,0.5-0.3,0.8-0.5c0.2,0,0.4-0.1,0.6-0.1
				c0.3,0.1,0.6,0.2,0.9,0.3c0.2-0.1,0.5-0.2,0.7-0.3c0.4,0.2,0.8,0.5,1.2,0.7c0.4,0,0.8,0,1.2,0c0.3,0,0.7,0.1,1,0.1
				c0.3,0.3,0.6,0.6,0.9,0.9c0.2-0.1,0.4-0.1,0.7-0.2c0.1,0.3,0.2,0.6,0.2,0.9c0.3,0.1,0.5,0.1,0.8,0.2c0.2,0.2,0.4,0.4,0.6,0.7
				c-0.1,0.3-0.3,0.6-0.4,1c0.3,0.2,0.7,0.3,1,0.5c-0.1,0.3-0.2,0.5-0.3,0.8c0.2,0.2,0.3,0.5,0.5,0.7c0.2,0.1,0.4,0.1,0.6,0.2
				c0.2-0.3,0.4-0.5,0.6-0.8c0.3,0,0.7-0.1,1-0.1c-0.2,0.4-0.3,0.8-0.5,1.2c-0.2,0.3-0.3,0.5-0.5,0.8c-0.1,0.1-0.3,0.2-0.4,0.3
				c0.3,0.2,0.6,0.3,1,0.4c0.1-0.3,0.3-0.6,0.4-0.9c0.1,0.4,0.3,0.8,0.4,1.1c0,0-0.8,0.9-0.5,0.8c0.3-0.1,1,0.3,1,0.3
				c0,0.3,0,0.6,0,0.9c0.1,0.4,0.3,0.8,0.4,1.2c-0.1,0.2-0.1,0.5-0.2,0.7c0.3,0.3,0.6,0.6,0.9,0.9c0.3,0.3,0.7,0.5,1,0.8
				c0,0.3,0,0.6,0.1,0.8c0.2,0.3,0.5,0.5,0.7,0.8c0.3-0.3,0.6-0.6,0.9-0.9c0.3-0.1,0.6-0.2,0.9-0.3c0,0.4,0,0.7,0,1.1
				c0.2,0.3,0.8,1.2,0.8,1.2c0.2-0.2,0.4-0.4,0.7-0.7c0.2-0.2,0.4-0.4,0.6-0.6c0.4,0.2,0.8,0.4,1.2,0.5c0,0,0.3,1.6,1-0.1
				c0.1-0.3,0.2-0.5,0.2-0.6c0.3-1-1.3,0.4-0.4-0.4c0.9-0.9,0.9-0.8,0.9-0.8c0.4-0.6,0.7-1.3,1.1-1.9c0.1-0.3,0.2-0.7,0.3-1
				c0.4-0.1,0.8-0.2,1.2-0.2c0.2-0.4,0.5-0.8,0.7-1.2c0.2-0.6,0.3-1.2,0.5-1.8c0.2-0.3,0.3-0.6,0.5-0.9c0-0.3-0.1-0.6-0.1-0.9
				c0,0-0.3-1-0.2-1.3C88.3,178.6,88.9,177.8,88.9,177.8z"/>
			<path style="fill:#0CA2B9;" d="M83.6,189.6c0,0,0-0.1,0-0.1C83.6,189.8,83.3,190.5,83.6,189.6z"/>
			<path style="fill:#0CA2B9;" d="M83.7,189.4C83.7,189.5,83.7,189.5,83.7,189.4C83.7,189.4,83.7,189.4,83.7,189.4z"/>
			<path style="fill:#0CA2B9;" d="M73.1,136.8c0.3,0.3,0.6,0.5,0.9,0.8c0.2,0.3,0.4,0.5,0.6,0.8c0,0,1.2,0.2,1.6,0.1
				c0.3-0.1-0.9-1.2-0.9-1.2c-0.3-0.3-0.7-0.7-1-1c-0.3,0-0.7-0.1-1-0.1C73.2,136.4,73.2,136.6,73.1,136.8z"/>
			<path style="fill:#0CA2B9;" d="M75,129c0,0-0.4,0.9-0.4,1.2c0,0.4-0.5,1.4-0.5,1.4c0.5,0,1,0.1,1.6,0.1c0-0.3,0-0.7,0-1
				c0.1-0.5,0.2-1,0.2-1.6C75.6,129.1,75.3,129.1,75,129z"/>
			<path style="fill:#0CA2B9;" d="M100.8,156.2c0.1,0.6,0.1,1.2,0.2,1.8c0.2-0.3,0.3-0.5,0.5-0.8C101.3,156.9,101,156.6,100.8,156.2
				z"/>
			<path style="fill:#0CA2B9;" d="M100.8,160.4c0.3,0.2,0.6,0.4,0.9,0.5c0-0.3,0-0.6-0.1-0.9c-0.3-0.2-0.6-0.4-0.9-0.6
				C100.7,159.7,100.7,160,100.8,160.4z"/>
			<path style="fill:#0CA2B9;" d="M102.5,161.6c0,0-0.3,0.7,0,1.4c0.1-0.1,0.2-0.3,0.4-0.4C102.7,162.2,102.6,161.9,102.5,161.6z"/>
			<path style="fill:#0CA2B9;" d="M101.7,175.8c-0.1-0.2-0.2-0.4-0.4-0.6c-0.1,0.3-0.2,0.6-0.2,0.9c0.2,0.5,0.3,1,0.5,1.5
				c0.3,0.5,0.5,1,0.8,1.5c0.4,0.2,0.8,0.4,1.2,0.6c-0.1-0.3-0.1-0.6-0.2-0.9c-0.3-0.3-0.6-0.6-0.9-0.9c-0.2-0.4-0.4-0.8-0.6-1.2
				C101.9,176.4,101.8,176.1,101.7,175.8z"/>
			<path style="fill:#0CA2B9;" d="M79.5,192.8c-0.4-0.4-0.7-0.8-1.1-1.2c-0.1,0.1-0.3,0.3-0.4,0.4c0.2,0.2,0.4,0.5,0.5,0.7
				c0,0.3,0,0.6,0,0.8c0.2,0.6,0.5,1.2,0.7,1.8c0.3,0.2,0.7,0.4,1,0.6c0.2-0.3,0.3-0.6,0.5-0.9c0.2-0.3,0.3-0.5,0.5-0.8
				c0-0.5,0.1-0.9,0.1-1.4c-0.2,0-0.4,0-0.6,0C80.2,193,79.8,192.9,79.5,192.8z"/>
			<path style="fill:#0CA2B9;" d="M104,202.7c-0.3,0-0.7,0-1-0.1c0-0.2,0-0.4,0-0.6c-0.1-0.1-0.3-0.2-0.4-0.4
				c-0.2,0.3-0.4,0.6-0.7,0.8c-0.3,0.3-0.5,0.7-0.8,1c-0.5,0.2-1,0.3-1.6,0.5c-0.4,0.1-0.9,0.2-1.3,0.3c-0.4,0-0.8,0-1.2,0
				c-0.2,0.2-0.4,0.4-0.6,0.6c0,0.1-0.1,0.2-0.1,0.3c0,0,0.5,0.5,1,0.6c0.2,0.2,0.5,0.4,0.7,0.7c0.3,0.1,0.5,0.2,0.8,0.3
				c0.3-0.2,0.6-0.4,0.9-0.6c0.3-0.2,0.7-0.5,1.1-0.8c0.2-0.1,0.5-0.1,0.7-0.2c0.3,0.1,0.6,0.2,1,0.3c0,0-0.2-0.4-0.2-0.8
				c0.5-0.2,1-0.3,1.5-0.5c0,0,0.4-0.8,0.5-1C104.4,202.9,104,202.7,104,202.7z"/>
			<path style="fill:#0CA2B9;" d="M96.8,206.9c0.5,0.1,1,0.3,1,0.3c0-0.1,0-0.2,0.1-0.3c-0.2-0.2-0.4-0.4-0.5-0.5
				C97.2,206.6,96.3,206.8,96.8,206.9z"/>
			<path style="fill:#0CA2B9;" d="M107.3,200.6c0,0-0.6-0.8-0.5-1c0.1-0.2,0.1-0.7,0.1-0.7c-0.2,0.1-0.4,0.3-0.6,0.4
				c-0.2-0.3-0.3-0.6-0.5-0.8c0.1-0.2,0.1-0.4,0.2-0.6c0.1-0.6-0.3-1.2-0.3-1.2c-0.2-0.1-0.4-0.3-0.7-0.4c0,0-0.3-0.3-0.3-0.6
				c0-0.3,0-0.3,0-0.3c-0.1,0.2-0.2,0.5-0.3,0.7c0.2,0.3,0.4,0.7,0.6,1c0.1,0.4,0.2,0.8,0.3,1.2c0.1,0.3,0.2,0.6,0.2,0.9
				c-0.1,0.2-0.1,0.5-0.2,0.7c-0.2,0.2-0.3,0.4-0.5,0.5c-0.1,0.1-0.3,0.2-0.4,0.2c0.2,0.3,0.4,0.6,0.6,0.8c0,0-0.9-0.7,0.1,0.7
				c1,1.4-1.8-0.1-0.4,0.6c1.4,0.7,0.6,0.9,0.6,0.9c0.3-0.1,0.5-0.1,0.8-0.2c0.3-0.3,0.6-0.7,0.9-1c0.2-0.2,0.4-0.4,0.6-0.6
				c0.2,0.1,0.5,0.2,0.7,0.3c0.2-0.4,0.5-0.7,0.7-1.1c-0.3-0.1-0.5-0.2-0.8-0.4C107.9,200.6,107.6,200.6,107.3,200.6z"/>
			<path style="fill:#0CA2B9;" d="M115.2,178c-0.1,0.1-0.2,0.3-0.3,0.4c0.3,0.3,0.5,0.5,0.8,0.8c0.2,0,0.4-0.1,0.6-0.1
				c0-0.3,0-0.5-0.1-0.8C115.8,178.2,115.5,178.1,115.2,178z"/>
			<path style="fill:#0CA2B9;" d="M116.6,177.3c0.1,0.1,0.3,0.2,0.4,0.3c0.3,0,0.5,0,0.8,0c0.1-0.2,0.2-0.5,0.2-0.7
				c-0.2-0.1-0.4-0.2-0.6-0.2C117.2,176.9,116.9,177.1,116.6,177.3z"/>
			<path style="fill:#0CA2B9;" d="M106.6,174.1c0-0.3,0-0.5,0-0.8c0.1-0.2,0.2-0.5,0.3-0.8c-0.1-0.3-0.1-0.5-0.2-0.8
				c-0.2-0.1-0.4-0.2-0.5-0.3c0,0.3,0,0.5,0.1,0.8c-0.1,0.2-0.3,0.5-0.4,0.7C106.1,173.4,106.3,173.8,106.6,174.1z"/>
			<path style="fill:#0CA2B9;" d="M173.4,137.7c0.1,0,0.2-0.8,0.2-0.9c0-0.1,0-0.6,0-0.7c0-0.1-0.2,0-0.2,0c-0.2,0-0.4,0.1-0.6,0.1
				c0,0,0,0,0,0.1c0,0-0.5,0.7-0.5,0.7c0,0,0,0.7,0,0.8C172.4,137.9,173.4,137.7,173.4,137.7z"/>
			<path style="fill:#0CA2B9;" d="M173.2,134.8c0.1,0,0.3,0,0.3,0c0.1-0.1,0.1-0.3,0.2-0.4c0,0-0.1-0.4-0.2-0.4c0,0-0.3,0.2-0.3,0.2
				s0.1,0.3,0,0.3C173.3,134.6,173.2,134.8,173.2,134.8z"/>
			<path style="fill:#0CA2B9;" d="M171.3,131.3c0,0,0.3-0.2,0.4-0.3c0.1,0,0-0.4,0-0.5c0-0.1-0.3-0.1-0.3-0.1s-0.4,0.3-0.4,0.3
				c0,0,0.2,0.4,0.2,0.4C171.2,131.2,171.2,131.2,171.3,131.3z"/>
			<path style="fill:#0CA2B9;" d="M172.7,132.9c0,0,0.1-0.3,0.1-0.3c0,0,0.1-0.4,0.1-0.4c0,0-0.3-0.1-0.3-0.1
				c-0.1,0-0.1,0.2-0.1,0.3c0,0,0,0,0,0c0,0.1,0,0.3,0,0.4C172.5,132.9,172.6,132.9,172.7,132.9z"/>
			<path style="fill:#0CA2B9;" d="M172.8,134.4c0,0,0.1-0.1,0.1-0.1c0,0,0-0.2,0-0.2c0-0.1-0.2,0.1-0.2,0.2
				C172.8,134.2,172.8,134.3,172.8,134.4z"/>
			<path style="fill:#0CA2B9;" d="M209.8,79.5c0.2,0,1.4,0,1.6-0.1c0.2-0.1,0.2-0.9,0.3-1.1c0.1-0.2-1.1-0.7-1.1-0.7
				c-0.2,0.2-0.4,0.4-0.5,0.5c-0.2-0.2-0.4-0.4-0.6-0.6c-0.2,0.4-0.4,0.9-0.6,1.3C208.9,78.8,209.6,79.5,209.8,79.5z"/>
			<path style="fill:#0CA2B9;" d="M198.2,77.1c0.1-0.3-0.5-0.6-0.5-0.6c-0.2-0.1-0.3-0.2-0.5-0.3c-0.3,0.2-0.5,0.3-0.8,0.5
				c-0.1,0.1-0.2,0.2-0.4,0.3c0,0,1.2,0.6,1.3,0.7C197.5,77.7,198.1,77.4,198.2,77.1z"/>
			<path style="fill:#0CA2B9;" d="M193.6,77.8c0.2-0.3,0.3-0.5,0.5-0.8c-0.2-0.1-0.5-0.1-0.7-0.2c-0.2,0.2-0.8,0.5-0.8,0.5
				c0,0.1,0.1,0.3,0.1,0.4C193,77.8,193.3,77.8,193.6,77.8z"/>
			<path style="fill:#0CA2B9;" d="M192.2,76.9c0-0.1,0-0.2-0.1-0.3c-0.2,0-0.8,0-0.9,0.1c-0.1,0.2-0.3,0.6-0.3,0.6
				c0.2,0,0.4,0,0.6,0C191.7,77.2,192,77.1,192.2,76.9z"/>
			<path style="fill:#0CA2B9;" d="M185.5,75c0.2,0-0.3-0.6-0.3-0.6c-0.3,0.1-0.6,0.3-0.8,0.4c0.2,0.2,0.3,0.3,0.5,0.5
				C184.9,75.1,185.3,75,185.5,75z"/>
			<path style="fill:#0CA2B9;" d="M182.2,74c0-0.2-0.1-0.3-0.1-0.5c-0.2,0-0.5,0-0.7,0c0.1,0.2,0.1,0.4,0.2,0.6
				C181.7,74.1,181.9,74,182.2,74z"/>
			<path style="fill:#0CA2B9;" d="M178.1,72.8c0.2,0,0-0.6,0-0.6s-0.3-0.4-0.4-0.5c-0.1-0.1-0.1,0.5,0,0.6
				C177.8,72.3,178,72.7,178.1,72.8z"/>
			<path style="fill:#0CA2B9;" d="M201.2,66.8c0.3-0.1,0.6-0.3,0.9-0.4c-0.1-0.3-0.2-0.6-0.3-0.9c-0.2,0-0.4,0.1-0.6,0.1
				c-0.3,0-0.7,0-1-0.1c0,0.3,0,0.6,0,0.9C200.6,66.5,200.9,66.7,201.2,66.8z"/>
		</g>
	</g>
</g>
</svg>
