<?xml version="1.0" encoding="utf-8"?>
<!-- Generator: Adobe Illustrator 18.0.0, SVG Export Plug-In . SVG Version: 6.00 Build 0)  -->
<!DOCTYPE svg PUBLIC "-//W3C//DTD SVG 1.1//EN" "http://www.w3.org/Graphics/SVG/1.1/DTD/svg11.dtd">
<svg version="1.1" id="圖層_1" xmlns="http://www.w3.org/2000/svg" xmlns:xlink="http://www.w3.org/1999/xlink" x="0px" y="0px"
	 viewBox="0 0 250 250" style="enable-background:new 0 0 250 250;" xml:space="preserve">
<g>
	
		<path style="fill-rule:evenodd;clip-rule:evenodd;fill:none;stroke:#E95371;stroke-width:3;stroke-linecap:round;stroke-linejoin:round;stroke-miterlimit:10;" d="
		M215.6,155c0,3.8-3.1,6.9-6.9,6.9H42.2c-3.8,0-6.9-3.1-6.9-6.9V51.5c0-3.8,3.1-6.9,6.9-6.9h166.5c3.8,0,6.9,3.1,6.9,6.9V155z"/>
	
		<polygon style="fill-rule:evenodd;clip-rule:evenodd;fill:#FFFFFF;stroke:#E95371;stroke-width:3;stroke-linecap:round;stroke-linejoin:round;stroke-miterlimit:10;" points="
		35.2,156.2 6.9,201.1 242.8,200.7 215.6,155.9 	"/>
	
		<path style="fill-rule:evenodd;clip-rule:evenodd;fill:none;stroke:#E95371;stroke-width:3;stroke-linecap:round;stroke-linejoin:round;stroke-miterlimit:10;" d="
		M243.1,200.9L243.1,200.9c0,2.5-2.7,4.6-6,4.6H13.2c-3.3,0-6-2.1-6-4.6l0,0"/>
	
		<rect x="45.3" y="53.6" style="fill-rule:evenodd;clip-rule:evenodd;fill:none;stroke:#E95371;stroke-width:3;stroke-linecap:round;stroke-linejoin:round;stroke-miterlimit:10;" width="160.3" height="94.1"/>
	<g>
		<g style="opacity:0.15;">
			<polygon style="fill:#070707;" points="47,169.9 41.4,169.9 43.9,164.3 49.3,164.3 			"/>
			<polygon style="fill:#070707;" points="51.2,177 38.3,177 40.8,171.4 53.3,171.4 			"/>
			<polygon style="fill:#070707;" points="48.6,184.7 35.1,184.7 37.6,179.1 50.7,179.1 			"/>
			<polygon style="fill:#070707;" points="53.6,169.9 48.1,169.9 50.3,164.3 55.7,164.3 			"/>
			<polygon style="fill:#070707;" points="60.2,169.9 54.7,169.9 56.7,164.3 62.1,164.3 			"/>
			<polygon style="fill:#070707;" points="66.8,169.9 61.3,169.9 63.1,164.3 68.5,164.3 			"/>
			<polygon style="fill:#070707;" points="73.4,169.9 67.9,169.9 69.5,164.3 74.9,164.3 			"/>
			<polygon style="fill:#070707;" points="80.1,169.9 74.5,169.9 76,164.3 81.3,164.3 			"/>
			<polygon style="fill:#070707;" points="86.7,169.9 81.2,169.9 82.4,164.3 87.7,164.3 			"/>
			<polygon style="fill:#070707;" points="93.3,169.9 87.8,169.9 88.8,164.3 94.1,164.3 			"/>
			<polygon style="fill:#070707;" points="99.9,169.9 94.4,169.9 95.2,164.3 100.5,164.3 			"/>
			<polygon style="fill:#070707;" points="106.5,169.9 101,169.9 101.6,164.3 106.9,164.3 			"/>
			<polygon style="fill:#070707;" points="113.2,169.9 107.6,169.9 108,164.3 113.3,164.3 			"/>
			<polygon style="fill:#070707;" points="119.8,169.9 114.3,169.9 114.4,164.3 119.7,164.3 			"/>
			<polygon style="fill:#070707;" points="126.4,169.9 120.9,169.9 120.8,164.3 126.1,164.3 			"/>
			<polygon style="fill:#070707;" points="133,169.9 127.5,169.9 127.2,164.3 132.5,164.3 			"/>
			<polygon style="fill:#070707;" points="139.6,169.9 134.1,169.9 133.6,164.3 138.9,164.3 			"/>
			<polygon style="fill:#070707;" points="146.3,169.9 140.7,169.9 140,164.3 145.3,164.3 			"/>
			<polygon style="fill:#070707;" points="152.9,169.9 147.4,169.9 146.4,164.3 151.7,164.3 			"/>
			<polygon style="fill:#070707;" points="159.5,169.9 154,169.9 152.8,164.3 158.1,164.3 			"/>
			<polygon style="fill:#070707;" points="166.1,169.9 160.6,169.9 159.2,164.3 164.5,164.3 			"/>
			<polygon style="fill:#070707;" points="172.7,169.9 167.2,169.9 165.6,164.3 170.9,164.3 			"/>
			<polygon style="fill:#070707;" points="179.4,169.9 173.9,169.9 172,164.3 177.3,164.3 			"/>
			<polygon style="fill:#070707;" points="186,169.9 180.5,169.9 178.4,164.3 183.7,164.3 			"/>
			<polygon style="fill:#070707;" points="192.6,169.9 187.1,169.9 184.8,164.3 190.1,164.3 			"/>
			<polygon style="fill:#070707;" points="199.2,169.9 193.7,169.9 191.2,164.3 196.6,164.3 			"/>
			<polygon style="fill:#070707;" points="205.9,169.9 200.3,169.9 197.6,164.3 203,164.3 			"/>
			<polygon style="fill:#070707;" points="37.9,191.9 31.6,191.9 34.1,186.3 40.2,186.3 			"/>
			<polygon style="fill:#070707;" points="45.3,191.9 39.1,191.9 41.4,186.3 47.4,186.3 			"/>
			<polygon style="fill:#070707;" points="52.8,191.9 46.6,191.9 48.6,186.3 54.7,186.3 			"/>
			<polygon style="fill:#070707;" points="60.3,191.9 54,191.9 55.9,186.3 61.9,186.3 			"/>
			<polygon style="fill:#070707;" points="67.7,191.9 61.5,191.9 63.1,186.3 69.2,186.3 			"/>
			<polygon style="fill:#070707;" points="75.2,191.9 69,191.9 70.4,186.3 76.5,186.3 			"/>
			<polygon style="fill:#070707;" points="172.1,191.9 76.8,191.9 78,186.3 170.5,186.3 			"/>
			<polygon style="fill:#070707;" points="179.9,191.9 173.6,191.9 172,186.3 178.1,186.3 			"/>
			<polygon style="fill:#070707;" points="187.3,191.9 181.1,191.9 179.3,186.3 185.3,186.3 			"/>
			<polygon style="fill:#070707;" points="194.8,191.9 188.6,191.9 186.5,186.3 192.6,186.3 			"/>
			<polygon style="fill:#070707;" points="202.3,191.9 196.1,191.9 193.8,186.3 199.8,186.3 			"/>
			<polygon style="fill:#070707;" points="209.8,191.9 203.5,191.9 201,186.3 207.1,186.3 			"/>
			<polygon style="fill:#070707;" points="217.2,191.9 211,191.9 208.3,186.3 214.3,186.3 			"/>
			<polygon style="fill:#070707;" points="57.8,177 52.1,177 54.1,171.4 59.7,171.4 			"/>
			<polygon style="fill:#070707;" points="64.7,177 59,177 60.8,171.4 66.4,171.4 			"/>
			<polygon style="fill:#070707;" points="71.6,177 65.9,177 67.5,171.4 73.1,171.4 			"/>
			<polygon style="fill:#070707;" points="78.5,177 72.8,177 74.2,171.4 79.7,171.4 			"/>
			<polygon style="fill:#070707;" points="85.4,177 79.7,177 80.8,171.4 86.4,171.4 			"/>
			<polygon style="fill:#070707;" points="92.3,177 86.5,177 87.5,171.4 93.1,171.4 			"/>
			<polygon style="fill:#070707;" points="99.2,177 93.4,177 94.2,171.4 99.8,171.4 			"/>
			<polygon style="fill:#070707;" points="106.1,177 100.3,177 100.9,171.4 106.4,171.4 			"/>
			<polygon style="fill:#070707;" points="113,177 107.2,177 107.6,171.4 113.1,171.4 			"/>
			<polygon style="fill:#070707;" points="119.9,177 114.1,177 114.2,171.4 119.8,171.4 			"/>
			<polygon style="fill:#070707;" points="126.8,177 121,177 120.9,171.4 126.5,171.4 			"/>
			<polygon style="fill:#070707;" points="133.7,177 127.9,177 127.6,171.4 133.2,171.4 			"/>
			<polygon style="fill:#070707;" points="140.6,177 134.8,177 134.3,171.4 139.8,171.4 			"/>
			<polygon style="fill:#070707;" points="147.5,177 141.7,177 140.9,171.4 146.5,171.4 			"/>
			<polygon style="fill:#070707;" points="154.3,177 148.6,177 147.6,171.4 153.2,171.4 			"/>
			<polygon style="fill:#070707;" points="161.2,177 155.5,177 154.3,171.4 159.9,171.4 			"/>
			<polygon style="fill:#070707;" points="168.1,177 162.4,177 161,171.4 166.5,171.4 			"/>
			<polygon style="fill:#070707;" points="175,177 169.3,177 167.7,171.4 173.2,171.4 			"/>
			<polygon style="fill:#070707;" points="181.9,177 176.2,177 174.3,171.4 179.9,171.4 			"/>
			<polygon style="fill:#070707;" points="188.8,177 183.1,177 181,171.4 186.6,171.4 			"/>
			<polygon style="fill:#070707;" points="195.7,177 190,177 187.7,171.4 193.3,171.4 			"/>
			<polygon style="fill:#070707;" points="202.6,177 196.9,177 194.4,171.4 199.9,171.4 			"/>
			<polygon style="fill:#070707;" points="213.3,184.3 207.3,184.3 201,171.4 206.6,171.4 			"/>
			<polygon style="fill:#070707;" points="55.2,184.7 49.2,184.7 51.3,179.1 57.1,179.1 			"/>
			<polygon style="fill:#070707;" points="62.4,184.7 56.4,184.7 58.3,179.1 64.1,179.1 			"/>
			<polygon style="fill:#070707;" points="69.6,184.7 63.6,184.7 65.2,179.1 71.1,179.1 			"/>
			<polygon style="fill:#070707;" points="76.8,184.7 70.8,184.7 72.2,179.1 78,179.1 			"/>
			<polygon style="fill:#070707;" points="84,184.7 78,184.7 79.2,179.1 85,179.1 			"/>
			<polygon style="fill:#070707;" points="91.2,184.7 85.2,184.7 86.2,179.1 92,179.1 			"/>
			<polygon style="fill:#070707;" points="98.4,184.7 92.4,184.7 93.2,179.1 99,179.1 			"/>
			<polygon style="fill:#070707;" points="105.6,184.7 99.6,184.7 100.1,179.1 105.9,179.1 			"/>
			<polygon style="fill:#070707;" points="112.8,184.7 106.8,184.7 107.1,179.1 112.9,179.1 			"/>
			<polygon style="fill:#070707;" points="120,184.7 114,184.7 114.1,179.1 119.9,179.1 			"/>
			<polygon style="fill:#070707;" points="127.2,184.7 121.2,184.7 121.1,179.1 126.9,179.1 			"/>
			<polygon style="fill:#070707;" points="134.4,184.7 128.4,184.7 128,179.1 133.9,179.1 			"/>
			<polygon style="fill:#070707;" points="141.6,184.7 135.6,184.7 135,179.1 140.8,179.1 			"/>
			<polygon style="fill:#070707;" points="148.8,184.7 142.8,184.7 142,179.1 147.8,179.1 			"/>
			<polygon style="fill:#070707;" points="156,184.7 150,184.7 149,179.1 154.8,179.1 			"/>
			<polygon style="fill:#070707;" points="163.1,184.7 157.2,184.7 156,179.1 161.8,179.1 			"/>
			<polygon style="fill:#070707;" points="170.3,184.7 164.3,184.7 162.9,179.1 168.7,179.1 			"/>
			<polygon style="fill:#070707;" points="177.5,184.7 171.5,184.7 169.9,179.1 175.7,179.1 			"/>
			<polygon style="fill:#070707;" points="184.7,184.7 178.7,184.7 176.9,179.1 182.7,179.1 			"/>
			<polygon style="fill:#070707;" points="191.9,184.7 185.9,184.7 183.9,179.1 189.7,179.1 			"/>
			<polygon style="fill:#070707;" points="199.1,184.7 193.1,184.7 190.8,179.1 196.7,179.1 			"/>
			<polygon style="fill:#070707;" points="206.3,184.7 200.3,184.7 197.8,179.1 203.6,179.1 			"/>
		</g>
		<g>
			<g>
				<polygon style="fill:#E95371;" points="47,168.9 41.4,168.9 43.9,163.3 49.3,163.3 				"/>
				<polygon style="fill:#E95371;" points="51.2,176 38.3,176 40.8,170.4 53.3,170.4 				"/>
				<polygon style="fill:#E95371;" points="48.6,183.7 35.1,183.7 37.6,178.1 50.7,178.1 				"/>
				<polygon style="fill:#E95371;" points="53.6,168.9 48.1,168.9 50.3,163.3 55.7,163.3 				"/>
				<polygon style="fill:#E95371;" points="60.2,168.9 54.7,168.9 56.7,163.3 62.1,163.3 				"/>
				<polygon style="fill:#E95371;" points="66.8,168.9 61.3,168.9 63.1,163.3 68.5,163.3 				"/>
				<polygon style="fill:#E95371;" points="73.4,168.9 67.9,168.9 69.5,163.3 74.9,163.3 				"/>
				<polygon style="fill:#E95371;" points="80.1,168.9 74.5,168.9 76,163.3 81.3,163.3 				"/>
				<polygon style="fill:#E95371;" points="86.7,168.9 81.2,168.9 82.4,163.3 87.7,163.3 				"/>
				<polygon style="fill:#E95371;" points="93.3,168.9 87.8,168.9 88.8,163.3 94.1,163.3 				"/>
				<polygon style="fill:#E95371;" points="99.9,168.9 94.4,168.9 95.2,163.3 100.5,163.3 				"/>
				<polygon style="fill:#E95371;" points="106.5,168.9 101,168.9 101.6,163.3 106.9,163.3 				"/>
				<polygon style="fill:#E95371;" points="113.2,168.9 107.6,168.9 108,163.3 113.3,163.3 				"/>
				<polygon style="fill:#E95371;" points="119.8,168.9 114.3,168.9 114.4,163.3 119.7,163.3 				"/>
				<polygon style="fill:#E95371;" points="126.4,168.9 120.9,168.9 120.8,163.3 126.1,163.3 				"/>
				<polygon style="fill:#E95371;" points="133,168.9 127.5,168.9 127.2,163.3 132.5,163.3 				"/>
				<polygon style="fill:#E95371;" points="139.6,168.9 134.1,168.9 133.6,163.3 138.9,163.3 				"/>
				<polygon style="fill:#E95371;" points="146.3,168.9 140.7,168.9 140,163.3 145.3,163.3 				"/>
				<polygon style="fill:#E95371;" points="152.9,168.9 147.4,168.9 146.4,163.3 151.7,163.3 				"/>
				<polygon style="fill:#E95371;" points="159.5,168.9 154,168.9 152.8,163.3 158.1,163.3 				"/>
				<polygon style="fill:#E95371;" points="166.1,168.9 160.6,168.9 159.2,163.3 164.5,163.3 				"/>
				<polygon style="fill:#E95371;" points="172.7,168.9 167.2,168.9 165.6,163.3 170.9,163.3 				"/>
				<polygon style="fill:#E95371;" points="179.4,168.9 173.9,168.9 172,163.3 177.3,163.3 				"/>
				<polygon style="fill:#E95371;" points="186,168.9 180.5,168.9 178.4,163.3 183.7,163.3 				"/>
				<polygon style="fill:#E95371;" points="192.6,168.9 187.1,168.9 184.8,163.3 190.1,163.3 				"/>
				<polygon style="fill:#E95371;" points="199.2,168.9 193.7,168.9 191.2,163.3 196.6,163.3 				"/>
				<polygon style="fill:#E95371;" points="205.9,168.9 200.3,168.9 197.6,163.3 203,163.3 				"/>
				<polygon style="fill:#E95371;" points="37.9,190.9 31.6,190.9 34.1,185.3 40.2,185.3 				"/>
				<polygon style="fill:#E95371;" points="45.3,190.9 39.1,190.9 41.4,185.3 47.4,185.3 				"/>
				<polygon style="fill:#E95371;" points="52.8,190.9 46.6,190.9 48.6,185.3 54.7,185.3 				"/>
				<polygon style="fill:#E95371;" points="60.3,190.9 54,190.9 55.9,185.3 61.9,185.3 				"/>
				<polygon style="fill:#E95371;" points="67.7,190.9 61.5,190.9 63.1,185.3 69.2,185.3 				"/>
				<polygon style="fill:#E95371;" points="75.2,190.9 69,190.9 70.4,185.3 76.5,185.3 				"/>
				<polygon style="fill:#E95371;" points="172.1,190.9 76.8,190.9 78,185.3 170.5,185.3 				"/>
				<polygon style="fill:#E95371;" points="179.9,190.9 173.6,190.9 172,185.3 178.1,185.3 				"/>
				<polygon style="fill:#E95371;" points="187.3,190.9 181.1,190.9 179.3,185.3 185.3,185.3 				"/>
				<polygon style="fill:#E95371;" points="194.8,190.9 188.6,190.9 186.5,185.3 192.6,185.3 				"/>
				<polygon style="fill:#E95371;" points="202.3,190.9 196.1,190.9 193.8,185.3 199.8,185.3 				"/>
				<polygon style="fill:#E95371;" points="209.8,190.9 203.5,190.9 201,185.3 207.1,185.3 				"/>
				<polygon style="fill:#E95371;" points="217.2,190.9 211,190.9 208.3,185.3 214.3,185.3 				"/>
				<polygon style="fill:#E95371;" points="57.8,176 52.1,176 54.1,170.4 59.7,170.4 				"/>
				<polygon style="fill:#E95371;" points="64.7,176 59,176 60.8,170.4 66.4,170.4 				"/>
				<polygon style="fill:#E95371;" points="71.6,176 65.9,176 67.5,170.4 73.1,170.4 				"/>
				<polygon style="fill:#E95371;" points="78.5,176 72.8,176 74.2,170.4 79.7,170.4 				"/>
				<polygon style="fill:#E95371;" points="85.4,176 79.7,176 80.8,170.4 86.4,170.4 				"/>
				<polygon style="fill:#E95371;" points="92.3,176 86.5,176 87.5,170.4 93.1,170.4 				"/>
				<polygon style="fill:#E95371;" points="99.2,176 93.4,176 94.2,170.4 99.8,170.4 				"/>
				<polygon style="fill:#E95371;" points="106.1,176 100.3,176 100.9,170.4 106.4,170.4 				"/>
				<polygon style="fill:#E95371;" points="113,176 107.2,176 107.6,170.4 113.1,170.4 				"/>
				<polygon style="fill:#E95371;" points="119.9,176 114.1,176 114.2,170.4 119.8,170.4 				"/>
				<polygon style="fill:#E95371;" points="126.8,176 121,176 120.9,170.4 126.5,170.4 				"/>
				<polygon style="fill:#E95371;" points="133.7,176 127.9,176 127.6,170.4 133.2,170.4 				"/>
				<polygon style="fill:#E95371;" points="140.6,176 134.8,176 134.3,170.4 139.8,170.4 				"/>
				<polygon style="fill:#E95371;" points="147.5,176 141.7,176 140.9,170.4 146.5,170.4 				"/>
				<polygon style="fill:#E95371;" points="154.3,176 148.6,176 147.6,170.4 153.2,170.4 				"/>
				<polygon style="fill:#E95371;" points="161.2,176 155.5,176 154.3,170.4 159.9,170.4 				"/>
				<polygon style="fill:#E95371;" points="168.1,176 162.4,176 161,170.4 166.5,170.4 				"/>
				<polygon style="fill:#E95371;" points="175,176 169.3,176 167.7,170.4 173.2,170.4 				"/>
				<polygon style="fill:#E95371;" points="181.9,176 176.2,176 174.3,170.4 179.9,170.4 				"/>
				<polygon style="fill:#E95371;" points="188.8,176 183.1,176 181,170.4 186.6,170.4 				"/>
				<polygon style="fill:#E95371;" points="195.7,176 190,176 187.7,170.4 193.3,170.4 				"/>
				<polygon style="fill:#E95371;" points="202.6,176 196.9,176 194.4,170.4 199.9,170.4 				"/>
				<polygon style="fill:#E95371;" points="213.3,183.3 207.3,183.3 201,170.4 206.6,170.4 				"/>
				<polygon style="fill:#E95371;" points="55.2,183.7 49.2,183.7 51.3,178.1 57.1,178.1 				"/>
				<polygon style="fill:#E95371;" points="62.4,183.7 56.4,183.7 58.3,178.1 64.1,178.1 				"/>
				<polygon style="fill:#E95371;" points="69.6,183.7 63.6,183.7 65.2,178.1 71.1,178.1 				"/>
				<polygon style="fill:#E95371;" points="76.8,183.7 70.8,183.7 72.2,178.1 78,178.1 				"/>
				<polygon style="fill:#E95371;" points="84,183.7 78,183.7 79.2,178.1 85,178.1 				"/>
				<polygon style="fill:#E95371;" points="91.2,183.7 85.2,183.7 86.2,178.1 92,178.1 				"/>
				<polygon style="fill:#E95371;" points="98.4,183.7 92.4,183.7 93.2,178.1 99,178.1 				"/>
				<polygon style="fill:#E95371;" points="105.6,183.7 99.6,183.7 100.1,178.1 105.9,178.1 				"/>
				<polygon style="fill:#E95371;" points="112.8,183.7 106.8,183.7 107.1,178.1 112.9,178.1 				"/>
				<polygon style="fill:#E95371;" points="120,183.7 114,183.7 114.1,178.1 119.9,178.1 				"/>
				<polygon style="fill:#E95371;" points="127.2,183.7 121.2,183.7 121.1,178.1 126.9,178.1 				"/>
				<polygon style="fill:#E95371;" points="134.4,183.7 128.4,183.7 128,178.1 133.9,178.1 				"/>
				<polygon style="fill:#E95371;" points="141.6,183.7 135.6,183.7 135,178.1 140.8,178.1 				"/>
				<polygon style="fill:#E95371;" points="148.8,183.7 142.8,183.7 142,178.1 147.8,178.1 				"/>
				<polygon style="fill:#E95371;" points="156,183.7 150,183.7 149,178.1 154.8,178.1 				"/>
				<polygon style="fill:#E95371;" points="163.1,183.7 157.2,183.7 156,178.1 161.8,178.1 				"/>
				<polygon style="fill:#E95371;" points="170.3,183.7 164.3,183.7 162.9,178.1 168.7,178.1 				"/>
				<polygon style="fill:#E95371;" points="177.5,183.7 171.5,183.7 169.9,178.1 175.7,178.1 				"/>
				<polygon style="fill:#E95371;" points="184.7,183.7 178.7,183.7 176.9,178.1 182.7,178.1 				"/>
				<polygon style="fill:#E95371;" points="191.9,183.7 185.9,183.7 183.9,178.1 189.7,178.1 				"/>
				<polygon style="fill:#E95371;" points="199.1,183.7 193.1,183.7 190.8,178.1 196.7,178.1 				"/>
				<polygon style="fill:#E95371;" points="206.3,183.7 200.3,183.7 197.8,178.1 203.6,178.1 				"/>
			</g>
		</g>
	</g>
	<g>
		<g>
			<g>
				<g>
					
						<polygon style="fill-rule:evenodd;clip-rule:evenodd;fill:none;stroke:#E95371;stroke-width:2;stroke-linecap:round;stroke-linejoin:round;stroke-miterlimit:10;" points="
						142.5,136.2 141.3,135.8 140.5,136.9 140.2,135.6 138.9,135.4 139.9,134.6 139.4,133.3 140.6,133.8 141.4,132.7 141.7,134 
						143,134.1 142,135 					"/>
					
						<polygon style="fill-rule:evenodd;clip-rule:evenodd;fill:none;stroke:#E95371;stroke-width:2;stroke-linecap:round;stroke-linejoin:round;stroke-miterlimit:10;" points="
						128.2,139.7 126.4,139.1 125.3,140.6 125,138.8 123.1,138.6 124.5,137.4 123.8,135.7 125.5,136.3 126.6,134.8 127,136.6 
						128.8,136.8 127.4,138 					"/>
					
						<polygon style="fill-rule:evenodd;clip-rule:evenodd;fill:none;stroke:#E95371;stroke-width:2;stroke-linecap:round;stroke-linejoin:round;stroke-miterlimit:10;" points="
						132.6,124.4 131.7,124.1 131.2,124.8 131,123.9 130.1,123.8 130.8,123.2 130.4,122.4 131.3,122.7 131.8,122 132,122.9 
						132.9,123 132.2,123.6 					"/>
				</g>
				<g>
					
						<polygon style="fill-rule:evenodd;clip-rule:evenodd;fill:none;stroke:#E95371;stroke-width:2;stroke-linecap:round;stroke-linejoin:round;stroke-miterlimit:10;" points="
						164,75.3 163.6,76.6 164.8,77.3 163.5,77.7 163.4,79 162.5,78.1 161.3,78.7 161.6,77.4 160.5,76.7 161.8,76.3 161.8,75 
						162.8,75.9 					"/>
					
						<polygon style="fill-rule:evenodd;clip-rule:evenodd;fill:none;stroke:#E95371;stroke-width:2;stroke-linecap:round;stroke-linejoin:round;stroke-miterlimit:10;" points="
						168.5,89.4 168,91.2 169.6,92.1 167.8,92.6 167.8,94.5 166.4,93.2 164.8,94.1 165.3,92.3 163.7,91.3 165.5,90.8 165.5,88.9 
						166.9,90.2 					"/>
					
						<polygon style="fill-rule:evenodd;clip-rule:evenodd;fill:none;stroke:#E95371;stroke-width:2;stroke-linecap:round;stroke-linejoin:round;stroke-miterlimit:10;" points="
						152.9,86.1 152.7,87 153.5,87.5 152.6,87.8 152.6,88.7 151.9,88 151.1,88.5 151.3,87.6 150.5,87.1 151.4,86.8 151.5,85.9 
						152.1,86.6 					"/>
				</g>
				<g>
					
						<polygon style="fill-rule:evenodd;clip-rule:evenodd;fill:none;stroke:#E95371;stroke-width:2;stroke-linecap:round;stroke-linejoin:round;stroke-miterlimit:10;" points="
						100.3,88.2 99.2,87.4 98.1,88.2 98.3,86.9 97,86.3 98.3,85.8 98.1,84.5 99.2,85.3 100.3,84.5 100.1,85.8 101.3,86.3 
						100.1,86.9 					"/>
					
						<polygon style="fill-rule:evenodd;clip-rule:evenodd;fill:none;stroke:#E95371;stroke-width:2;stroke-linecap:round;stroke-linejoin:round;stroke-miterlimit:10;" points="
						85.5,87.2 84,86.2 82.6,87.3 82.7,85.4 81,84.7 82.7,83.9 82.5,82.1 84,83.2 85.5,82.1 85.3,83.9 87,84.6 85.3,85.4 					"/>
					
						<polygon style="fill-rule:evenodd;clip-rule:evenodd;fill:none;stroke:#E95371;stroke-width:2;stroke-linecap:round;stroke-linejoin:round;stroke-miterlimit:10;" points="
						94.3,73.9 93.5,73.4 92.8,73.9 92.9,73 92,72.7 92.9,72.3 92.8,71.4 93.5,71.9 94.3,71.4 94.2,72.3 95,72.6 94.2,73 					"/>
				</g>
			</g>
			<g>
				<g>
					<path style="fill:none;stroke:#E95371;stroke-width:2;stroke-linecap:round;stroke-linejoin:round;stroke-miterlimit:10;" d="
						M126.2,72.1c0,0-0.1-0.7-0.1-1.7c-0.1-1-0.1-2.3-0.2-3.7c0-0.7-0.1-1.3-0.1-2c0-0.6,0.1-1.2,0.1-1.7c0.1-1,0.4-1.7,0.4-1.7h0.1
						c0,0,0.2,0.7,0.4,1.7c0.1,0.5,0.1,1.1,0.1,1.7c0,0.6-0.1,1.3-0.1,2c-0.1,1.3-0.1,2.7-0.2,3.7c-0.1,1-0.1,1.7-0.1,1.7H126.2z"/>
					<path style="fill:none;stroke:#E95371;stroke-width:2;stroke-linecap:round;stroke-linejoin:round;stroke-miterlimit:10;" d="
						M142.2,78.6c0,0,0.4-0.4,1-1.1c0.6-0.7,1.4-1.5,2.2-2.4c0.4-0.4,0.8-0.9,1.2-1.3c0.4-0.4,0.8-0.7,1.2-0.9
						c0.7-0.5,1.3-0.7,1.3-0.7l0.1,0.1c0,0-0.3,0.6-0.8,1.3c-0.3,0.3-0.6,0.7-1,1.1c-0.4,0.4-0.9,0.7-1.4,1.1
						c-0.9,0.7-1.8,1.5-2.5,2C142.7,78.3,142.2,78.7,142.2,78.6L142.2,78.6z"/>
					<path style="fill:none;stroke:#E95371;stroke-width:2;stroke-linecap:round;stroke-linejoin:round;stroke-miterlimit:10;" d="
						M111.8,78.7c0,0-0.5-0.4-1.2-0.9c-0.7-0.5-1.6-1.3-2.5-2c-0.5-0.4-0.9-0.7-1.4-1.1c-0.4-0.4-0.7-0.8-1-1.1
						c-0.6-0.7-0.8-1.3-0.8-1.3l0.1-0.1c0,0,0.6,0.2,1.3,0.7c0.4,0.2,0.8,0.6,1.2,0.9c0.4,0.4,0.8,0.8,1.2,1.3
						c0.8,0.9,1.6,1.7,2.2,2.4C111.5,78.2,111.9,78.6,111.8,78.7L111.8,78.7z"/>
					<path style="fill:none;stroke:#E95371;stroke-width:2;stroke-linecap:round;stroke-linejoin:round;stroke-miterlimit:10;" d="
						M117.3,72.7c0,0-0.8-1.4-1.6-2.9c-0.2-0.4-0.4-0.7-0.6-1.1c-0.1-0.4-0.2-0.7-0.3-1c-0.1-0.6-0.1-1.1-0.1-1.1l0.1,0
						c0,0,0.4,0.3,0.7,0.8c0.2,0.3,0.4,0.6,0.5,0.9c0.1,0.4,0.2,0.8,0.3,1.2C117,71,117.4,72.6,117.3,72.7L117.3,72.7z"/>
					<path style="fill:none;stroke:#E95371;stroke-width:2;stroke-linecap:round;stroke-linejoin:round;stroke-miterlimit:10;" d="
						M136,72.6c0,0,0.4-1.6,0.9-3.2c0.1-0.4,0.2-0.8,0.3-1.2c0.1-0.4,0.3-0.7,0.5-0.9c0.3-0.5,0.7-0.8,0.7-0.8l0.1,0
						c0,0,0.1,0.5-0.1,1.1c-0.1,0.3-0.1,0.7-0.3,1c-0.2,0.4-0.4,0.7-0.6,1.1C136.9,71.2,136.1,72.7,136,72.6L136,72.6z"/>
				</g>
				<g>
					<path style="fill:none;stroke:#E95371;stroke-width:2;stroke-linecap:round;stroke-linejoin:round;stroke-miterlimit:10;" d="
						M87.6,116.9c0,0-0.6,0.3-1.5,0.7c-0.9,0.4-2.2,0.9-3.4,1.4c-0.6,0.2-1.2,0.5-1.8,0.7c-0.6,0.2-1.2,0.3-1.7,0.4
						c-1,0.2-1.7,0.2-1.7,0.2l0-0.1c0,0,0.6-0.4,1.5-0.9c0.5-0.2,1-0.5,1.6-0.7c0.6-0.2,1.3-0.3,1.9-0.5c1.3-0.3,2.6-0.7,3.6-1
						C86.9,117,87.6,116.8,87.6,116.9L87.6,116.9z"/>
					<path style="fill:none;stroke:#E95371;stroke-width:2;stroke-linecap:round;stroke-linejoin:round;stroke-miterlimit:10;" d="
						M88.7,99.7c0,0-0.5-0.2-1.3-0.6c-0.8-0.4-1.9-0.9-2.9-1.4c-0.5-0.3-1.1-0.5-1.6-0.7c-0.5-0.3-0.9-0.6-1.3-0.8
						c-0.7-0.5-1.1-1-1.1-1l0-0.1c0,0,0.6,0.1,1.5,0.4c0.4,0.2,0.9,0.4,1.4,0.6c0.5,0.3,1,0.6,1.4,0.9c1,0.6,2,1.3,2.7,1.8
						C88.3,99.2,88.8,99.6,88.7,99.7L88.7,99.7z"/>
					<path style="fill:none;stroke:#E95371;stroke-width:2;stroke-linecap:round;stroke-linejoin:round;stroke-miterlimit:10;" d="
						M98.5,128.4c0,0-0.2,0.6-0.5,1.4c-0.3,0.8-0.7,1.9-1.1,3c-0.2,0.5-0.4,1.1-0.6,1.6c-0.2,0.5-0.5,0.9-0.7,1.3
						c-0.5,0.8-0.9,1.2-0.9,1.2l-0.1,0c0,0,0-0.6,0.3-1.5c0.1-0.4,0.3-0.9,0.5-1.4c0.2-0.5,0.5-1,0.8-1.5c0.6-1,1.1-2.1,1.5-2.9
						C98.1,128.9,98.4,128.4,98.5,128.4L98.5,128.4z"/>
					<path style="fill:none;stroke:#E95371;stroke-width:2;stroke-linecap:round;stroke-linejoin:round;stroke-miterlimit:10;" d="
						M91,125.1c0,0-1.1,1.2-2.3,2.4c-0.3,0.3-0.6,0.6-0.8,0.9c-0.3,0.2-0.6,0.4-0.9,0.6c-0.6,0.3-1,0.4-1,0.4l-0.1-0.1
						c0,0,0.2-0.4,0.5-0.9c0.2-0.3,0.4-0.5,0.7-0.8c0.3-0.2,0.7-0.4,1-0.7C89.5,125.9,90.9,125,91,125.1L91,125.1z"/>
					<path style="fill:none;stroke:#E95371;stroke-width:2;stroke-linecap:round;stroke-linejoin:round;stroke-miterlimit:10;" d="
						M85,107.4c0,0-1.7,0.1-3.3,0.2c-0.4,0-0.8,0.1-1.2,0.1c-0.4,0-0.7-0.1-1-0.2c-0.6-0.2-1-0.4-1-0.4l0-0.1c0,0,0.4-0.2,1-0.3
						c0.3-0.1,0.7-0.1,1.1-0.1c0.4,0,0.8,0.1,1.2,0.2c1.6,0.2,3.3,0.5,3.3,0.5L85,107.4z"/>
				</g>
				<g>
					<path style="fill:none;stroke:#E95371;stroke-width:2;stroke-linecap:round;stroke-linejoin:round;stroke-miterlimit:10;" d="
						M166.6,116.3c0,0,0.6,0.1,1.4,0.2c0.8,0.1,1.9,0.3,3.1,0.5c0.6,0.1,1.1,0.2,1.6,0.3c0.5,0.1,1,0.3,1.4,0.4
						c0.8,0.3,1.3,0.6,1.3,0.6l0,0.1c0,0-0.6,0.1-1.4,0c-0.4,0-0.9-0.1-1.4-0.2c-0.5-0.1-1-0.3-1.6-0.5c-1.1-0.3-2.2-0.6-3-0.8
						C167.1,116.5,166.6,116.4,166.6,116.3L166.6,116.3z"/>
					<path style="fill:none;stroke:#E95371;stroke-width:2;stroke-linecap:round;stroke-linejoin:round;stroke-miterlimit:10;" d="
						M158.3,128.2c0,0,0.3,0.4,0.7,1c0.4,0.6,1,1.4,1.5,2.2c0.3,0.4,0.6,0.8,0.8,1.2c0.2,0.4,0.4,0.8,0.5,1.1
						c0.3,0.7,0.4,1.2,0.4,1.2l-0.1,0c0,0-0.4-0.3-0.9-0.9c-0.2-0.3-0.5-0.6-0.7-1c-0.2-0.4-0.4-0.9-0.6-1.3
						c-0.4-0.9-0.9-1.8-1.2-2.4C158.5,128.7,158.3,128.3,158.3,128.2L158.3,128.2z"/>
					<path style="fill:none;stroke:#E95371;stroke-width:2;stroke-linecap:round;stroke-linejoin:round;stroke-miterlimit:10;" d="
						M163.7,103.3c0,0,0.4-0.3,0.9-0.8c0.6-0.5,1.3-1.1,2.1-1.7c0.4-0.3,0.8-0.6,1.1-0.9c0.4-0.3,0.8-0.5,1.1-0.6
						c0.7-0.3,1.2-0.5,1.2-0.5l0,0.1c0,0-0.3,0.4-0.8,1c-0.3,0.3-0.6,0.5-1,0.8c-0.4,0.3-0.8,0.5-1.2,0.7c-0.8,0.5-1.7,1-2.3,1.4
						C164.2,103.1,163.8,103.4,163.7,103.3L163.7,103.3z"/>
					<path style="fill:none;stroke:#E95371;stroke-width:2;stroke-linecap:round;stroke-linejoin:round;stroke-miterlimit:10;" d="
						M167.7,108.9c0,0,0.3-0.1,0.8-0.3c0.5-0.2,1.2-0.3,1.8-0.5c0.3-0.1,0.7-0.2,1-0.3c0.3-0.1,0.6-0.1,0.9,0c0.5,0,0.9,0.2,0.9,0.2
						l0,0.1c0,0-0.3,0.2-0.8,0.4c-0.2,0.1-0.5,0.2-0.9,0.2c-0.3,0-0.7,0-1,0.1c-0.7,0-1.4,0.1-1.9,0.1
						C168,109,167.7,109,167.7,108.9L167.7,108.9z"/>
					<path style="fill:none;stroke:#E95371;stroke-width:2;stroke-linecap:round;stroke-linejoin:round;stroke-miterlimit:10;" d="
						M164.4,124.3c0,0,0.3,0.2,0.8,0.4c0.5,0.2,1.1,0.6,1.7,0.9c0.3,0.2,0.6,0.3,0.9,0.5c0.3,0.2,0.5,0.4,0.7,0.6
						c0.4,0.4,0.5,0.7,0.5,0.7l0,0.1c0,0-0.4,0-0.9-0.2c-0.2-0.1-0.5-0.2-0.8-0.4c-0.3-0.2-0.5-0.4-0.8-0.7
						c-0.5-0.4-1.1-0.9-1.5-1.2C164.6,124.6,164.3,124.3,164.4,124.3L164.4,124.3z"/>
				</g>
			</g>
		</g>
		<g>
			<g>
				<path style="fill:none;stroke:#E95371;stroke-width:2;stroke-linecap:round;stroke-linejoin:round;stroke-miterlimit:10;" d="
					M141.6,85.7l-3.2-3.4c-0.4-0.4-1.1-0.5-1.6,0l-1.4,1.3c-0.9-0.5-1.8-1-2.8-1.3l0.1-1.9c0-0.6-0.4-1.1-1.1-1.2l-4.7-0.2
					c-0.6,0-1.1,0.4-1.2,1.1l-0.1,1.8c-1.2,0.2-2.4,0.6-3.5,1.2l-1.2-1.3c-0.4-0.4-1.1-0.5-1.6,0L116,85c-0.4,0.4-0.5,1.1,0,1.6l1,1
					c-0.7,1-1.2,2.1-1.6,3.2l-1.3-0.1c-0.6,0-1.1,0.4-1.2,1.1l-0.2,4.7c0,0.6,0.4,1.1,1.1,1.2l1,0c0.2,1.4,0.7,2.8,1.4,4.1l-0.6,0.6
					c-0.4,0.4-0.5,1.1,0,1.6l3.2,3.4c0.4,0.4,1.1,0.5,1.6,0l0.5-0.5c1.1,0.7,2.4,1.3,3.6,1.7l0,0.7c0,0.6,0.4,1.1,1.1,1.2l4.7,0.2
					c0.6,0,1.1-0.4,1.2-1.1l0-0.8c1.4-0.3,2.8-0.9,4.1-1.6l0.7,0.7c0.4,0.4,1.1,0.5,1.6,0l3.4-3.2c0.4-0.4,0.5-1.1,0-1.6l-0.9-0.9
					c0.6-1,1-2.2,1.3-3.3L143,99c0.6,0,1.1-0.4,1.2-1.1l0.2-4.7c0-0.6-0.4-1.1-1.1-1.1l-1.7-0.1c-0.3-1.2-0.8-2.3-1.4-3.4l1.3-1.3
					C142,86.9,142,86.2,141.6,85.7z M132.5,91.4c2.2,2.3,2.1,6-0.2,8.2c-2.3,2.2-6,2.1-8.2-0.2c-2.2-2.3-2.1-6,0.2-8.2
					C126.7,89,130.3,89.1,132.5,91.4z"/>
				<path style="fill:none;stroke:#E95371;stroke-width:2;stroke-linecap:round;stroke-linejoin:round;stroke-miterlimit:10;" d="
					M122.4,101l-2.8-3.8c-0.4-0.5-1.1-0.6-1.5-0.2l-1.6,1.2c-0.8-0.6-1.7-1.2-2.6-1.6l0.3-1.9c0.1-0.6-0.3-1.2-0.9-1.3l-4.6-0.8
					c-0.6-0.1-1.2,0.3-1.3,0.9l-0.3,1.8c-1.2,0.1-2.4,0.3-3.6,0.7l-1-1.4c-0.4-0.5-1.1-0.6-1.5-0.2l-3.8,2.8
					c-0.5,0.4-0.6,1.1-0.2,1.5l0.9,1.2c-0.8,0.9-1.5,1.9-2,2.9l-1.3-0.2c-0.6-0.1-1.2,0.3-1.3,0.9l-0.8,4.6
					c-0.1,0.6,0.3,1.2,0.9,1.3l1,0.2c0.1,1.4,0.4,2.9,0.9,4.3l-0.7,0.5c-0.5,0.4-0.6,1.1-0.2,1.5l2.8,3.8c0.4,0.5,1.1,0.6,1.5,0.2
					l0.6-0.4c1,0.9,2.2,1.6,3.4,2.1l-0.1,0.7c-0.1,0.6,0.3,1.2,0.9,1.3l4.6,0.8c0.6,0.1,1.2-0.3,1.3-0.9l0.1-0.8
					c1.4-0.1,2.9-0.5,4.2-1.1l0.6,0.8c0.4,0.5,1.1,0.6,1.5,0.2l3.8-2.8c0.5-0.4,0.6-1.1,0.2-1.5l-0.7-1c0.7-1,1.3-2,1.7-3.1l1.4,0.2
					c0.6,0.1,1.2-0.3,1.3-0.9l0.8-4.6c0.1-0.6-0.3-1.2-0.9-1.3l-1.7-0.3c-0.2-1.2-0.5-2.4-1-3.6l1.5-1.1
					C122.7,102.2,122.8,101.5,122.4,101z M114,104.6c2.4,3.3,1.7,7.9-1.6,10.3c-3.3,2.4-7.9,1.7-10.3-1.6c-2.4-3.3-1.7-7.9,1.6-10.3
					C106.9,100.6,111.6,101.3,114,104.6z"/>
				<path style="fill:none;stroke:#E95371;stroke-width:2;stroke-linecap:round;stroke-linejoin:round;stroke-miterlimit:10;" d="
					M163.7,112.9l-0.8-2.4c-0.1-0.3-0.4-0.5-0.7-0.4l-1,0.3c-0.3-0.5-0.7-0.9-1.1-1.2l0.5-0.9c0.1-0.3,0-0.6-0.3-0.8l-2.2-1.1
					c-0.3-0.2-0.6,0-0.8,0.3l-0.4,0.9c-0.6-0.2-1.3-0.2-1.9-0.2l-0.3-0.9c-0.1-0.3-0.4-0.5-0.7-0.4l-2.4,0.8
					c-0.3,0.1-0.5,0.4-0.4,0.7l0.2,0.7c-0.5,0.3-1,0.7-1.5,1.2l-0.6-0.3c-0.3-0.2-0.6,0-0.8,0.2l-1.1,2.2c-0.1,0.3,0,0.6,0.3,0.8
					l0.5,0.2c-0.2,0.7-0.3,1.5-0.2,2.3l-0.4,0.1c-0.3,0.1-0.5,0.4-0.4,0.7l0.8,2.4c0.1,0.3,0.4,0.5,0.7,0.4l0.4-0.1
					c0.4,0.6,0.8,1.1,1.4,1.6l-0.2,0.3c-0.2,0.3,0,0.6,0.3,0.8l2.2,1.1c0.3,0.1,0.6,0,0.8-0.3l0.2-0.4c0.7,0.2,1.5,0.2,2.3,0.1
					l0.2,0.5c0.1,0.3,0.4,0.5,0.7,0.4l2.4-0.8c0.3-0.1,0.5-0.4,0.4-0.7l-0.2-0.6c0.5-0.4,1-0.8,1.4-1.3l0.7,0.3
					c0.3,0.2,0.6,0,0.8-0.3l1.1-2.2c0.1-0.3,0-0.6-0.3-0.8l-0.8-0.4c0.1-0.6,0.1-1.3,0.1-2l0.9-0.3
					C163.6,113.5,163.8,113.2,163.7,112.9z M158.9,113.4c0.7,2-0.4,4.3-2.4,4.9c-2,0.7-4.3-0.4-4.9-2.4c-0.7-2,0.4-4.3,2.4-4.9
					C156,110.2,158.2,111.3,158.9,113.4z"/>
			</g>
			<g>
				
					<circle style="fill:none;stroke:#E95371;stroke-width:2;stroke-linecap:round;stroke-linejoin:round;stroke-miterlimit:10;" cx="128.2" cy="95.8" r="5.5"/>
				
					<circle style="fill-rule:evenodd;clip-rule:evenodd;fill:none;stroke:#E95371;stroke-width:2;stroke-linecap:round;stroke-linejoin:round;stroke-miterlimit:10;" cx="128.2" cy="95.5" r="3"/>
			</g>
		</g>
		<g>
			<g>
				<path style="fill:none;stroke:#E95371;stroke-width:2;stroke-linecap:round;stroke-linejoin:round;stroke-miterlimit:10;" d="
					M108.2,116.7c-2.7,0-5-1.2-6.4-3.2c-1.2-1.8-1.7-3.9-1.2-5.9c0.4-2.1,1.7-4,3.7-5.3l18.2-11c2.1-1.5,4.3-2.3,6.2-2.3
					c2,0,3.6,0.9,4.8,2.5c1.2,1.7,1.5,3.7,0.8,5.6c-0.6,1.8-2,3.5-4.1,4.9l-16.4,12.8C112,116.1,110.1,116.7,108.2,116.7z
					 M128.6,90.2c-1.7,0-3.6,0.7-5.6,2.1l-18.2,11c-1.7,1.2-2.8,2.8-3.2,4.6c-0.4,1.7,0,3.5,1.1,5c1.2,1.7,3.2,2.7,5.4,2.7
					c1.7,0,3.4-0.5,4.9-1.6l16.4-12.8c1.9-1.3,3.1-2.8,3.7-4.4c0.6-1.6,0.3-3.2-0.7-4.6C131.5,90.8,130.2,90.2,128.6,90.2z"/>
			</g>
			<g>
				<path style="fill:none;stroke:#E95371;stroke-width:2;stroke-linecap:round;stroke-linejoin:round;stroke-miterlimit:10;" d="
					M155.4,119.2c-1.5,0-3.2-0.6-4.8-1.8l-25.9-16.8c-3.4-2.7-3.3-6.6-1.5-9.1l0.1-0.1c1-1.4,2.9-2.3,5-2.3c1.5,0,3,0.4,4.2,1.3
					l23.8,18.5c3.2,2.3,4.4,5.4,3,8.2l-0.1,0.1l-0.2,0.3C158,118.6,156.9,119.2,155.4,119.2z M124.2,92l-0.1,0.1
					c-1.4,2-1.7,5.2,1.2,7.6l25.9,16.8c1.5,1,2.9,1.6,4.2,1.6c1.1,0,1.9-0.4,2.5-1.2l0.2-0.3c1.1-2.2,0.1-4.7-2.7-6.7l-23.8-18.5
					c-1.2-0.9-2.6-1.1-3.5-1.1C126.5,90.3,125,91,124.2,92z"/>
			</g>
		</g>
	</g>
</g>
</svg>
