<?xml version="1.0" encoding="utf-8"?>
<!-- Generator: Adobe Illustrator 18.0.0, SVG Export Plug-In . SVG Version: 6.00 Build 0)  -->
<!DOCTYPE svg PUBLIC "-//W3C//DTD SVG 1.1//EN" "http://www.w3.org/Graphics/SVG/1.1/DTD/svg11.dtd">
<svg version="1.1" id="圖層_1" xmlns="http://www.w3.org/2000/svg" xmlns:xlink="http://www.w3.org/1999/xlink" x="0px" y="0px"
	 viewBox="0 0 250 250" style="enable-background:new 0 0 250 250;" xml:space="preserve">
<g>
	<g>
		<path style="fill:none;" d="M176.8,167.1c6.4,0,11.6-5.2,11.6-11.6v-10.8c0-6.4-5.2-11.6-11.6-11.6h-7.3v34H176.8z"/>
		<path style="fill:none;stroke:#0CA2B9;stroke-width:3;stroke-miterlimit:10;" d="M169.4,124.2v-8.5c0-0.2,0-0.4,0-0.7h-58.2H53
			c0,0.2,0,0.4,0,0.7v61c0,20.4,16.5,37,37,37h21.3h21.3c20.4,0,37-16.6,37-37v-0.8V124.2z"/>
		<path style="fill:none;stroke:#0CA2B9;stroke-width:3;stroke-miterlimit:10;" d="M179.4,124.2h-9.9v8.9h7.3
			c6.4,0,11.6,5.2,11.6,11.6v10.8c0,6.4-5.2,11.6-11.6,11.6h-7.3v8.9h9.9c9.7,0,17.6-7.9,17.6-17.6v-16.5
			C197,132.1,189.1,124.2,179.4,124.2z"/>
	</g>
	<path style="fill:#0CA2B9;stroke:#0CA2B9;stroke-width:3;stroke-miterlimit:10;" d="M164.2,210.1h-53h-53c-2.8,0-5.1,2.3-5.1,5.1
		c0,2.8,2.3,5.1,5.1,5.1h53h53c2.8,0,5.1-2.3,5.1-5.1C169.3,212.4,167,210.1,164.2,210.1z"/>
	<path style="fill:#0CA2B9;" d="M123.3,32.2c0,0-5.6,15.5-0.6,31.7c4.7,15.3,2.4,28.8-8.6,36.2c3.2-13,6.7-19,1.8-34
		C108.6,44,118.4,35,123.3,32.2z"/>
	<path style="fill:#0CA2B9;" d="M105.7,29.7c0,0-5.6,15.5-0.6,31.7c4.7,15.3,2.4,28.8-8.6,36.2c3.2-13,6.7-19,1.8-34
		C91,41.5,100.8,32.5,105.7,29.7z"/>
</g>
</svg>
