<?xml version="1.0" encoding="utf-8"?>
<!-- Generator: Adobe Illustrator 18.0.0, SVG Export Plug-In . SVG Version: 6.00 Build 0)  -->
<!DOCTYPE svg PUBLIC "-//W3C//DTD SVG 1.1//EN" "http://www.w3.org/Graphics/SVG/1.1/DTD/svg11.dtd">
<svg version="1.1" id="圖層_1" xmlns="http://www.w3.org/2000/svg" xmlns:xlink="http://www.w3.org/1999/xlink" x="0px" y="0px"
	 viewBox="0 0 250 250" style="enable-background:new 0 0 250 250;" xml:space="preserve">
<g>
	<path style="fill:none;stroke:#0CA2B9;stroke-width:3;stroke-linecap:round;stroke-linejoin:round;stroke-miterlimit:10;" d="
		M48.2,212.4l-10.6-10.6c-2.7-2.7-2.8-7.1-0.2-10l93.1-102.5l30.1,30.1L58.2,212.6C55.3,215.2,50.9,215.1,48.2,212.4z"/>
	<polygon style="fill:#0CA2B9;" points="36.1,221.3 28.7,213.9 37.4,201.6 48.4,212.6 	"/>
	<path style="fill:#0CA2B9;stroke:#0CA2B9;stroke-width:3;stroke-linecap:round;stroke-linejoin:round;stroke-miterlimit:10;" d="
		M162.5,122L128,87.5c-2.8-2.8-2.8-7.3,0-10l0.1-0.1c2.8-2.8,7.3-2.8,10,0l34.5,34.5c2.8,2.8,2.8,7.3,0,10l-0.1,0.1
		C169.8,124.8,165.3,124.8,162.5,122z"/>
	<path style="fill:none;stroke:#0CA2B9;stroke-width:3;stroke-linecap:round;stroke-linejoin:round;stroke-miterlimit:10;" d="
		M209.2,41.4l-0.6-0.6c-16.1-16.1-42.3-16.1-58.5,0l-0.6,0.6c-9.9,9.9-13.7,23.5-11.5,36.3l34.3,34.3c12.8,2.2,26.4-1.6,36.3-11.5
		l0.6-0.6C225.4,83.7,225.4,57.5,209.2,41.4z"/>
	<g>
		<circle style="fill:#0CA2B9;" cx="148.8" cy="68.7" r="2.1"/>
		<circle style="fill:#0CA2B9;" cx="159.7" cy="79.6" r="2.1"/>
		<circle style="fill:#0CA2B9;" cx="170.6" cy="90.5" r="2.1"/>
		<circle style="fill:#0CA2B9;" cx="181.5" cy="101.4" r="2.1"/>
		<circle style="fill:#0CA2B9;" cx="148.6" cy="57.8" r="2.1"/>
		<circle style="fill:#0CA2B9;" cx="159.5" cy="68.7" r="2.1"/>
		<circle style="fill:#0CA2B9;" cx="170.4" cy="79.6" r="2.1"/>
		<circle style="fill:#0CA2B9;" cx="181.3" cy="90.5" r="2.1"/>
		<circle style="fill:#0CA2B9;" cx="192.2" cy="101.4" r="2.1"/>
		<circle style="fill:#0CA2B9;" cx="149.1" cy="79.1" r="2.1"/>
		<circle style="fill:#0CA2B9;" cx="160" cy="90" r="2.1"/>
		<circle style="fill:#0CA2B9;" cx="170.9" cy="100.9" r="2.1"/>
		<circle style="fill:#0CA2B9;" cx="159.2" cy="58.3" r="2.1"/>
		<circle style="fill:#0CA2B9;" cx="170.1" cy="69.2" r="2.1"/>
		<circle style="fill:#0CA2B9;" cx="181" cy="80.1" r="2.1"/>
		<circle style="fill:#0CA2B9;" cx="191.9" cy="91" r="2.1"/>
		<circle style="fill:#0CA2B9;" cx="159" cy="47.4" r="2.1"/>
		<circle style="fill:#0CA2B9;" cx="169.9" cy="58.3" r="2.1"/>
		<circle style="fill:#0CA2B9;" cx="180.8" cy="69.2" r="2.1"/>
		<circle style="fill:#0CA2B9;" cx="191.7" cy="80.1" r="2.1"/>
		<circle style="fill:#0CA2B9;" cx="202.6" cy="91" r="2.1"/>
		<circle style="fill:#0CA2B9;" cx="169.6" cy="47.9" r="2.1"/>
		<circle style="fill:#0CA2B9;" cx="180.5" cy="58.8" r="2.1"/>
		<circle style="fill:#0CA2B9;" cx="191.4" cy="69.7" r="2.1"/>
		<circle style="fill:#0CA2B9;" cx="202.3" cy="80.6" r="2.1"/>
		<circle style="fill:#0CA2B9;" cx="169.4" cy="37" r="2.1"/>
		<circle style="fill:#0CA2B9;" cx="180.3" cy="47.9" r="2.1"/>
		<circle style="fill:#0CA2B9;" cx="191.2" cy="58.8" r="2.1"/>
		<circle style="fill:#0CA2B9;" cx="202.1" cy="69.7" r="2.1"/>
		<circle style="fill:#0CA2B9;" cx="213" cy="80.6" r="2.1"/>
		<circle style="fill:#0CA2B9;" cx="180" cy="37.5" r="2.1"/>
		<circle style="fill:#0CA2B9;" cx="190.9" cy="48.4" r="2.1"/>
		<circle style="fill:#0CA2B9;" cx="201.8" cy="59.3" r="2.1"/>
		<circle style="fill:#0CA2B9;" cx="212.7" cy="70.3" r="2.1"/>
		<circle style="fill:#0CA2B9;" cx="190.7" cy="37.5" r="2.1"/>
		<circle style="fill:#0CA2B9;" cx="201.6" cy="48.4" r="2.1"/>
		<circle style="fill:#0CA2B9;" cx="212.5" cy="59.3" r="2.1"/>
	</g>
	<g>
		<path style="fill:#FFFFFF;" d="M134.2,115.9L134.2,115.9c-1.5-1.5-3.8-1.5-5.2-0.1l-7.8,7.8c-1.4,1.4-1.4,3.7,0,5.2l0.1,0.1
			c1.4,1.4,3.7,1.4,5.2,0l7.8-7.8C135.6,119.6,135.6,117.3,134.2,115.9z"/>
		<path style="fill:none;stroke:#0CA2B9;stroke-width:3;stroke-linecap:round;stroke-linejoin:round;stroke-miterlimit:10;" d="
			M137.5,112.5L137.5,112.5c-2.2-2.2-5.8-2.2-7.9-0.1l-11.9,11.9c-2.2,2.2-2.2,5.7,0,7.8l0.1,0.1c2.2,2.2,5.7,2.2,7.8,0l11.9-11.9
			C139.7,118.2,139.7,114.7,137.5,112.5z"/>
		<path style="fill:#0CA2B9;" d="M129.4,124.1l3.9-3.9c1-1,1-2.5,0-3.5l-0.1-0.1c-1-1-2.5-1-3.5,0l-3.9,3.9L129.4,124.1z"/>
	</g>
</g>
</svg>
