<?xml version="1.0" encoding="utf-8"?>
<!-- Generator: Adobe Illustrator 18.0.0, SVG Export Plug-In . SVG Version: 6.00 Build 0)  -->
<!DOCTYPE svg PUBLIC "-//W3C//DTD SVG 1.1//EN" "http://www.w3.org/Graphics/SVG/1.1/DTD/svg11.dtd">
<svg version="1.1" id="圖層_1" xmlns="http://www.w3.org/2000/svg" xmlns:xlink="http://www.w3.org/1999/xlink" x="0px" y="0px"
	 viewBox="0 0 250 250" style="enable-background:new 0 0 250 250;" xml:space="preserve">
<g>
	<path style="fill:#E95371;" d="M246.8,182.8c-3.5-12.2-17.2-21.3-36.1-25.5c-0.5-14.8-0.4-31.8-0.3-41.9c0.1-7.8,0.1-13.9,0-17.2
		c-0.2-5.6-2-9.4-5.2-11.3c-4.4-2.6-9.4-0.3-10,0l2.6,5.3c0,0,2.7-1.2,4.4-0.2c1.3,0.8,2.1,3.1,2.3,6.4c0.1,3.2,0.1,9.2,0,16.9
		c-0.2,16.2-0.2,29.8,0.2,40.8c-10.5-1.7-22.3-1.9-34.7-0.5l0.7,5.8c12.8-1.5,24.3-1.1,34.2,0.6c0.8,15.4,2.5,24.7,5.7,28
		c3.1,3.1,8.7,5.9,15,7.3c2,0.5,4.9,1,7.9,1c3.1,0,6.3-0.5,8.9-2C245.2,194.8,249.2,191,246.8,182.8z M239.6,191.2
		c-5.6,3.3-19.9-0.5-24.7-5.3c-2.1-2.2-3.3-11.3-3.9-22.6c16.7,4.1,27.7,12.2,30.2,21.1C242.6,189.5,240.4,190.7,239.6,191.2z"/>
	<g>
		<g>
			<path style="fill:#FFFFFF;stroke:#E95371;stroke-width:3;stroke-linecap:round;stroke-linejoin:round;stroke-miterlimit:10;" d="
				M179.3,197.5c0,0,0-13.3,0-21.9c0-8.5-5.4-19.6-11.1-32.9c-5.7-13.3-9.5-13.9-17.2-13.9c-7.7,0-10.3-2.9-10.3-2.9l-40.4,1.2
				L59.8,126c0,0-2.5,2.9-10.3,2.9c-7.7,0-11.6,0.6-17.2,13.9c-5.7,13.3-11.1,24.4-11.1,32.9c0,8.5,0,21.9,0,21.9s-1.2,6.5,10.3,6.5
				h68.7H169C180.5,204.1,179.3,197.5,179.3,197.5z"/>
			<path style="fill:none;stroke:#E95371;stroke-width:3;stroke-linecap:round;stroke-linejoin:round;stroke-miterlimit:10;" d="
				M29.1,175.2c0,0,4.1,2.5,11.5,2.5c7.4,0,122.5,0,122.5,0s6.5-0.8,8.5-2.5v19.9c0,0-3,3.7-7,3.7H38.1c0,0-9.1-1.4-9.1-3.9V175.2"
				/>
		</g>
		<g>
			<g>
				<g>
					
						<path style="fill:#FFFFFF;stroke:#E95371;stroke-width:3;stroke-linecap:round;stroke-linejoin:round;stroke-miterlimit:10;" d="
						M146.1,63.8l-12.4-2.9c-2.2,11.6-32.5,11.7-32.5,11.7h-2c0,0-30.3-0.1-32.5-11.7l-12.4,2.9c0,0,0,24.1,45.9,24.1
						C148.7,87.9,146.1,63.8,146.1,63.8z"/>
				</g>
				<g>
					
						<ellipse style="fill:#FFFFFF;stroke:#E95371;stroke-width:3;stroke-linecap:round;stroke-linejoin:round;stroke-miterlimit:10;" cx="100.3" cy="110.8" rx="45.6" ry="35.5"/>
					
						<ellipse style="fill:#FFFFFF;stroke:#E95371;stroke-width:3;stroke-linecap:round;stroke-linejoin:round;stroke-miterlimit:10;" cx="100.3" cy="110.8" rx="35.3" ry="27.5"/>
					<circle style="fill:#E95371;" cx="89.3" cy="91.8" r="4.2"/>
					<circle style="fill:#E95371;" cx="100.2" cy="90" r="4.2"/>
					<circle style="fill:#E95371;" cx="111.3" cy="91.8" r="4.2"/>
					<circle style="fill:#E95371;" cx="120.8" cy="97.6" r="4.2"/>
					<circle style="fill:#E95371;" cx="113.9" cy="126.5" r="4.2"/>
					<circle style="fill:#E95371;" cx="102.9" cy="128.8" r="4.2"/>
					<circle style="fill:#E95371;" cx="91.5" cy="127.2" r="4.2"/>
					<ellipse style="fill:none;stroke:#E95371;stroke-width:3;stroke-miterlimit:10;" cx="100.3" cy="109.6" rx="16.8" ry="13.1"/>
					<circle style="fill:#E95371;" cx="126.9" cy="108.9" r="4.3"/>
					<circle style="fill:#E95371;" cx="123.3" cy="120.1" r="4.3"/>
				</g>
			</g>
			<g>
				
					<path style="fill:#FFFFFF;stroke:#E95371;stroke-width:3;stroke-linecap:round;stroke-linejoin:round;stroke-miterlimit:10;" d="
					M192.2,66.9c-19.4-18.8-72.3-20.8-89.7-21c-0.6,0-1.3,0-2.3,0c-1,0-1.7,0-2.3,0c-17.4,0.2-70.3,2.2-89.7,21c0,0-13.2,25.7,0,39
					c0,0,20.7,4.6,45.8-15.9c0,0,1.6-5.1-3-9.1c0,0-7.4-5.2-4.8-12c0,0,20.5-9.1,50.6-8.2h6.6c30.1-0.9,50.6,8.2,50.6,8.2
					c2.6,6.8-4.8,12-4.8,12c-4.6,4-3,9.1-3,9.1c25.1,20.5,45.8,15.9,45.8,15.9C205.4,92.7,192.2,66.9,192.2,66.9z"/>
				
					<path style="fill:#E95371;stroke:#E95371;stroke-width:3;stroke-linecap:round;stroke-linejoin:round;stroke-miterlimit:10;" d="
					M192.2,105.9c2.4-2.4,3.9-5.3,4.8-8.3C171.6,95.7,150,80.4,150,80.4l0,0c-0.4,0.3-0.6,0.5-0.6,0.5c-4.6,4-3,9.1-3,9.1
					C171.5,110.5,192.2,105.9,192.2,105.9z"/>
				
					<path style="fill:#E95371;stroke:#E95371;stroke-width:3;stroke-linecap:round;stroke-linejoin:round;stroke-miterlimit:10;" d="
					M8.4,106c-2.4-2.4-3.9-5.3-4.8-8.3C29,95.8,50.7,80.5,50.7,80.5h0c0.4,0.3,0.6,0.5,0.6,0.5c4.6,4,3,9.1,3,9.1
					C29.2,110.6,8.4,106,8.4,106z"/>
			</g>
		</g>
	</g>
</g>
</svg>
