<?xml version="1.0" encoding="utf-8"?>
<!-- Generator: Adobe Illustrator 18.0.0, SVG Export Plug-In . SVG Version: 6.00 Build 0)  -->
<!DOCTYPE svg PUBLIC "-//W3C//DTD SVG 1.1//EN" "http://www.w3.org/Graphics/SVG/1.1/DTD/svg11.dtd">
<svg version="1.1" id="圖層_1" xmlns="http://www.w3.org/2000/svg" xmlns:xlink="http://www.w3.org/1999/xlink" x="0px" y="0px"
	 viewBox="0 0 250 250" style="enable-background:new 0 0 250 250;" xml:space="preserve">
<g id="g82" transform="translate(68.913385,305.91166)">
	
		<path id="path84" style="fill:#0CA2B9;stroke:#0CA2B9;stroke-width:3;stroke-linecap:round;stroke-linejoin:round;stroke-miterlimit:10;" d="
		M79.4-238.5c40.3-4.8,76.4,19.5,80.6,54.3c2.5,20.9-7.1,40.8-23.9,54.5l13.4,24.8L122-120.7c-8.3,4.2-17.6,7-27.6,8.2
		c-40.4,4.8-76.4-19.5-80.6-54.3C9.7-201.5,39-233.7,79.4-238.5L79.4-238.5z"/>
	
		<path id="path86" style="fill:#FFFFFF;stroke:#0CA2B9;stroke-width:3;stroke-linecap:round;stroke-linejoin:round;stroke-miterlimit:10;" d="
		M17.8-256.3c-40.3,4.8-69.7,36.9-65.5,71.7c2.5,20.9,16.5,38,36,47.3l-7.2,27.3l23-21.8c9,2.1,18.8,2.7,28.7,1.5
		c40.3-4.8,69.7-36.9,65.5-71.7C94.2-236.8,58.1-261.1,17.8-256.3L17.8-256.3z"/>
	<path id="path88" style="fill:#0CA2B9;" d="M-6.9-182.5c5.5,0.1,10-4.3,10.1-9.8c0.1-5.5-4.3-10-9.8-10.1c-5.5-0.1-10,4.3-10.1,9.8
		C-16.8-187.2-12.4-182.6-6.9-182.5L-6.9-182.5z"/>
	<path id="path90" style="fill:#0CA2B9;" d="M25.3-182.1c5.5,0.1,10-4.3,10.1-9.8c0.1-5.5-4.3-10-9.8-10.1c-5.5-0.1-10,4.3-10.1,9.8
		C15.4-186.7,19.8-182.1,25.3-182.1L25.3-182.1z"/>
	<path id="path92" style="fill:#0CA2B9;" d="M57.4-181.6c5.5,0.1,10-4.3,10.1-9.8c0.1-5.5-4.3-10-9.8-10.1c-5.5-0.1-10,4.3-10.1,9.8
		C47.6-186.2,52-181.7,57.4-181.6L57.4-181.6z"/>
</g>
</svg>
