<?xml version="1.0" encoding="utf-8"?>
<!-- Generator: Adobe Illustrator 18.0.0, SVG Export Plug-In . SVG Version: 6.00 Build 0)  -->
<!DOCTYPE svg PUBLIC "-//W3C//DTD SVG 1.1//EN" "http://www.w3.org/Graphics/SVG/1.1/DTD/svg11.dtd">
<svg version="1.1" id="圖層_1" xmlns="http://www.w3.org/2000/svg" xmlns:xlink="http://www.w3.org/1999/xlink" x="0px" y="0px"
	 viewBox="0 0 250 250" style="enable-background:new 0 0 250 250;" xml:space="preserve">
<g>
	<g>
		<g>
			
				<polygon style="fill:#FFFFFF;stroke:#E95371;stroke-width:3;stroke-linecap:round;stroke-linejoin:round;stroke-miterlimit:10;" points="
				39.6,164.3 34.1,164.3 34.1,58.3 39.6,46.6 			"/>
			
				<polygon style="fill:#FFFFFF;stroke:#E95371;stroke-width:3;stroke-linecap:round;stroke-linejoin:round;stroke-miterlimit:10;" points="
				215,167.2 209.6,167.2 209.6,49.4 215,56.4 			"/>
			<g>
				<g>
					<g>
						
							<path style="fill:#FFFFFF;stroke:#E95371;stroke-width:3;stroke-linecap:round;stroke-linejoin:round;stroke-miterlimit:10;" d="
							M66.5,57.6c0,11.6-7.3,20.9-16.2,20.9c-9,0-16.2-9.4-16.2-20.9s18.8-14.5,16.2-14.5C59.2,43.1,66.5,46.1,66.5,57.6z"/>
						
							<path style="fill:#FFFFFF;stroke:#E95371;stroke-width:3;stroke-linecap:round;stroke-linejoin:round;stroke-miterlimit:10;" d="
							M125.9,57.6c0,11.6-7.3,20.9-16.2,20.9c-9,0-16.2-9.4-16.2-20.9c0-11.6,7.3-14.5,16.2-14.5C118.7,43.1,125.9,46.1,125.9,57.6z
							"/>
						
							<path style="fill:#FFFFFF;stroke:#E95371;stroke-width:3;stroke-linecap:round;stroke-linejoin:round;stroke-miterlimit:10;" d="
							M185.3,57.6c0,11.6-7.3,20.9-16.2,20.9c-9,0-16.2-9.4-16.2-20.9c0-11.6,7.3-14.5,16.2-14.5C178.1,43.1,185.3,46.1,185.3,57.6z
							"/>
					</g>
					
						<polygon style="fill:#FFFFFF;stroke:#E95371;stroke-width:3;stroke-linecap:round;stroke-linejoin:round;stroke-miterlimit:10;" points="
						65.8,57.6 34.1,57.6 38.4,41.8 65.8,41.8 					"/>
					
						<rect x="94.8" y="41.8" style="fill:#FFFFFF;stroke:#E95371;stroke-width:3;stroke-linecap:round;stroke-linejoin:round;stroke-miterlimit:10;" width="29.7" height="15.8"/>
					
						<rect x="154.2" y="41.8" style="fill:#FFFFFF;stroke:#E95371;stroke-width:3;stroke-linecap:round;stroke-linejoin:round;stroke-miterlimit:10;" width="29.7" height="15.8"/>
				</g>
				<g>
					<g>
						
							<path style="fill:#E95371;stroke:#E95371;stroke-width:3;stroke-linecap:round;stroke-linejoin:round;stroke-miterlimit:10;" d="
							M96.2,57.6c0,11.6-7.3,20.9-16.2,20.9c-8.9,0-16.2-9.4-16.2-20.9c0-11.6,7.3-14.5,16.2-14.5C88.9,43.1,96.2,46.1,96.2,57.6z"
							/>
						
							<path style="fill:#E95371;stroke:#E95371;stroke-width:3;stroke-linecap:round;stroke-linejoin:round;stroke-miterlimit:10;" d="
							M155.6,57.6c0,11.6-7.3,20.9-16.2,20.9c-9,0-16.2-9.4-16.2-20.9c0-11.6,7.3-14.5,16.2-14.5C148.4,43.1,155.6,46.1,155.6,57.6z
							"/>
						
							<path style="fill:#E95371;stroke:#E95371;stroke-width:3;stroke-linecap:round;stroke-linejoin:round;stroke-miterlimit:10;" d="
							M215.1,57.6c0,11.6-7.3,20.9-16.2,20.9c-9,0-16.2-9.4-16.2-20.9c0-11.6,7.3-14.5,16.2-14.5C196.3,43.1,215.1,46.1,215.1,57.6z
							"/>
					</g>
					
						<rect x="63.8" y="41.8" style="fill:#E95371;stroke:#E95371;stroke-width:3;stroke-linecap:round;stroke-linejoin:round;stroke-miterlimit:10;" width="32.4" height="15.8"/>
					
						<rect x="123.2" y="41.8" style="fill:#E95371;stroke:#E95371;stroke-width:3;stroke-linecap:round;stroke-linejoin:round;stroke-miterlimit:10;" width="32.4" height="15.8"/>
					
						<polygon style="fill:#E95371;stroke:#E95371;stroke-width:3;stroke-linecap:round;stroke-linejoin:round;stroke-miterlimit:10;" points="
						215.1,57.6 182.6,57.6 182.6,41.8 210.7,41.8 					"/>
				</g>
			</g>
			<g>
				<defs>
					<path id="SVGID_1_" d="M206.4,230.3H44.9l-10.8-59.7V152c0-8.7,6.5-15.7,14.4-15.7h152.1c8,0,14.4,7,14.4,15.7v19.7
						L206.4,230.3z"/>
				</defs>
				<use xlink:href="#SVGID_1_"  style="overflow:visible;fill:#FFFFFF;"/>
				<clipPath id="SVGID_2_">
					<use xlink:href="#SVGID_1_"  style="overflow:visible;"/>
				</clipPath>
				<g style="clip-path:url(#SVGID_2_);">
					<g>
						<g>
							
								<polygon style="fill:#FFFFFF;stroke:#E95371;stroke-width:3;stroke-linecap:round;stroke-linejoin:round;stroke-miterlimit:10;" points="
								56,235 39.2,235 23.3,128.9 40.1,128.9 							"/>
						</g>
						<g>
							
								<polygon style="fill:#FFFFFF;stroke:#E95371;stroke-width:3;stroke-linecap:round;stroke-linejoin:round;stroke-miterlimit:10;" points="
								84.4,235 67.6,235 57,128.9 73.8,128.9 							"/>
						</g>
						<g>
							
								<polygon style="fill:#FFFFFF;stroke:#E95371;stroke-width:3;stroke-linecap:round;stroke-linejoin:round;stroke-miterlimit:10;" points="
								112.8,235 98.6,235 90.7,128.9 107.5,128.9 							"/>
						</g>
						<g>
							
								<polygon style="fill:#FFFFFF;stroke:#E95371;stroke-width:3;stroke-linecap:round;stroke-linejoin:round;stroke-miterlimit:10;" points="
								141.5,235 126.7,235 124.3,128.9 141.2,128.9 							"/>
						</g>
						<g>
							
								<polygon style="fill:#FFFFFF;stroke:#E95371;stroke-width:3;stroke-linecap:round;stroke-linejoin:round;stroke-miterlimit:10;" points="
								170.1,235 155.4,235 158,128.9 174.9,128.9 							"/>
						</g>
						<g>
							
								<polygon style="fill:#FFFFFF;stroke:#E95371;stroke-width:3;stroke-linecap:round;stroke-linejoin:round;stroke-miterlimit:10;" points="
								197.2,235 183,235 191.7,128.9 208.5,128.9 							"/>
						</g>
					</g>
				</g>
				<g style="clip-path:url(#SVGID_2_);">
					
						<polygon style="fill:#E95371;stroke:#E95371;stroke-width:3;stroke-linecap:round;stroke-linejoin:round;stroke-miterlimit:10;" points="
						70.2,235 56,235 40.1,128.9 57,128.9 					"/>
					
						<polygon style="fill:#E95371;stroke:#E95371;stroke-width:3;stroke-linecap:round;stroke-linejoin:round;stroke-miterlimit:10;" points="
						98.6,235 84.4,235 73.8,128.9 90.7,128.9 					"/>
					
						<polygon style="fill:#E95371;stroke:#E95371;stroke-width:3;stroke-linecap:round;stroke-linejoin:round;stroke-miterlimit:10;" points="
						127,235 112.8,235 107.5,128.9 124.3,128.9 					"/>
					
						<polygon style="fill:#E95371;stroke:#E95371;stroke-width:3;stroke-linecap:round;stroke-linejoin:round;stroke-miterlimit:10;" points="
						155.4,235 141.2,235 141.2,128.9 158,128.9 					"/>
					
						<polygon style="fill:#E95371;stroke:#E95371;stroke-width:3;stroke-linecap:round;stroke-linejoin:round;stroke-miterlimit:10;" points="
						183.8,235 169.6,235 174.9,128.9 191.7,128.9 					"/>
					
						<polygon style="fill:#E95371;stroke:#E95371;stroke-width:3;stroke-linecap:round;stroke-linejoin:round;stroke-miterlimit:10;" points="
						210.8,235 196.6,235 208.5,128.9 225.4,128.9 					"/>
				</g>
				
					<rect x="34.1" y="123.8" style="clip-path:url(#SVGID_2_);fill:#FFFFFF;stroke:#E95371;stroke-width:3;stroke-linecap:round;stroke-linejoin:round;stroke-miterlimit:10;" width="12.4" height="46.9"/>
				
					<rect x="46.5" y="123.8" style="clip-path:url(#SVGID_2_);fill:#E95371;stroke:#E95371;stroke-width:3;stroke-linecap:round;stroke-linejoin:round;stroke-miterlimit:10;" width="15.8" height="46.9"/>
				
					<rect x="62.3" y="123.8" style="clip-path:url(#SVGID_2_);fill:#FFFFFF;stroke:#E95371;stroke-width:3;stroke-linecap:round;stroke-linejoin:round;stroke-miterlimit:10;" width="15.7" height="46.9"/>
				
					<rect x="78" y="123.8" style="clip-path:url(#SVGID_2_);fill:#E95371;stroke:#E95371;stroke-width:3;stroke-linecap:round;stroke-linejoin:round;stroke-miterlimit:10;" width="15.8" height="46.9"/>
				
					<rect x="93.9" y="123.8" style="clip-path:url(#SVGID_2_);fill:#FFFFFF;stroke:#E95371;stroke-width:3;stroke-linecap:round;stroke-linejoin:round;stroke-miterlimit:10;" width="15.8" height="46.9"/>
				
					<rect x="109.7" y="123.8" style="clip-path:url(#SVGID_2_);fill:#E95371;stroke:#E95371;stroke-width:3;stroke-linecap:round;stroke-linejoin:round;stroke-miterlimit:10;" width="15.9" height="46.9"/>
				
					<rect x="125.5" y="123.8" style="clip-path:url(#SVGID_2_);fill:#FFFFFF;stroke:#E95371;stroke-width:3;stroke-linecap:round;stroke-linejoin:round;stroke-miterlimit:10;" width="15.8" height="46.9"/>
				
					<rect x="141.2" y="123.8" style="clip-path:url(#SVGID_2_);fill:#E95371;stroke:#E95371;stroke-width:3;stroke-linecap:round;stroke-linejoin:round;stroke-miterlimit:10;" width="16.3" height="46.9"/>
				
					<rect x="157" y="123.8" style="clip-path:url(#SVGID_2_);fill:#FFFFFF;stroke:#E95371;stroke-width:3;stroke-linecap:round;stroke-linejoin:round;stroke-miterlimit:10;" width="15.8" height="46.9"/>
				
					<rect x="172.6" y="123.8" style="clip-path:url(#SVGID_2_);fill:#E95371;stroke:#E95371;stroke-width:3;stroke-linecap:round;stroke-linejoin:round;stroke-miterlimit:10;" width="16.3" height="46.9"/>
				
					<rect x="188.5" y="123.8" style="clip-path:url(#SVGID_2_);fill:#FFFFFF;stroke:#E95371;stroke-width:3;stroke-linecap:round;stroke-linejoin:round;stroke-miterlimit:10;" width="15.8" height="46.9"/>
				
					<rect x="203.7" y="123.8" style="clip-path:url(#SVGID_2_);fill:#E95371;stroke:#E95371;stroke-width:3;stroke-linecap:round;stroke-linejoin:round;stroke-miterlimit:10;" width="16.8" height="46.9"/>
				
					<use xlink:href="#SVGID_1_"  style="overflow:visible;fill:none;stroke:#E95371;stroke-width:3;stroke-linecap:round;stroke-linejoin:round;stroke-miterlimit:10;"/>
			</g>
		</g>
	</g>
	<g>
		
			<rect x="51.2" y="19.7" style="fill:#FFFFFF;stroke:#E95371;stroke-width:3;stroke-linecap:round;stroke-linejoin:round;stroke-miterlimit:10;" width="144.2" height="22.1"/>
	</g>
</g>
</svg>
