<?xml version="1.0" encoding="utf-8"?>
<!-- Generator: Adobe Illustrator 18.0.0, SVG Export Plug-In . SVG Version: 6.00 Build 0)  -->
<!DOCTYPE svg PUBLIC "-//W3C//DTD SVG 1.1//EN" "http://www.w3.org/Graphics/SVG/1.1/DTD/svg11.dtd">
<svg version="1.1" id="圖層_1" xmlns="http://www.w3.org/2000/svg" xmlns:xlink="http://www.w3.org/1999/xlink" x="0px" y="0px"
	 viewBox="0 0 250 250" style="enable-background:new 0 0 250 250;" xml:space="preserve">
<g>
	<path style="fill:none;stroke:#0CA2B9;stroke-width:3;stroke-linecap:round;stroke-linejoin:round;stroke-miterlimit:10;" d="
		M206.4,154.8c-4.8-0.9-10.9,2.9-13.5,8.5L176.8,198c-2.6,5.6-0.2,11.1,5.3,12.2c5.5,1.1,12-2.6,14.3-8.3l14.4-35
		C213.3,161.1,211.2,155.7,206.4,154.8z"/>
	<path style="fill:#0CA2B9;stroke:#0CA2B9;stroke-width:3;stroke-linecap:round;stroke-linejoin:round;stroke-miterlimit:10;" d="
		M237.5,148.4l-13.5-3.9l-6.6,22.8l13.5,3.9c4.7,1.4,9.7-1.4,11.1-6.1l1.6-5.6C245,154.8,242.2,149.8,237.5,148.4z"/>
	<g>
		<path style="fill:none;stroke:#0CA2B9;stroke-width:3;stroke-linecap:round;stroke-linejoin:round;stroke-miterlimit:10;" d="
			M195.5,122c-20.6-14.7-38.8-34.1-45.1-50.6c-10.2-27.1-25.5-31.5-25.5-31.5L78.3,201c0,0,14.9,5.8,38-11.6
			c13.9-10.4,39.1-17,63.9-18.7C191.4,153.1,194.7,134.1,195.5,122z"/>
		<path style="fill:#FFFFFF;stroke:#0CA2B9;stroke-width:3;stroke-linecap:round;stroke-linejoin:round;stroke-miterlimit:10;" d="
			M235.2,142.6c-3.5-1-7.1-2.3-10.8-3.9c-2.2,16.2-6,26.8-9.4,33.5c3.8,0.6,7.5,1.4,10.9,2.4c0,0,5-1.4,8.9-15
			C238.8,146,235.2,142.6,235.2,142.6z"/>
		<path style="fill:#0CA2B9;stroke:#0CA2B9;stroke-width:3;stroke-linecap:round;stroke-linejoin:round;stroke-miterlimit:10;" d="
			M224.4,138.7c-9.5-4.1-19.5-9.9-28.9-16.7c-0.8,12.1-4.1,31-15.3,48.8c12.2-0.8,24.3-0.4,34.9,1.3
			C218.5,165.5,222.3,154.9,224.4,138.7z"/>
	</g>
	
		<ellipse transform="matrix(0.9606 0.278 -0.278 0.9606 37.4899 -23.4911)" style="fill:#FFFFFF;stroke:#0CA2B9;stroke-width:3;stroke-linecap:round;stroke-linejoin:round;stroke-miterlimit:10;" cx="101.6" cy="120.5" rx="23.1" ry="83.9"/>
	<path style="fill:#0CA2B9;stroke:#0CA2B9;stroke-width:3;stroke-linecap:round;stroke-linejoin:round;stroke-miterlimit:10;" d="
		M99.1,114.7l-2.5,8.6c-2.2,7.6,2.2,15.5,9.8,17.7l11.7,3.4c2-5.6,3.9-11.5,5.7-17.6c1.8-6.3,3.4-12.5,4.7-18.6l-11.7-3.4
		C109.3,102.8,101.3,107.1,99.1,114.7z"/>
	<g>
		<path style="fill:#0CA2B9;" d="M31.4,149c-4.1-7.7-6.1-16.6-6.6-25.5c-0.5-8.9,0.6-17.8,3-26.4c2.3-8.5,5.9-16.9,11-24.2
			c5.1-7.3,11.4-13.6,18.4-18.8c-4.8,7.3-9.7,14.3-13.5,21.8c-3.9,7.4-6.7,15.1-8.9,23.2c-2.1,8-3.7,16.2-4.3,24.5
			C29.8,132,30.1,140.4,31.4,149z"/>
		<path style="fill:#0CA2B9;" d="M15.7,155.3c-3.3-4.3-5.2-9.5-6.7-14.6c-1.4-5.2-2.3-10.6-2.7-16c-0.8-10.8,0.3-21.8,3.1-32.4
			c2.9-10.5,7.6-20.5,13.8-29.4c3.1-4.5,6.5-8.6,10.4-12.5c3.9-3.7,8.1-7.3,13.1-9.4c-4.1,3.4-7.3,7.5-10.3,11.7
			c-3,4.2-5.7,8.6-8.2,13.1c-4.9,9.1-8.9,18.5-11.6,28.4c-2.6,9.8-4.1,20-4.4,30.3c-0.1,5.1,0,10.3,0.5,15.5
			C13,145.1,13.8,150.3,15.7,155.3z"/>
		<path style="fill:#0CA2B9;" d="M49.3,137.2c-2.2-5.5-3-11.3-3.1-17.2c-0.1-5.9,0.7-11.7,2.3-17.5c1.5-5.6,3.9-11.1,6.9-16.1
			c3.1-5,6.8-9.6,11.4-13.2c-2.2,5.4-4.4,10.5-6.3,15.7c-1.9,5.2-3.6,10.3-5,15.6c-1.4,5.2-2.6,10.5-3.6,15.9
			C50.8,125.9,50.1,131.4,49.3,137.2z"/>
	</g>
</g>
</svg>
